G04 #@! TF.GenerationSoftware,KiCad,Pcbnew,(6.0.4)*
G04 #@! TF.CreationDate,2022-05-09T00:45:17-06:00*
G04 #@! TF.ProjectId,PB_16-6v1_SMD.kicad_pcb,50425f31-362d-4367-9631-5f534d442e6b,rev?*
G04 #@! TF.SameCoordinates,Original*
G04 #@! TF.FileFunction,Soldermask,Top*
G04 #@! TF.FilePolarity,Negative*
%FSLAX46Y46*%
G04 Gerber Fmt 4.6, Leading zero omitted, Abs format (unit mm)*
G04 Created by KiCad (PCBNEW (6.0.4)) date 2022-05-09 00:45:17*
%MOMM*%
%LPD*%
G01*
G04 APERTURE LIST*
G04 Aperture macros list*
%AMRoundRect*
0 Rectangle with rounded corners*
0 $1 Rounding radius*
0 $2 $3 $4 $5 $6 $7 $8 $9 X,Y pos of 4 corners*
0 Add a 4 corners polygon primitive as box body*
4,1,4,$2,$3,$4,$5,$6,$7,$8,$9,$2,$3,0*
0 Add four circle primitives for the rounded corners*
1,1,$1+$1,$2,$3*
1,1,$1+$1,$4,$5*
1,1,$1+$1,$6,$7*
1,1,$1+$1,$8,$9*
0 Add four rect primitives between the rounded corners*
20,1,$1+$1,$2,$3,$4,$5,0*
20,1,$1+$1,$4,$5,$6,$7,0*
20,1,$1+$1,$6,$7,$8,$9,0*
20,1,$1+$1,$8,$9,$2,$3,0*%
G04 Aperture macros list end*
%ADD10C,3.200000*%
%ADD11R,1.500000X1.500000*%
%ADD12C,1.500000*%
%ADD13RoundRect,0.250000X-0.650000X-1.550000X0.650000X-1.550000X0.650000X1.550000X-0.650000X1.550000X0*%
%ADD14O,1.800000X3.600000*%
%ADD15RoundRect,0.250000X-0.475000X0.250000X-0.475000X-0.250000X0.475000X-0.250000X0.475000X0.250000X0*%
%ADD16RoundRect,0.243750X-0.456250X0.243750X-0.456250X-0.243750X0.456250X-0.243750X0.456250X0.243750X0*%
%ADD17R,1.600000X1.600000*%
%ADD18O,1.600000X1.600000*%
%ADD19R,0.900000X1.200000*%
%ADD20R,1.700000X1.700000*%
%ADD21O,1.700000X1.700000*%
%ADD22C,2.475000*%
%ADD23R,4.000000X4.000000*%
%ADD24C,4.000000*%
%ADD25RoundRect,0.250000X-0.262500X-0.450000X0.262500X-0.450000X0.262500X0.450000X-0.262500X0.450000X0*%
%ADD26RoundRect,0.150000X-0.150000X0.825000X-0.150000X-0.825000X0.150000X-0.825000X0.150000X0.825000X0*%
%ADD27RoundRect,0.250000X0.250000X0.475000X-0.250000X0.475000X-0.250000X-0.475000X0.250000X-0.475000X0*%
%ADD28RoundRect,0.243750X0.243750X0.456250X-0.243750X0.456250X-0.243750X-0.456250X0.243750X-0.456250X0*%
%ADD29R,1.300000X1.300000*%
%ADD30C,1.300000*%
%ADD31O,2.900000X1.900000*%
%ADD32O,1.900000X2.900000*%
%ADD33RoundRect,0.250000X0.475000X-0.250000X0.475000X0.250000X-0.475000X0.250000X-0.475000X-0.250000X0*%
%ADD34RoundRect,0.250000X0.450000X-0.262500X0.450000X0.262500X-0.450000X0.262500X-0.450000X-0.262500X0*%
%ADD35R,0.626843X1.658716*%
%ADD36RoundRect,0.313422X0.000001X0.515936X0.000001X-0.515936X-0.000001X-0.515936X-0.000001X0.515936X0*%
%ADD37RoundRect,0.250000X-0.600000X-0.725000X0.600000X-0.725000X0.600000X0.725000X-0.600000X0.725000X0*%
%ADD38O,1.700000X1.950000*%
%ADD39RoundRect,0.150000X0.512500X0.150000X-0.512500X0.150000X-0.512500X-0.150000X0.512500X-0.150000X0*%
%ADD40R,1.400000X1.400000*%
%ADD41C,1.400000*%
%ADD42RoundRect,0.042000X-0.943000X-0.258000X0.943000X-0.258000X0.943000X0.258000X-0.943000X0.258000X0*%
%ADD43RoundRect,0.250000X0.262500X0.450000X-0.262500X0.450000X-0.262500X-0.450000X0.262500X-0.450000X0*%
%ADD44RoundRect,0.100000X-0.100000X0.637500X-0.100000X-0.637500X0.100000X-0.637500X0.100000X0.637500X0*%
%ADD45RoundRect,0.250000X1.500000X0.550000X-1.500000X0.550000X-1.500000X-0.550000X1.500000X-0.550000X0*%
%ADD46RoundRect,0.250000X-0.450000X0.262500X-0.450000X-0.262500X0.450000X-0.262500X0.450000X0.262500X0*%
%ADD47RoundRect,0.042000X0.943000X0.258000X-0.943000X0.258000X-0.943000X-0.258000X0.943000X-0.258000X0*%
%ADD48RoundRect,0.070000X0.300000X0.525000X-0.300000X0.525000X-0.300000X-0.525000X0.300000X-0.525000X0*%
%ADD49R,1.800000X1.800000*%
%ADD50C,1.800000*%
%ADD51R,2.000000X2.000000*%
%ADD52C,2.000000*%
%ADD53R,1.408000X1.408000*%
%ADD54C,1.408000*%
G04 APERTURE END LIST*
D10*
X196830000Y-101056500D03*
X196830000Y-89626500D03*
D11*
X190480000Y-99786500D03*
D12*
X187940000Y-98516500D03*
X190480000Y-97246500D03*
X187940000Y-95976500D03*
X190480000Y-94706500D03*
X187940000Y-93436500D03*
X190480000Y-92166500D03*
X187940000Y-90896500D03*
D13*
X142433712Y-125984000D03*
D14*
X145933712Y-125984000D03*
X149433712Y-125984000D03*
D15*
X173307600Y-61330800D03*
X173307600Y-63230800D03*
D16*
X198526400Y-133782200D03*
X198526400Y-135657200D03*
D17*
X78359000Y-118110000D03*
D18*
X80899000Y-118110000D03*
X83439000Y-118110000D03*
X85979000Y-118110000D03*
X88519000Y-118110000D03*
X91059000Y-118110000D03*
X93599000Y-118110000D03*
X96139000Y-118110000D03*
D13*
X84401500Y-138818500D03*
D14*
X87901500Y-138818500D03*
X91401500Y-138818500D03*
D19*
X191644000Y-106934000D03*
X194944000Y-106934000D03*
X197485999Y-116840000D03*
X200785999Y-116840000D03*
D17*
X121207000Y-118110000D03*
D18*
X123747000Y-118110000D03*
X126287000Y-118110000D03*
X128827000Y-118110000D03*
X131367000Y-118110000D03*
X133907000Y-118110000D03*
X136447000Y-118110000D03*
X138987000Y-118110000D03*
D13*
X127935284Y-125984000D03*
D14*
X131435284Y-125984000D03*
X134935284Y-125984000D03*
D20*
X69088000Y-140716000D03*
D21*
X69088000Y-138176000D03*
X69088000Y-135636000D03*
X69088000Y-133096000D03*
D20*
X69088000Y-117348000D03*
D21*
X69088000Y-114808000D03*
X69088000Y-112268000D03*
X69088000Y-109728000D03*
X69088000Y-107188000D03*
D22*
X169875200Y-159136791D03*
X169875200Y-155436791D03*
X169875200Y-150936791D03*
X169875200Y-147236791D03*
D23*
X201809000Y-152545000D03*
D24*
X192309000Y-152545000D03*
D10*
X139319000Y-57150000D03*
D25*
X104074000Y-55880000D03*
X105899000Y-55880000D03*
D22*
X203200000Y-140570000D03*
X203200000Y-136870000D03*
X203200000Y-132370000D03*
X203200000Y-128670000D03*
D23*
X73264000Y-152763000D03*
D24*
X82764000Y-152763000D03*
D15*
X98735200Y-94554000D03*
X98735200Y-96454000D03*
D26*
X135509000Y-82869000D03*
X134239000Y-82869000D03*
X132969000Y-82869000D03*
X131699000Y-82869000D03*
X131699000Y-87819000D03*
X132969000Y-87819000D03*
X134239000Y-87819000D03*
X135509000Y-87819000D03*
D13*
X185929000Y-138684000D03*
D14*
X189429000Y-138684000D03*
X192929000Y-138684000D03*
D27*
X169606000Y-70612000D03*
X167706000Y-70612000D03*
D28*
X200073500Y-109728000D03*
X198198500Y-109728000D03*
D22*
X103936800Y-159136791D03*
X103936800Y-155436791D03*
X103936800Y-150936791D03*
X103936800Y-147236791D03*
D13*
X156921140Y-138684000D03*
D14*
X160421140Y-138684000D03*
X163921140Y-138684000D03*
D22*
X175869600Y-159136791D03*
X175869600Y-155436791D03*
X175869600Y-150936791D03*
X175869600Y-147236791D03*
D15*
X98735200Y-60822800D03*
X98735200Y-62722800D03*
D29*
X113848000Y-59789000D03*
D30*
X116348000Y-59789000D03*
X118348000Y-59789000D03*
X120848000Y-59789000D03*
D31*
X117348000Y-55009000D03*
D32*
X110778000Y-59189000D03*
X123918000Y-59189000D03*
D10*
X196946000Y-55895300D03*
X196946000Y-67325300D03*
D11*
X190596000Y-66055300D03*
D12*
X188056000Y-64785300D03*
X190596000Y-63515300D03*
X188056000Y-62245300D03*
X190596000Y-60975300D03*
X188056000Y-59705300D03*
X190596000Y-58435300D03*
X188056000Y-57165300D03*
D27*
X106040000Y-61976000D03*
X104140000Y-61976000D03*
D15*
X98735200Y-77586800D03*
X98735200Y-79486800D03*
D33*
X155448000Y-109728000D03*
X155448000Y-107828000D03*
X128524000Y-109728000D03*
X128524000Y-107828000D03*
D22*
X121920000Y-159136791D03*
X121920000Y-155436791D03*
X121920000Y-150936791D03*
X121920000Y-147236791D03*
D13*
X171425068Y-138684000D03*
D14*
X174925068Y-138684000D03*
X178425068Y-138684000D03*
D13*
X127913284Y-138818500D03*
D14*
X131413284Y-138818500D03*
X134913284Y-138818500D03*
D22*
X127914400Y-159136791D03*
X127914400Y-155436791D03*
X127914400Y-150936791D03*
X127914400Y-147236791D03*
D34*
X198628000Y-140612500D03*
X198628000Y-138787500D03*
D35*
X199416000Y-120432227D03*
D36*
X197585999Y-120432227D03*
X198500999Y-122385641D03*
D37*
X153456000Y-56371000D03*
D38*
X155956000Y-56371000D03*
X158456000Y-56371000D03*
X160956000Y-56371000D03*
D39*
X118541500Y-64295000D03*
X118541500Y-63345000D03*
X118541500Y-62395000D03*
X116266500Y-62395000D03*
X116266500Y-63345000D03*
X116266500Y-64295000D03*
D40*
X71755000Y-122936000D03*
D41*
X71755000Y-125436000D03*
X71755000Y-127936000D03*
X68455000Y-122936000D03*
X68455000Y-125436000D03*
X68455000Y-127936000D03*
D22*
X157886400Y-159136791D03*
X157886400Y-155436791D03*
X157886400Y-150936791D03*
X157886400Y-147236791D03*
D42*
X177473000Y-74599800D03*
X177473000Y-75869800D03*
X177473000Y-77139800D03*
X177473000Y-78409800D03*
X177473000Y-79679800D03*
X177473000Y-80949800D03*
X177473000Y-82219800D03*
X177473000Y-83489800D03*
X182423000Y-83489800D03*
X182423000Y-82219800D03*
X182423000Y-80949800D03*
X182423000Y-79679800D03*
X182423000Y-78409800D03*
X182423000Y-77139800D03*
X182423000Y-75869800D03*
X182423000Y-74599800D03*
D10*
X204343000Y-123317000D03*
D17*
X99783000Y-118110000D03*
D18*
X102323000Y-118110000D03*
X104863000Y-118110000D03*
X107403000Y-118110000D03*
X109943000Y-118110000D03*
X112483000Y-118110000D03*
X115023000Y-118110000D03*
X117563000Y-118110000D03*
D43*
X145057500Y-65659000D03*
X143232500Y-65659000D03*
D44*
X152277000Y-106357500D03*
X151627000Y-106357500D03*
X150977000Y-106357500D03*
X150327000Y-106357500D03*
X149677000Y-106357500D03*
X149027000Y-106357500D03*
X148377000Y-106357500D03*
X147727000Y-106357500D03*
X147077000Y-106357500D03*
X146427000Y-106357500D03*
X146427000Y-112082500D03*
X147077000Y-112082500D03*
X147727000Y-112082500D03*
X148377000Y-112082500D03*
X149027000Y-112082500D03*
X149677000Y-112082500D03*
X150327000Y-112082500D03*
X150977000Y-112082500D03*
X151627000Y-112082500D03*
X152277000Y-112082500D03*
D13*
X142417212Y-138684000D03*
D14*
X145917212Y-138684000D03*
X149417212Y-138684000D03*
D22*
X109931200Y-159136791D03*
X109931200Y-155436791D03*
X109931200Y-150936791D03*
X109931200Y-147236791D03*
X145897600Y-159136791D03*
X145897600Y-155436791D03*
X145897600Y-150936791D03*
X145897600Y-147236791D03*
D34*
X73152000Y-142033000D03*
X73152000Y-140208000D03*
D45*
X165641000Y-101473000D03*
X160241000Y-101473000D03*
D43*
X105941500Y-58801000D03*
X104116500Y-58801000D03*
D13*
X84440000Y-126118500D03*
D14*
X87940000Y-126118500D03*
X91440000Y-126118500D03*
D44*
X124845000Y-106357500D03*
X124195000Y-106357500D03*
X123545000Y-106357500D03*
X122895000Y-106357500D03*
X122245000Y-106357500D03*
X121595000Y-106357500D03*
X120945000Y-106357500D03*
X120295000Y-106357500D03*
X119645000Y-106357500D03*
X118995000Y-106357500D03*
X118995000Y-112082500D03*
X119645000Y-112082500D03*
X120295000Y-112082500D03*
X120945000Y-112082500D03*
X121595000Y-112082500D03*
X122245000Y-112082500D03*
X122895000Y-112082500D03*
X123545000Y-112082500D03*
X124195000Y-112082500D03*
X124845000Y-112082500D03*
D13*
X156932140Y-125984000D03*
D14*
X160432140Y-125984000D03*
X163932140Y-125984000D03*
D10*
X74950000Y-84109500D03*
X74950000Y-72679500D03*
D11*
X81300000Y-73949500D03*
D12*
X83840000Y-75219500D03*
X81300000Y-76489500D03*
X83840000Y-77759500D03*
X81300000Y-79029500D03*
X83840000Y-80299500D03*
X81300000Y-81569500D03*
X83840000Y-82839500D03*
D13*
X185929000Y-125984000D03*
D14*
X189429000Y-125984000D03*
X192929000Y-125984000D03*
D34*
X124968000Y-87780500D03*
X124968000Y-85955500D03*
D22*
X151892000Y-159136791D03*
X151892000Y-155436791D03*
X151892000Y-150936791D03*
X151892000Y-147236791D03*
D10*
X74950000Y-67548700D03*
X74950000Y-56118700D03*
D11*
X81300000Y-57388700D03*
D12*
X83840000Y-58658700D03*
X81300000Y-59928700D03*
X83840000Y-61198700D03*
X81300000Y-62468700D03*
X83840000Y-63738700D03*
X81300000Y-65008700D03*
X83840000Y-66278700D03*
D42*
X177589000Y-57835800D03*
X177589000Y-59105800D03*
X177589000Y-60375800D03*
X177589000Y-61645800D03*
X177589000Y-62915800D03*
X177589000Y-64185800D03*
X177589000Y-65455800D03*
X177589000Y-66725800D03*
X182539000Y-66725800D03*
X182539000Y-65455800D03*
X182539000Y-64185800D03*
X182539000Y-62915800D03*
X182539000Y-61645800D03*
X182539000Y-60375800D03*
X182539000Y-59105800D03*
X182539000Y-57835800D03*
D15*
X138684000Y-85984000D03*
X138684000Y-87884000D03*
D13*
X171430568Y-125984000D03*
D14*
X174930568Y-125984000D03*
X178430568Y-125984000D03*
D15*
X172582000Y-95062000D03*
X172582000Y-96962000D03*
D10*
X77216000Y-125857000D03*
D20*
X186436000Y-113284000D03*
D21*
X188976000Y-113284000D03*
X191516000Y-113284000D03*
D22*
X163880800Y-159136791D03*
X163880800Y-155436791D03*
X163880800Y-150936791D03*
X163880800Y-147236791D03*
D17*
X142631000Y-118110000D03*
D18*
X145171000Y-118110000D03*
X147711000Y-118110000D03*
X150251000Y-118110000D03*
X152791000Y-118110000D03*
X155331000Y-118110000D03*
X157871000Y-118110000D03*
X160411000Y-118110000D03*
D13*
X98938428Y-125984000D03*
D14*
X102438428Y-125984000D03*
X105938428Y-125984000D03*
D43*
X200048499Y-114300000D03*
X198223499Y-114300000D03*
D13*
X113436856Y-125984000D03*
D14*
X116936856Y-125984000D03*
X120436856Y-125984000D03*
D22*
X97942400Y-159136791D03*
X97942400Y-155436791D03*
X97942400Y-150936791D03*
X97942400Y-147236791D03*
D13*
X98905428Y-138818500D03*
D14*
X102405428Y-138818500D03*
X105905428Y-138818500D03*
D22*
X91948000Y-159136791D03*
X91948000Y-155436791D03*
X91948000Y-150936791D03*
X91948000Y-147236791D03*
D10*
X196830000Y-84089300D03*
X196830000Y-72659300D03*
D11*
X190480000Y-82819300D03*
D12*
X187940000Y-81549300D03*
X190480000Y-80279300D03*
X187940000Y-79009300D03*
X190480000Y-77739300D03*
X187940000Y-76469300D03*
X190480000Y-75199300D03*
X187940000Y-73929300D03*
D22*
X115925600Y-159148000D03*
X115925600Y-155448000D03*
X115925600Y-150948000D03*
X115925600Y-147248000D03*
D46*
X204216000Y-109427000D03*
X204216000Y-111252000D03*
D15*
X172582000Y-78094800D03*
X172582000Y-79994800D03*
D47*
X93915000Y-66217800D03*
X93915000Y-64947800D03*
X93915000Y-63677800D03*
X93915000Y-62407800D03*
X93915000Y-61137800D03*
X93915000Y-59867800D03*
X93915000Y-58597800D03*
X93915000Y-57327800D03*
X88965000Y-57327800D03*
X88965000Y-58597800D03*
X88965000Y-59867800D03*
X88965000Y-61137800D03*
X88965000Y-62407800D03*
X88965000Y-63677800D03*
X88965000Y-64947800D03*
X88965000Y-66217800D03*
D48*
X149286000Y-62658000D03*
X148336000Y-62658000D03*
X147386000Y-62658000D03*
X147386000Y-65358000D03*
X149286000Y-65358000D03*
D49*
X168147000Y-115321000D03*
D50*
X168147000Y-112781000D03*
X168147000Y-110241000D03*
D47*
X93915000Y-82981800D03*
X93915000Y-81711800D03*
X93915000Y-80441800D03*
X93915000Y-79171800D03*
X93915000Y-77901800D03*
X93915000Y-76631800D03*
X93915000Y-75361800D03*
X93915000Y-74091800D03*
X88965000Y-74091800D03*
X88965000Y-75361800D03*
X88965000Y-76631800D03*
X88965000Y-77901800D03*
X88965000Y-79171800D03*
X88965000Y-80441800D03*
X88965000Y-81711800D03*
X88965000Y-82981800D03*
D51*
X179959000Y-110998000D03*
D52*
X174959000Y-110998000D03*
D10*
X115316000Y-84836000D03*
X165100000Y-88392000D03*
X74950000Y-89646700D03*
X74950000Y-101076700D03*
D11*
X81300000Y-90916700D03*
D12*
X83840000Y-92186700D03*
X81300000Y-93456700D03*
X83840000Y-94726700D03*
X81300000Y-95996700D03*
X83840000Y-97266700D03*
X81300000Y-98536700D03*
X83840000Y-99806700D03*
D22*
X133908800Y-159136791D03*
X133908800Y-155436791D03*
X133908800Y-150936791D03*
X133908800Y-147236791D03*
D13*
X113409356Y-138818500D03*
D14*
X116909356Y-138818500D03*
X120409356Y-138818500D03*
D16*
X73197000Y-134393700D03*
X73197000Y-136268700D03*
D42*
X177473000Y-91567000D03*
X177473000Y-92837000D03*
X177473000Y-94107000D03*
X177473000Y-95377000D03*
X177473000Y-96647000D03*
X177473000Y-97917000D03*
X177473000Y-99187000D03*
X177473000Y-100457000D03*
X182423000Y-100457000D03*
X182423000Y-99187000D03*
X182423000Y-97917000D03*
X182423000Y-96647000D03*
X182423000Y-95377000D03*
X182423000Y-94107000D03*
X182423000Y-92837000D03*
X182423000Y-91567000D03*
D22*
X139903200Y-159136791D03*
X139903200Y-155436791D03*
X139903200Y-150936791D03*
X139903200Y-147236791D03*
D53*
X154076400Y-71526400D03*
D54*
X154076400Y-74066400D03*
X151536400Y-71526400D03*
X151536400Y-74066400D03*
X148996400Y-71526400D03*
X148996400Y-74066400D03*
X146456400Y-71526400D03*
X146456400Y-74066400D03*
X143916400Y-71526400D03*
X143916400Y-74066400D03*
X141376400Y-71526400D03*
X141376400Y-74066400D03*
X138836400Y-71526400D03*
X138836400Y-74066400D03*
X136296400Y-71526400D03*
X136296400Y-74066400D03*
X133756400Y-71526400D03*
X133756400Y-74066400D03*
X131216400Y-71526400D03*
X131216400Y-74066400D03*
X128676400Y-71526400D03*
X128676400Y-74066400D03*
X126136400Y-71526400D03*
X126136400Y-74066400D03*
X123596400Y-71526400D03*
X123596400Y-74066400D03*
X121056400Y-71526400D03*
X121056400Y-74066400D03*
X118516400Y-71526400D03*
X118516400Y-74066400D03*
X115976400Y-71526400D03*
X115976400Y-74066400D03*
X113436400Y-71526400D03*
X113436400Y-74066400D03*
X110896400Y-71526400D03*
X110896400Y-74066400D03*
D53*
X154076400Y-96926400D03*
D54*
X154076400Y-99466400D03*
X151536400Y-96926400D03*
X151536400Y-99466400D03*
X148996400Y-96926400D03*
X148996400Y-99466400D03*
X146456400Y-96926400D03*
X146456400Y-99466400D03*
X143916400Y-96926400D03*
X143916400Y-99466400D03*
X141376400Y-96926400D03*
X141376400Y-99466400D03*
X138836400Y-96926400D03*
X138836400Y-99466400D03*
X136296400Y-96926400D03*
X136296400Y-99466400D03*
X133756400Y-96926400D03*
X133756400Y-99466400D03*
X131216400Y-96926400D03*
X131216400Y-99466400D03*
X128676400Y-96926400D03*
X128676400Y-99466400D03*
X126136400Y-96926400D03*
X126136400Y-99466400D03*
X123596400Y-96926400D03*
X123596400Y-99466400D03*
X121056400Y-96926400D03*
X121056400Y-99466400D03*
X118516400Y-96926400D03*
X118516400Y-99466400D03*
X115976400Y-96926400D03*
X115976400Y-99466400D03*
X113436400Y-96926400D03*
X113436400Y-99466400D03*
X110896400Y-96926400D03*
X110896400Y-99466400D03*
D22*
X181864000Y-159136791D03*
X181864000Y-155436791D03*
X181864000Y-150936791D03*
X181864000Y-147236791D03*
D46*
X128524000Y-85955500D03*
X128524000Y-87780500D03*
D47*
X93915000Y-99949000D03*
X93915000Y-98679000D03*
X93915000Y-97409000D03*
X93915000Y-96139000D03*
X93915000Y-94869000D03*
X93915000Y-93599000D03*
X93915000Y-92329000D03*
X93915000Y-91059000D03*
X88965000Y-91059000D03*
X88965000Y-92329000D03*
X88965000Y-93599000D03*
X88965000Y-94869000D03*
X88965000Y-96139000D03*
X88965000Y-97409000D03*
X88965000Y-98679000D03*
X88965000Y-99949000D03*
M02*
