G04 #@! TF.GenerationSoftware,KiCad,Pcbnew,(6.0.4)*
G04 #@! TF.CreationDate,2022-05-09T00:45:17-06:00*
G04 #@! TF.ProjectId,PB_16-6v1_SMD.kicad_pcb,50425f31-362d-4367-9631-5f534d442e6b,rev?*
G04 #@! TF.SameCoordinates,Original*
G04 #@! TF.FileFunction,Legend,Bot*
G04 #@! TF.FilePolarity,Positive*
%FSLAX46Y46*%
G04 Gerber Fmt 4.6, Leading zero omitted, Abs format (unit mm)*
G04 Created by KiCad (PCBNEW (6.0.4)) date 2022-05-09 00:45:17*
%MOMM*%
%LPD*%
G01*
G04 APERTURE LIST*
G04 Aperture macros list*
%AMRoundRect*
0 Rectangle with rounded corners*
0 $1 Rounding radius*
0 $2 $3 $4 $5 $6 $7 $8 $9 X,Y pos of 4 corners*
0 Add a 4 corners polygon primitive as box body*
4,1,4,$2,$3,$4,$5,$6,$7,$8,$9,$2,$3,0*
0 Add four circle primitives for the rounded corners*
1,1,$1+$1,$2,$3*
1,1,$1+$1,$4,$5*
1,1,$1+$1,$6,$7*
1,1,$1+$1,$8,$9*
0 Add four rect primitives between the rounded corners*
20,1,$1+$1,$2,$3,$4,$5,0*
20,1,$1+$1,$4,$5,$6,$7,0*
20,1,$1+$1,$6,$7,$8,$9,0*
20,1,$1+$1,$8,$9,$2,$3,0*%
G04 Aperture macros list end*
%ADD10C,3.200000*%
%ADD11R,1.500000X1.500000*%
%ADD12C,1.500000*%
%ADD13RoundRect,0.250000X-0.650000X-1.550000X0.650000X-1.550000X0.650000X1.550000X-0.650000X1.550000X0*%
%ADD14O,1.800000X3.600000*%
%ADD15R,1.600000X1.600000*%
%ADD16O,1.600000X1.600000*%
%ADD17R,1.700000X1.700000*%
%ADD18O,1.700000X1.700000*%
%ADD19C,2.475000*%
%ADD20R,4.000000X4.000000*%
%ADD21C,4.000000*%
%ADD22R,1.300000X1.300000*%
%ADD23C,1.300000*%
%ADD24O,2.900000X1.900000*%
%ADD25O,1.900000X2.900000*%
%ADD26RoundRect,0.250000X-0.600000X-0.725000X0.600000X-0.725000X0.600000X0.725000X-0.600000X0.725000X0*%
%ADD27O,1.700000X1.950000*%
%ADD28R,1.400000X1.400000*%
%ADD29C,1.400000*%
%ADD30R,1.800000X1.800000*%
%ADD31C,1.800000*%
%ADD32R,2.000000X2.000000*%
%ADD33C,2.000000*%
%ADD34R,1.408000X1.408000*%
%ADD35C,1.408000*%
G04 APERTURE END LIST*
%LPC*%
D10*
X196830000Y-101056500D03*
X196830000Y-89626500D03*
D11*
X190480000Y-99786500D03*
D12*
X187940000Y-98516500D03*
X190480000Y-97246500D03*
X187940000Y-95976500D03*
X190480000Y-94706500D03*
X187940000Y-93436500D03*
X190480000Y-92166500D03*
X187940000Y-90896500D03*
D13*
X142433712Y-125984000D03*
D14*
X145933712Y-125984000D03*
X149433712Y-125984000D03*
D15*
X78359000Y-118110000D03*
D16*
X80899000Y-118110000D03*
X83439000Y-118110000D03*
X85979000Y-118110000D03*
X88519000Y-118110000D03*
X91059000Y-118110000D03*
X93599000Y-118110000D03*
X96139000Y-118110000D03*
D13*
X84401500Y-138818500D03*
D14*
X87901500Y-138818500D03*
X91401500Y-138818500D03*
D15*
X121207000Y-118110000D03*
D16*
X123747000Y-118110000D03*
X126287000Y-118110000D03*
X128827000Y-118110000D03*
X131367000Y-118110000D03*
X133907000Y-118110000D03*
X136447000Y-118110000D03*
X138987000Y-118110000D03*
D13*
X127935284Y-125984000D03*
D14*
X131435284Y-125984000D03*
X134935284Y-125984000D03*
D17*
X69088000Y-140716000D03*
D18*
X69088000Y-138176000D03*
X69088000Y-135636000D03*
X69088000Y-133096000D03*
D17*
X69088000Y-117348000D03*
D18*
X69088000Y-114808000D03*
X69088000Y-112268000D03*
X69088000Y-109728000D03*
X69088000Y-107188000D03*
D19*
X169875200Y-159136791D03*
X169875200Y-155436791D03*
X169875200Y-150936791D03*
X169875200Y-147236791D03*
D20*
X201809000Y-152545000D03*
D21*
X192309000Y-152545000D03*
D10*
X139319000Y-57150000D03*
D19*
X203200000Y-140570000D03*
X203200000Y-136870000D03*
X203200000Y-132370000D03*
X203200000Y-128670000D03*
D20*
X73264000Y-152763000D03*
D21*
X82764000Y-152763000D03*
D13*
X185929000Y-138684000D03*
D14*
X189429000Y-138684000D03*
X192929000Y-138684000D03*
D19*
X103936800Y-159136791D03*
X103936800Y-155436791D03*
X103936800Y-150936791D03*
X103936800Y-147236791D03*
D13*
X156921140Y-138684000D03*
D14*
X160421140Y-138684000D03*
X163921140Y-138684000D03*
D19*
X175869600Y-159136791D03*
X175869600Y-155436791D03*
X175869600Y-150936791D03*
X175869600Y-147236791D03*
D22*
X113848000Y-59789000D03*
D23*
X116348000Y-59789000D03*
X118348000Y-59789000D03*
X120848000Y-59789000D03*
D24*
X117348000Y-55009000D03*
D25*
X110778000Y-59189000D03*
X123918000Y-59189000D03*
D10*
X196946000Y-55895300D03*
X196946000Y-67325300D03*
D11*
X190596000Y-66055300D03*
D12*
X188056000Y-64785300D03*
X190596000Y-63515300D03*
X188056000Y-62245300D03*
X190596000Y-60975300D03*
X188056000Y-59705300D03*
X190596000Y-58435300D03*
X188056000Y-57165300D03*
D19*
X121920000Y-159136791D03*
X121920000Y-155436791D03*
X121920000Y-150936791D03*
X121920000Y-147236791D03*
D13*
X171425068Y-138684000D03*
D14*
X174925068Y-138684000D03*
X178425068Y-138684000D03*
D13*
X127913284Y-138818500D03*
D14*
X131413284Y-138818500D03*
X134913284Y-138818500D03*
D19*
X127914400Y-159136791D03*
X127914400Y-155436791D03*
X127914400Y-150936791D03*
X127914400Y-147236791D03*
D26*
X153456000Y-56371000D03*
D27*
X155956000Y-56371000D03*
X158456000Y-56371000D03*
X160956000Y-56371000D03*
D28*
X71755000Y-122936000D03*
D29*
X71755000Y-125436000D03*
X71755000Y-127936000D03*
X68455000Y-122936000D03*
X68455000Y-125436000D03*
X68455000Y-127936000D03*
D19*
X157886400Y-159136791D03*
X157886400Y-155436791D03*
X157886400Y-150936791D03*
X157886400Y-147236791D03*
D10*
X204343000Y-123317000D03*
D15*
X99783000Y-118110000D03*
D16*
X102323000Y-118110000D03*
X104863000Y-118110000D03*
X107403000Y-118110000D03*
X109943000Y-118110000D03*
X112483000Y-118110000D03*
X115023000Y-118110000D03*
X117563000Y-118110000D03*
D13*
X142417212Y-138684000D03*
D14*
X145917212Y-138684000D03*
X149417212Y-138684000D03*
D19*
X109931200Y-159136791D03*
X109931200Y-155436791D03*
X109931200Y-150936791D03*
X109931200Y-147236791D03*
X145897600Y-159136791D03*
X145897600Y-155436791D03*
X145897600Y-150936791D03*
X145897600Y-147236791D03*
D13*
X84440000Y-126118500D03*
D14*
X87940000Y-126118500D03*
X91440000Y-126118500D03*
D13*
X156932140Y-125984000D03*
D14*
X160432140Y-125984000D03*
X163932140Y-125984000D03*
D10*
X74950000Y-84109500D03*
X74950000Y-72679500D03*
D11*
X81300000Y-73949500D03*
D12*
X83840000Y-75219500D03*
X81300000Y-76489500D03*
X83840000Y-77759500D03*
X81300000Y-79029500D03*
X83840000Y-80299500D03*
X81300000Y-81569500D03*
X83840000Y-82839500D03*
D13*
X185929000Y-125984000D03*
D14*
X189429000Y-125984000D03*
X192929000Y-125984000D03*
D19*
X151892000Y-159136791D03*
X151892000Y-155436791D03*
X151892000Y-150936791D03*
X151892000Y-147236791D03*
D10*
X74950000Y-67548700D03*
X74950000Y-56118700D03*
D11*
X81300000Y-57388700D03*
D12*
X83840000Y-58658700D03*
X81300000Y-59928700D03*
X83840000Y-61198700D03*
X81300000Y-62468700D03*
X83840000Y-63738700D03*
X81300000Y-65008700D03*
X83840000Y-66278700D03*
D13*
X171430568Y-125984000D03*
D14*
X174930568Y-125984000D03*
X178430568Y-125984000D03*
D10*
X77216000Y-125857000D03*
D17*
X186436000Y-113284000D03*
D18*
X188976000Y-113284000D03*
X191516000Y-113284000D03*
D19*
X163880800Y-159136791D03*
X163880800Y-155436791D03*
X163880800Y-150936791D03*
X163880800Y-147236791D03*
D15*
X142631000Y-118110000D03*
D16*
X145171000Y-118110000D03*
X147711000Y-118110000D03*
X150251000Y-118110000D03*
X152791000Y-118110000D03*
X155331000Y-118110000D03*
X157871000Y-118110000D03*
X160411000Y-118110000D03*
D13*
X98938428Y-125984000D03*
D14*
X102438428Y-125984000D03*
X105938428Y-125984000D03*
D13*
X113436856Y-125984000D03*
D14*
X116936856Y-125984000D03*
X120436856Y-125984000D03*
D19*
X97942400Y-159136791D03*
X97942400Y-155436791D03*
X97942400Y-150936791D03*
X97942400Y-147236791D03*
D13*
X98905428Y-138818500D03*
D14*
X102405428Y-138818500D03*
X105905428Y-138818500D03*
D19*
X91948000Y-159136791D03*
X91948000Y-155436791D03*
X91948000Y-150936791D03*
X91948000Y-147236791D03*
D10*
X196830000Y-84089300D03*
X196830000Y-72659300D03*
D11*
X190480000Y-82819300D03*
D12*
X187940000Y-81549300D03*
X190480000Y-80279300D03*
X187940000Y-79009300D03*
X190480000Y-77739300D03*
X187940000Y-76469300D03*
X190480000Y-75199300D03*
X187940000Y-73929300D03*
D19*
X115925600Y-159148000D03*
X115925600Y-155448000D03*
X115925600Y-150948000D03*
X115925600Y-147248000D03*
D30*
X168147000Y-115321000D03*
D31*
X168147000Y-112781000D03*
X168147000Y-110241000D03*
D32*
X179959000Y-110998000D03*
D33*
X174959000Y-110998000D03*
D10*
X115316000Y-84836000D03*
X165100000Y-88392000D03*
X74950000Y-89646700D03*
X74950000Y-101076700D03*
D11*
X81300000Y-90916700D03*
D12*
X83840000Y-92186700D03*
X81300000Y-93456700D03*
X83840000Y-94726700D03*
X81300000Y-95996700D03*
X83840000Y-97266700D03*
X81300000Y-98536700D03*
X83840000Y-99806700D03*
D19*
X133908800Y-159136791D03*
X133908800Y-155436791D03*
X133908800Y-150936791D03*
X133908800Y-147236791D03*
D13*
X113409356Y-138818500D03*
D14*
X116909356Y-138818500D03*
X120409356Y-138818500D03*
D19*
X139903200Y-159136791D03*
X139903200Y-155436791D03*
X139903200Y-150936791D03*
X139903200Y-147236791D03*
D34*
X154076400Y-71526400D03*
D35*
X154076400Y-74066400D03*
X151536400Y-71526400D03*
X151536400Y-74066400D03*
X148996400Y-71526400D03*
X148996400Y-74066400D03*
X146456400Y-71526400D03*
X146456400Y-74066400D03*
X143916400Y-71526400D03*
X143916400Y-74066400D03*
X141376400Y-71526400D03*
X141376400Y-74066400D03*
X138836400Y-71526400D03*
X138836400Y-74066400D03*
X136296400Y-71526400D03*
X136296400Y-74066400D03*
X133756400Y-71526400D03*
X133756400Y-74066400D03*
X131216400Y-71526400D03*
X131216400Y-74066400D03*
X128676400Y-71526400D03*
X128676400Y-74066400D03*
X126136400Y-71526400D03*
X126136400Y-74066400D03*
X123596400Y-71526400D03*
X123596400Y-74066400D03*
X121056400Y-71526400D03*
X121056400Y-74066400D03*
X118516400Y-71526400D03*
X118516400Y-74066400D03*
X115976400Y-71526400D03*
X115976400Y-74066400D03*
X113436400Y-71526400D03*
X113436400Y-74066400D03*
X110896400Y-71526400D03*
X110896400Y-74066400D03*
D34*
X154076400Y-96926400D03*
D35*
X154076400Y-99466400D03*
X151536400Y-96926400D03*
X151536400Y-99466400D03*
X148996400Y-96926400D03*
X148996400Y-99466400D03*
X146456400Y-96926400D03*
X146456400Y-99466400D03*
X143916400Y-96926400D03*
X143916400Y-99466400D03*
X141376400Y-96926400D03*
X141376400Y-99466400D03*
X138836400Y-96926400D03*
X138836400Y-99466400D03*
X136296400Y-96926400D03*
X136296400Y-99466400D03*
X133756400Y-96926400D03*
X133756400Y-99466400D03*
X131216400Y-96926400D03*
X131216400Y-99466400D03*
X128676400Y-96926400D03*
X128676400Y-99466400D03*
X126136400Y-96926400D03*
X126136400Y-99466400D03*
X123596400Y-96926400D03*
X123596400Y-99466400D03*
X121056400Y-96926400D03*
X121056400Y-99466400D03*
X118516400Y-96926400D03*
X118516400Y-99466400D03*
X115976400Y-96926400D03*
X115976400Y-99466400D03*
X113436400Y-96926400D03*
X113436400Y-99466400D03*
X110896400Y-96926400D03*
X110896400Y-99466400D03*
D19*
X181864000Y-159136791D03*
X181864000Y-155436791D03*
X181864000Y-150936791D03*
X181864000Y-147236791D03*
M02*
