%FSLAX45Y45*%
G04 Gerber Fmt 4.5, Leading zero omitted, Abs format (unit mm)*
G04 Created by KiCad (PCBNEW (6.0.4)) date 2022-05-09 00:45:22*
%MOMM*%
%LPD*%
G01*
G04 APERTURE LIST*
%TA.AperFunction,Profile*%
%ADD10C,0.100000*%
%TD*%
%ADD11C,0.200000*%
%ADD12C,0.040000*%
%ADD13C,0.076000*%
%ADD14C,0.080000*%
%ADD15C,0.090000*%
%ADD16C,0.095000*%
%ADD17C,0.100000*%
%ADD18C,0.120000*%
%ADD19C,0.130000*%
%ADD20C,0.165000*%
%ADD21C,0.170000*%
G04 APERTURE END LIST*
D10*
X6400800Y-5194300D02*
X20840700Y-5194300D01*
X20840700Y-5194300D02*
X20840700Y-16217900D01*
X20840700Y-16217900D02*
X6400800Y-16217900D01*
X6400800Y-16217900D02*
X6400800Y-5194300D01*
D11*
D12*
X6825300Y-12006900D02*
X6865300Y-12046900D01*
X6865300Y-12006900D02*
X6825300Y-12046900D01*
X6888800Y-10495600D02*
X6928800Y-10535600D01*
X6928800Y-10495600D02*
X6888800Y-10535600D01*
X6965000Y-12387900D02*
X7005000Y-12427900D01*
X7005000Y-12387900D02*
X6965000Y-12427900D01*
X7053900Y-13048300D02*
X7093900Y-13088300D01*
X7093900Y-13048300D02*
X7053900Y-13088300D01*
X7142800Y-11702100D02*
X7182800Y-11742100D01*
X7182800Y-11702100D02*
X7142800Y-11742100D01*
X7193600Y-6863400D02*
X7233600Y-6903400D01*
X7233600Y-6863400D02*
X7193600Y-6903400D01*
X7193600Y-8450900D02*
X7233600Y-8490900D01*
X7233600Y-8450900D02*
X7193600Y-8490900D01*
X7206300Y-9936800D02*
X7246300Y-9976800D01*
X7246300Y-9936800D02*
X7206300Y-9976800D01*
X7219000Y-7384100D02*
X7259000Y-7424100D01*
X7259000Y-7384100D02*
X7219000Y-7424100D01*
X7219000Y-9098600D02*
X7259000Y-9138600D01*
X7259000Y-9098600D02*
X7219000Y-9138600D01*
X7244400Y-5745800D02*
X7284400Y-5785800D01*
X7284400Y-5745800D02*
X7244400Y-5785800D01*
X7282500Y-10952800D02*
X7322500Y-10992800D01*
X7322500Y-10952800D02*
X7282500Y-10992800D01*
X7282500Y-11587800D02*
X7322500Y-11627800D01*
X7322500Y-11587800D02*
X7282500Y-11627800D01*
X7574600Y-12984800D02*
X7614600Y-13024800D01*
X7614600Y-12984800D02*
X7574600Y-13024800D01*
X7650800Y-10597200D02*
X7690800Y-10637200D01*
X7690800Y-10597200D02*
X7650800Y-10637200D01*
X7688900Y-6533200D02*
X7728900Y-6573200D01*
X7728900Y-6533200D02*
X7688900Y-6573200D01*
X7688900Y-8184200D02*
X7728900Y-8224200D01*
X7728900Y-8184200D02*
X7688900Y-8224200D01*
X7714300Y-7155500D02*
X7754300Y-7195500D01*
X7754300Y-7155500D02*
X7714300Y-7195500D01*
X7739700Y-10216200D02*
X7779700Y-10256200D01*
X7779700Y-10216200D02*
X7739700Y-10256200D01*
X7765100Y-8831900D02*
X7805100Y-8871900D01*
X7805100Y-8831900D02*
X7765100Y-8871900D01*
X7993700Y-12057700D02*
X8033700Y-12097700D01*
X8033700Y-12057700D02*
X7993700Y-12097700D01*
X8031800Y-15715300D02*
X8071800Y-15755300D01*
X8071800Y-15715300D02*
X8031800Y-15755300D01*
X8209600Y-14127800D02*
X8249600Y-14167800D01*
X8249600Y-14127800D02*
X8209600Y-14167800D01*
X8362000Y-13454700D02*
X8402000Y-13494700D01*
X8402000Y-13454700D02*
X8362000Y-13494700D01*
X8387400Y-11448100D02*
X8427400Y-11488100D01*
X8427400Y-11448100D02*
X8387400Y-11488100D01*
X8501700Y-12045000D02*
X8541700Y-12085000D01*
X8541700Y-12045000D02*
X8501700Y-12085000D01*
X8514400Y-15715300D02*
X8554400Y-15755300D01*
X8554400Y-15715300D02*
X8514400Y-15755300D01*
X8527100Y-14839000D02*
X8567100Y-14879000D01*
X8567100Y-14839000D02*
X8527100Y-14879000D01*
X8870000Y-11422700D02*
X8910000Y-11462700D01*
X8910000Y-11422700D02*
X8870000Y-11462700D01*
X9073200Y-9428800D02*
X9113200Y-9468800D01*
X9113200Y-9428800D02*
X9073200Y-9468800D01*
X9111300Y-6050600D02*
X9151300Y-6090600D01*
X9151300Y-6050600D02*
X9111300Y-6090600D01*
X9111300Y-7739700D02*
X9151300Y-7779700D01*
X9151300Y-7739700D02*
X9111300Y-7779700D01*
X9124000Y-9085900D02*
X9164000Y-9125900D01*
X9164000Y-9085900D02*
X9124000Y-9125900D01*
X9136700Y-5733100D02*
X9176700Y-5773100D01*
X9176700Y-5733100D02*
X9136700Y-5773100D01*
X9174800Y-6241100D02*
X9214800Y-6281100D01*
X9214800Y-6241100D02*
X9174800Y-6281100D01*
X9174800Y-9593900D02*
X9214800Y-9633900D01*
X9214800Y-9593900D02*
X9174800Y-9633900D01*
X9183750Y-7409500D02*
X9223750Y-7449500D01*
X9223750Y-7409500D02*
X9183750Y-7449500D01*
X9187500Y-7904800D02*
X9227500Y-7944800D01*
X9227500Y-7904800D02*
X9187500Y-7944800D01*
X9289100Y-11549700D02*
X9329100Y-11589700D01*
X9329100Y-11549700D02*
X9289100Y-11589700D01*
X9327200Y-7269800D02*
X9367200Y-7309800D01*
X9367200Y-7269800D02*
X9327200Y-7309800D01*
X9339900Y-8704900D02*
X9379900Y-8744900D01*
X9379900Y-8704900D02*
X9339900Y-8744900D01*
X9352600Y-8565200D02*
X9392600Y-8605200D01*
X9392600Y-8565200D02*
X9352600Y-8605200D01*
X9352600Y-15715300D02*
X9392600Y-15755300D01*
X9392600Y-15715300D02*
X9352600Y-15755300D01*
X9428800Y-7180900D02*
X9468800Y-7220900D01*
X9468800Y-7180900D02*
X9428800Y-7220900D01*
X9441500Y-6831148D02*
X9481500Y-6871148D01*
X9481500Y-6831148D02*
X9441500Y-6871148D01*
X9441500Y-7066600D02*
X9481500Y-7106600D01*
X9481500Y-7066600D02*
X9441500Y-7106600D01*
X9454200Y-6939600D02*
X9494200Y-6979600D01*
X9494200Y-6939600D02*
X9454200Y-6979600D01*
X9454200Y-8920800D02*
X9494200Y-8960800D01*
X9494200Y-8920800D02*
X9454200Y-8960800D01*
X9581200Y-9289100D02*
X9621200Y-9329100D01*
X9621200Y-9289100D02*
X9581200Y-9329100D01*
X9593900Y-5707700D02*
X9633900Y-5747700D01*
X9633900Y-5707700D02*
X9593900Y-5747700D01*
X9593900Y-9593900D02*
X9633900Y-9633900D01*
X9633900Y-9593900D02*
X9593900Y-9633900D01*
X9606600Y-9733600D02*
X9646600Y-9773600D01*
X9646600Y-9733600D02*
X9606600Y-9773600D01*
X9606600Y-9860600D02*
X9646600Y-9900600D01*
X9646600Y-9860600D02*
X9606600Y-9900600D01*
X9644700Y-12006900D02*
X9684700Y-12046900D01*
X9684700Y-12006900D02*
X9644700Y-12046900D01*
X9784400Y-7396800D02*
X9824400Y-7436800D01*
X9824400Y-7396800D02*
X9784400Y-7436800D01*
X9809800Y-8539800D02*
X9849800Y-8579800D01*
X9849800Y-8539800D02*
X9809800Y-8579800D01*
X9822500Y-7231700D02*
X9862500Y-7271700D01*
X9862500Y-7231700D02*
X9822500Y-7271700D01*
X9847900Y-7104700D02*
X9887900Y-7144700D01*
X9887900Y-7104700D02*
X9847900Y-7144700D01*
X9847900Y-13467400D02*
X9887900Y-13507400D01*
X9887900Y-13467400D02*
X9847900Y-13507400D01*
X9873300Y-8704900D02*
X9913300Y-8744900D01*
X9913300Y-8704900D02*
X9873300Y-8744900D01*
X9873300Y-11549700D02*
X9913300Y-11589700D01*
X9913300Y-11549700D02*
X9873300Y-11589700D01*
X9936800Y-15715300D02*
X9976800Y-15755300D01*
X9976800Y-15715300D02*
X9936800Y-15755300D01*
X10025700Y-6711000D02*
X10065700Y-6751000D01*
X10065700Y-6711000D02*
X10025700Y-6751000D01*
X10051100Y-14140500D02*
X10091100Y-14180500D01*
X10091100Y-14140500D02*
X10051100Y-14180500D01*
X10063800Y-9936800D02*
X10103800Y-9976800D01*
X10103800Y-9936800D02*
X10063800Y-9976800D01*
X10101900Y-7092000D02*
X10141900Y-7132000D01*
X10141900Y-7092000D02*
X10101900Y-7132000D01*
X10114600Y-6545900D02*
X10154600Y-6585900D01*
X10154600Y-6545900D02*
X10114600Y-6585900D01*
X10178100Y-10140000D02*
X10218100Y-10180000D01*
X10218100Y-10140000D02*
X10178100Y-10180000D01*
X10317800Y-10254300D02*
X10357800Y-10294300D01*
X10357800Y-10254300D02*
X10317800Y-10294300D01*
X10394000Y-6025200D02*
X10434000Y-6065200D01*
X10434000Y-6025200D02*
X10394000Y-6065200D01*
X10394000Y-9492300D02*
X10434000Y-9532300D01*
X10434000Y-9492300D02*
X10394000Y-9532300D01*
X10406700Y-11562400D02*
X10446700Y-11602400D01*
X10446700Y-11562400D02*
X10406700Y-11602400D01*
X10406700Y-12133900D02*
X10446700Y-12173900D01*
X10446700Y-12133900D02*
X10406700Y-12173900D01*
X10419400Y-6545900D02*
X10459400Y-6585900D01*
X10459400Y-6545900D02*
X10419400Y-6585900D01*
X10419400Y-6647500D02*
X10459400Y-6687500D01*
X10459400Y-6647500D02*
X10419400Y-6687500D01*
X10495600Y-10368600D02*
X10535600Y-10408600D01*
X10535600Y-10368600D02*
X10495600Y-10408600D01*
X10508300Y-6749100D02*
X10548300Y-6789100D01*
X10548300Y-6749100D02*
X10508300Y-6789100D01*
X10559100Y-15715300D02*
X10599100Y-15755300D01*
X10599100Y-15715300D02*
X10559100Y-15755300D01*
X10571800Y-9746300D02*
X10611800Y-9786300D01*
X10611800Y-9746300D02*
X10571800Y-9786300D01*
X10597200Y-6850700D02*
X10637200Y-6890700D01*
X10637200Y-6850700D02*
X10597200Y-6890700D01*
X10603550Y-10552750D02*
X10643550Y-10592750D01*
X10643550Y-10552750D02*
X10603550Y-10592750D01*
X10609900Y-6406200D02*
X10649900Y-6446200D01*
X10649900Y-6406200D02*
X10609900Y-6446200D01*
X10698800Y-7422200D02*
X10738800Y-7462200D01*
X10738800Y-7422200D02*
X10698800Y-7462200D01*
X10711500Y-9860600D02*
X10751500Y-9900600D01*
X10751500Y-9860600D02*
X10711500Y-9900600D01*
X10863900Y-5783900D02*
X10903900Y-5823900D01*
X10903900Y-5783900D02*
X10863900Y-5823900D01*
X10952800Y-10178100D02*
X10992800Y-10218100D01*
X10992800Y-10178100D02*
X10952800Y-10218100D01*
X10978200Y-6914200D02*
X11018200Y-6954200D01*
X11018200Y-6914200D02*
X10978200Y-6954200D01*
X11117900Y-9466900D02*
X11157900Y-9506900D01*
X11157900Y-9466900D02*
X11117900Y-9506900D01*
X11143300Y-15702600D02*
X11183300Y-15742600D01*
X11183300Y-15702600D02*
X11143300Y-15742600D01*
X11270300Y-13467400D02*
X11310300Y-13507400D01*
X11310300Y-13467400D02*
X11270300Y-13507400D01*
X11321100Y-6228400D02*
X11361100Y-6268400D01*
X11361100Y-6228400D02*
X11321100Y-6268400D01*
X11321100Y-6418900D02*
X11361100Y-6458900D01*
X11361100Y-6418900D02*
X11321100Y-6458900D01*
X11321100Y-9466900D02*
X11361100Y-9506900D01*
X11361100Y-9466900D02*
X11321100Y-9506900D01*
X11321100Y-12921300D02*
X11361100Y-12961300D01*
X11361100Y-12921300D02*
X11321100Y-12961300D01*
X11575100Y-9466900D02*
X11615100Y-9506900D01*
X11615100Y-9466900D02*
X11575100Y-9506900D01*
X11727500Y-14267500D02*
X11767500Y-14307500D01*
X11767500Y-14267500D02*
X11727500Y-14307500D01*
X11740200Y-15715300D02*
X11780200Y-15755300D01*
X11780200Y-15715300D02*
X11740200Y-15755300D01*
X11765600Y-10457500D02*
X11805600Y-10497500D01*
X11805600Y-10457500D02*
X11765600Y-10497500D01*
X11816400Y-8019100D02*
X11856400Y-8059100D01*
X11856400Y-8019100D02*
X11816400Y-8059100D01*
X11829100Y-9466900D02*
X11869100Y-9506900D01*
X11869100Y-9466900D02*
X11829100Y-9506900D01*
X11981500Y-5364800D02*
X12021500Y-5404800D01*
X12021500Y-5364800D02*
X11981500Y-5404800D01*
X12006900Y-6304600D02*
X12046900Y-6344600D01*
X12046900Y-6304600D02*
X12006900Y-6344600D01*
X12133900Y-8387400D02*
X12173900Y-8427400D01*
X12173900Y-8387400D02*
X12133900Y-8427400D01*
X12184700Y-5682300D02*
X12224700Y-5722300D01*
X12224700Y-5682300D02*
X12184700Y-5722300D01*
X12248200Y-6647500D02*
X12288200Y-6687500D01*
X12288200Y-6647500D02*
X12248200Y-6687500D01*
X12299000Y-8222300D02*
X12339000Y-8262300D01*
X12339000Y-8222300D02*
X12299000Y-8262300D01*
X12349800Y-15715300D02*
X12389800Y-15755300D01*
X12389800Y-15715300D02*
X12349800Y-15755300D01*
X12413300Y-6241100D02*
X12453300Y-6281100D01*
X12453300Y-6241100D02*
X12413300Y-6281100D01*
X12413300Y-12883200D02*
X12453300Y-12923200D01*
X12453300Y-12883200D02*
X12413300Y-12923200D01*
X12489500Y-5656900D02*
X12529500Y-5696900D01*
X12529500Y-5656900D02*
X12489500Y-5696900D01*
X12540300Y-11587800D02*
X12580300Y-11627800D01*
X12580300Y-11587800D02*
X12540300Y-11627800D01*
X12565700Y-6672900D02*
X12605700Y-6712900D01*
X12605700Y-6672900D02*
X12565700Y-6712900D01*
X12603800Y-11219500D02*
X12643800Y-11259500D01*
X12643800Y-11219500D02*
X12603800Y-11259500D01*
X12616500Y-10762300D02*
X12656500Y-10802300D01*
X12656500Y-10762300D02*
X12616500Y-10802300D01*
X12641900Y-8755700D02*
X12681900Y-8795700D01*
X12681900Y-8755700D02*
X12641900Y-8795700D01*
X12756200Y-13467400D02*
X12796200Y-13507400D01*
X12796200Y-13467400D02*
X12756200Y-13507400D01*
X12832400Y-6901500D02*
X12872400Y-6941500D01*
X12872400Y-6901500D02*
X12832400Y-6941500D01*
X12832400Y-8412800D02*
X12872400Y-8452800D01*
X12872400Y-8412800D02*
X12832400Y-8452800D01*
X12832400Y-10597200D02*
X12872400Y-10637200D01*
X12872400Y-10597200D02*
X12832400Y-10637200D01*
X12857800Y-9492300D02*
X12897800Y-9532300D01*
X12897800Y-9492300D02*
X12857800Y-9532300D01*
X12934000Y-14305600D02*
X12974000Y-14345600D01*
X12974000Y-14305600D02*
X12934000Y-14345600D01*
X12946700Y-15702600D02*
X12986700Y-15742600D01*
X12986700Y-15702600D02*
X12946700Y-15742600D01*
X13022900Y-7676200D02*
X13062900Y-7716200D01*
X13062900Y-7676200D02*
X13022900Y-7716200D01*
X13048300Y-11587800D02*
X13088300Y-11627800D01*
X13088300Y-11587800D02*
X13048300Y-11627800D01*
X13175300Y-8514400D02*
X13215300Y-8554400D01*
X13215300Y-8514400D02*
X13175300Y-8554400D01*
X13200700Y-8069900D02*
X13240700Y-8109900D01*
X13240700Y-8069900D02*
X13200700Y-8109900D01*
X13213400Y-12184700D02*
X13253400Y-12224700D01*
X13253400Y-12184700D02*
X13213400Y-12224700D01*
X13327700Y-8514400D02*
X13367700Y-8554400D01*
X13367700Y-8514400D02*
X13327700Y-8554400D01*
X13442000Y-5555300D02*
X13482000Y-5595300D01*
X13482000Y-5555300D02*
X13442000Y-5595300D01*
X13505500Y-8514400D02*
X13545500Y-8554400D01*
X13545500Y-8514400D02*
X13505500Y-8554400D01*
X13556300Y-15715300D02*
X13596300Y-15755300D01*
X13596300Y-15715300D02*
X13556300Y-15755300D01*
X13632500Y-9454200D02*
X13672500Y-9494200D01*
X13672500Y-9454200D02*
X13632500Y-9494200D01*
X13696000Y-8273100D02*
X13736000Y-8313100D01*
X13736000Y-8273100D02*
X13696000Y-8313100D01*
X13708700Y-8006400D02*
X13748700Y-8046400D01*
X13748700Y-8006400D02*
X13708700Y-8046400D01*
X13784900Y-15715300D02*
X13824900Y-15755300D01*
X13824900Y-15715300D02*
X13784900Y-15755300D01*
X13835700Y-8400100D02*
X13875700Y-8440100D01*
X13875700Y-8400100D02*
X13835700Y-8440100D01*
X14153200Y-6545900D02*
X14193200Y-6585900D01*
X14193200Y-6545900D02*
X14153200Y-6585900D01*
X14216700Y-13480100D02*
X14256700Y-13520100D01*
X14256700Y-13480100D02*
X14216700Y-13520100D01*
X14267500Y-14356400D02*
X14307500Y-14396400D01*
X14307500Y-14356400D02*
X14267500Y-14396400D01*
X14356400Y-11994200D02*
X14396400Y-12034200D01*
X14396400Y-11994200D02*
X14356400Y-12034200D01*
X14394500Y-15702600D02*
X14434500Y-15742600D01*
X14434500Y-15702600D02*
X14394500Y-15742600D01*
X14508800Y-10622600D02*
X14548800Y-10662600D01*
X14548800Y-10622600D02*
X14508800Y-10662600D01*
X14800900Y-6063300D02*
X14840900Y-6103300D01*
X14840900Y-6063300D02*
X14800900Y-6103300D01*
X14927900Y-11549700D02*
X14967900Y-11589700D01*
X14967900Y-11549700D02*
X14927900Y-11589700D01*
X14991400Y-15702600D02*
X15031400Y-15742600D01*
X15031400Y-15702600D02*
X14991400Y-15742600D01*
X15207300Y-11371900D02*
X15247300Y-11411900D01*
X15247300Y-11371900D02*
X15207300Y-11411900D01*
X15283500Y-12299000D02*
X15323500Y-12339000D01*
X15323500Y-12299000D02*
X15283500Y-12339000D01*
X15296200Y-12934000D02*
X15336200Y-12974000D01*
X15336200Y-12934000D02*
X15296200Y-12974000D01*
X15298740Y-9507540D02*
X15338740Y-9547540D01*
X15338740Y-9507540D02*
X15298740Y-9547540D01*
X15347000Y-10571800D02*
X15387000Y-10611800D01*
X15387000Y-10571800D02*
X15347000Y-10611800D01*
X15410500Y-6076000D02*
X15450500Y-6116000D01*
X15450500Y-6076000D02*
X15410500Y-6116000D01*
X15512100Y-10584500D02*
X15552100Y-10624500D01*
X15552100Y-10584500D02*
X15512100Y-10624500D01*
X15601000Y-9606600D02*
X15641000Y-9646600D01*
X15641000Y-9606600D02*
X15601000Y-9646600D01*
X15601000Y-15702600D02*
X15641000Y-15742600D01*
X15641000Y-15702600D02*
X15601000Y-15742600D01*
X15689900Y-14292900D02*
X15729900Y-14332900D01*
X15729900Y-14292900D02*
X15689900Y-14332900D01*
X15715300Y-13454700D02*
X15755300Y-13494700D01*
X15755300Y-13454700D02*
X15715300Y-13494700D01*
X15880400Y-6736400D02*
X15920400Y-6776400D01*
X15920400Y-6736400D02*
X15880400Y-6776400D01*
X16032800Y-6736400D02*
X16072800Y-6776400D01*
X16072800Y-6736400D02*
X16032800Y-6776400D01*
X16045500Y-6076000D02*
X16085500Y-6116000D01*
X16085500Y-6076000D02*
X16045500Y-6116000D01*
X16197900Y-15715300D02*
X16237900Y-15755300D01*
X16237900Y-15715300D02*
X16197900Y-15755300D01*
X16413800Y-6977700D02*
X16453800Y-7017700D01*
X16453800Y-6977700D02*
X16413800Y-7017700D01*
X16439200Y-5618800D02*
X16479200Y-5658800D01*
X16479200Y-5618800D02*
X16439200Y-5658800D01*
X16557250Y-7130100D02*
X16597250Y-7170100D01*
X16597250Y-7130100D02*
X16557250Y-7170100D01*
X16629700Y-7219000D02*
X16669700Y-7259000D01*
X16669700Y-7219000D02*
X16629700Y-7259000D01*
X16629700Y-7320600D02*
X16669700Y-7360600D01*
X16669700Y-7320600D02*
X16629700Y-7360600D01*
X16629700Y-7422200D02*
X16669700Y-7462200D01*
X16669700Y-7422200D02*
X16629700Y-7462200D01*
X16642400Y-8311200D02*
X16682400Y-8351200D01*
X16682400Y-8311200D02*
X16642400Y-8351200D01*
X16650020Y-8201980D02*
X16690020Y-8241980D01*
X16690020Y-8201980D02*
X16650020Y-8241980D01*
X16693200Y-9632000D02*
X16733200Y-9672000D01*
X16733200Y-9632000D02*
X16693200Y-9672000D01*
X16693200Y-9886000D02*
X16733200Y-9926000D01*
X16733200Y-9886000D02*
X16693200Y-9926000D01*
X16794800Y-15702600D02*
X16834800Y-15742600D01*
X16834800Y-15702600D02*
X16794800Y-15742600D01*
X16807500Y-7206300D02*
X16847500Y-7246300D01*
X16847500Y-7206300D02*
X16807500Y-7246300D01*
X16921800Y-7625400D02*
X16961800Y-7665400D01*
X16961800Y-7625400D02*
X16921800Y-7665400D01*
X16959900Y-8895400D02*
X16999900Y-8935400D01*
X16999900Y-8895400D02*
X16959900Y-8935400D01*
X16985300Y-7434900D02*
X17025300Y-7474900D01*
X17025300Y-7434900D02*
X16985300Y-7474900D01*
X16985300Y-9136700D02*
X17025300Y-9176700D01*
X17025300Y-9136700D02*
X16985300Y-9176700D01*
X16998000Y-9327200D02*
X17038000Y-9367200D01*
X17038000Y-9327200D02*
X16998000Y-9367200D01*
X17048800Y-14204000D02*
X17088800Y-14244000D01*
X17088800Y-14204000D02*
X17048800Y-14244000D01*
X17099600Y-9835200D02*
X17139600Y-9875200D01*
X17139600Y-9835200D02*
X17099600Y-9875200D01*
X17126048Y-9961152D02*
X17166048Y-10001152D01*
X17166048Y-9961152D02*
X17126048Y-10001152D01*
X17150400Y-13454700D02*
X17190400Y-13494700D01*
X17190400Y-13454700D02*
X17150400Y-13494700D01*
X17201200Y-8311200D02*
X17241200Y-8351200D01*
X17241200Y-8311200D02*
X17201200Y-8351200D01*
X17207550Y-6539550D02*
X17247550Y-6579550D01*
X17247550Y-6539550D02*
X17207550Y-6579550D01*
X17208820Y-8201980D02*
X17248820Y-8241980D01*
X17248820Y-8201980D02*
X17208820Y-8241980D01*
X17302800Y-10648000D02*
X17342800Y-10688000D01*
X17342800Y-10648000D02*
X17302800Y-10688000D01*
X17340900Y-6850700D02*
X17380900Y-6890700D01*
X17380900Y-6850700D02*
X17340900Y-6890700D01*
X17391700Y-15702600D02*
X17431700Y-15742600D01*
X17431700Y-15702600D02*
X17391700Y-15742600D01*
X17404400Y-9136700D02*
X17444400Y-9176700D01*
X17444400Y-9136700D02*
X17404400Y-9176700D01*
X17404400Y-9327200D02*
X17444400Y-9367200D01*
X17444400Y-9327200D02*
X17404400Y-9367200D01*
X17442500Y-10076500D02*
X17482500Y-10116500D01*
X17482500Y-10076500D02*
X17442500Y-10116500D01*
X17455200Y-7434900D02*
X17495200Y-7474900D01*
X17495200Y-7434900D02*
X17455200Y-7474900D01*
X17461550Y-7631750D02*
X17501550Y-7671750D01*
X17501550Y-7631750D02*
X17461550Y-7671750D01*
X17480600Y-7815900D02*
X17520600Y-7855900D01*
X17520600Y-7815900D02*
X17480600Y-7855900D01*
X17480600Y-9530400D02*
X17520600Y-9570400D01*
X17520600Y-9530400D02*
X17480600Y-9570400D01*
X17480600Y-9771700D02*
X17520600Y-9811700D01*
X17520600Y-9771700D02*
X17480600Y-9811700D01*
X17493300Y-5771200D02*
X17533300Y-5811200D01*
X17533300Y-5771200D02*
X17493300Y-5811200D01*
X17493300Y-5949000D02*
X17533300Y-5989000D01*
X17533300Y-5949000D02*
X17493300Y-5989000D01*
X17506000Y-6990400D02*
X17546000Y-7030400D01*
X17546000Y-6990400D02*
X17506000Y-7030400D01*
X17518700Y-6152200D02*
X17558700Y-6192200D01*
X17558700Y-6152200D02*
X17518700Y-6192200D01*
X17518700Y-6660200D02*
X17558700Y-6700200D01*
X17558700Y-6660200D02*
X17518700Y-6700200D01*
X17620300Y-5491800D02*
X17660300Y-5531800D01*
X17660300Y-5491800D02*
X17620300Y-5531800D01*
X17683800Y-8870000D02*
X17723800Y-8910000D01*
X17723800Y-8870000D02*
X17683800Y-8910000D01*
X17734600Y-6799900D02*
X17774600Y-6839900D01*
X17774600Y-6799900D02*
X17734600Y-6839900D01*
X17810800Y-11562400D02*
X17850800Y-11602400D01*
X17850800Y-11562400D02*
X17810800Y-11602400D01*
X17963200Y-8247700D02*
X18003200Y-8287700D01*
X18003200Y-8247700D02*
X17963200Y-8287700D01*
X17975900Y-6571300D02*
X18015900Y-6611300D01*
X18015900Y-6571300D02*
X17975900Y-6611300D01*
X18001300Y-15702600D02*
X18041300Y-15742600D01*
X18041300Y-15702600D02*
X18001300Y-15742600D01*
X18064800Y-10749600D02*
X18104800Y-10789600D01*
X18104800Y-10749600D02*
X18064800Y-10789600D01*
X18229900Y-5555300D02*
X18269900Y-5595300D01*
X18269900Y-5555300D02*
X18229900Y-5595300D01*
X18268000Y-8984300D02*
X18308000Y-9024300D01*
X18308000Y-8984300D02*
X18268000Y-9024300D01*
X18420400Y-10089200D02*
X18460400Y-10129200D01*
X18460400Y-10089200D02*
X18420400Y-10129200D01*
X18420400Y-14115100D02*
X18460400Y-14155100D01*
X18460400Y-14115100D02*
X18420400Y-14155100D01*
X18445800Y-6711000D02*
X18485800Y-6751000D01*
X18485800Y-6711000D02*
X18445800Y-6751000D01*
X18509300Y-7955600D02*
X18549300Y-7995600D01*
X18549300Y-7955600D02*
X18509300Y-7995600D01*
X18509300Y-9647600D02*
X18549300Y-9687600D01*
X18549300Y-9647600D02*
X18509300Y-9687600D01*
X18547400Y-6279200D02*
X18587400Y-6319200D01*
X18587400Y-6279200D02*
X18547400Y-6319200D01*
X18610900Y-13454700D02*
X18650900Y-13494700D01*
X18650900Y-13454700D02*
X18610900Y-13494700D01*
X18890300Y-14851700D02*
X18930300Y-14891700D01*
X18930300Y-14851700D02*
X18890300Y-14891700D01*
X18915700Y-15664500D02*
X18955700Y-15704500D01*
X18955700Y-15664500D02*
X18915700Y-15704500D01*
X19157000Y-13315000D02*
X19197000Y-13355000D01*
X19197000Y-13315000D02*
X19157000Y-13355000D01*
X19385600Y-5441000D02*
X19425600Y-5481000D01*
X19425600Y-5441000D02*
X19385600Y-5481000D01*
X19385600Y-5796600D02*
X19425600Y-5836600D01*
X19425600Y-5796600D02*
X19385600Y-5836600D01*
X19385600Y-6571300D02*
X19425600Y-6611300D01*
X19425600Y-6571300D02*
X19385600Y-6611300D01*
X19385600Y-6838000D02*
X19425600Y-6878000D01*
X19425600Y-6838000D02*
X19385600Y-6878000D01*
X19385600Y-7092000D02*
X19425600Y-7132000D01*
X19425600Y-7092000D02*
X19385600Y-7132000D01*
X19385600Y-7358700D02*
X19425600Y-7398700D01*
X19425600Y-7358700D02*
X19385600Y-7398700D01*
X19385600Y-8260400D02*
X19425600Y-8300400D01*
X19425600Y-8260400D02*
X19385600Y-8300400D01*
X19385600Y-8527100D02*
X19425600Y-8567100D01*
X19425600Y-8527100D02*
X19385600Y-8567100D01*
X19385600Y-8819200D02*
X19425600Y-8859200D01*
X19425600Y-8819200D02*
X19385600Y-8859200D01*
X19385600Y-9085900D02*
X19425600Y-9125900D01*
X19425600Y-9085900D02*
X19385600Y-9125900D01*
X19385600Y-9936800D02*
X19425600Y-9976800D01*
X19425600Y-9936800D02*
X19385600Y-9976800D01*
X19385600Y-10203500D02*
X19425600Y-10243500D01*
X19425600Y-10203500D02*
X19385600Y-10243500D01*
X19525300Y-14851700D02*
X19565300Y-14891700D01*
X19565300Y-14851700D02*
X19525300Y-14891700D01*
X19893600Y-11562400D02*
X19933600Y-11602400D01*
X19933600Y-11562400D02*
X19893600Y-11602400D01*
X19944400Y-5415600D02*
X19984400Y-5455600D01*
X19984400Y-5415600D02*
X19944400Y-5455600D01*
X19944400Y-5771200D02*
X19984400Y-5811200D01*
X19984400Y-5771200D02*
X19944400Y-5811200D01*
X19944400Y-6571300D02*
X19984400Y-6611300D01*
X19984400Y-6571300D02*
X19944400Y-6611300D01*
X19944400Y-6838000D02*
X19984400Y-6878000D01*
X19984400Y-6838000D02*
X19944400Y-6878000D01*
X19944400Y-7092000D02*
X19984400Y-7132000D01*
X19984400Y-7092000D02*
X19944400Y-7132000D01*
X19944400Y-7358700D02*
X19984400Y-7398700D01*
X19984400Y-7358700D02*
X19944400Y-7398700D01*
X19944400Y-8260400D02*
X19984400Y-8300400D01*
X19984400Y-8260400D02*
X19944400Y-8300400D01*
X19944400Y-8527100D02*
X19984400Y-8567100D01*
X19984400Y-8527100D02*
X19944400Y-8567100D01*
X19944400Y-8819200D02*
X19984400Y-8859200D01*
X19984400Y-8819200D02*
X19944400Y-8859200D01*
X19944400Y-9085900D02*
X19984400Y-9125900D01*
X19984400Y-9085900D02*
X19944400Y-9125900D01*
X19944400Y-9936800D02*
X19984400Y-9976800D01*
X19984400Y-9936800D02*
X19944400Y-9976800D01*
X19944400Y-10203500D02*
X19984400Y-10243500D01*
X19984400Y-10203500D02*
X19944400Y-10243500D01*
X20160300Y-11143300D02*
X20200300Y-11183300D01*
X20200300Y-11143300D02*
X20160300Y-11183300D01*
X20668300Y-11968800D02*
X20708300Y-12008800D01*
X20708300Y-11968800D02*
X20668300Y-12008800D01*
D13*
X8168000Y-5738870D02*
G75*
G03*
X8168000Y-5738870I-38000J0D01*
G01*
X8168000Y-5992870D02*
G75*
G03*
X8168000Y-5992870I-38000J0D01*
G01*
X8168000Y-6246870D02*
G75*
G03*
X8168000Y-6246870I-38000J0D01*
G01*
X8168000Y-6500870D02*
G75*
G03*
X8168000Y-6500870I-38000J0D01*
G01*
X8168000Y-7394950D02*
G75*
G03*
X8168000Y-7394950I-38000J0D01*
G01*
X8168000Y-7648950D02*
G75*
G03*
X8168000Y-7648950I-38000J0D01*
G01*
X8168000Y-7902950D02*
G75*
G03*
X8168000Y-7902950I-38000J0D01*
G01*
X8168000Y-8156950D02*
G75*
G03*
X8168000Y-8156950I-38000J0D01*
G01*
X8168000Y-9091670D02*
G75*
G03*
X8168000Y-9091670I-38000J0D01*
G01*
X8168000Y-9345670D02*
G75*
G03*
X8168000Y-9345670I-38000J0D01*
G01*
X8168000Y-9599670D02*
G75*
G03*
X8168000Y-9599670I-38000J0D01*
G01*
X8168000Y-9853670D02*
G75*
G03*
X8168000Y-9853670I-38000J0D01*
G01*
X8422000Y-5865870D02*
G75*
G03*
X8422000Y-5865870I-38000J0D01*
G01*
X8422000Y-6119870D02*
G75*
G03*
X8422000Y-6119870I-38000J0D01*
G01*
X8422000Y-6373870D02*
G75*
G03*
X8422000Y-6373870I-38000J0D01*
G01*
X8422000Y-6627870D02*
G75*
G03*
X8422000Y-6627870I-38000J0D01*
G01*
X8422000Y-7521950D02*
G75*
G03*
X8422000Y-7521950I-38000J0D01*
G01*
X8422000Y-7775950D02*
G75*
G03*
X8422000Y-7775950I-38000J0D01*
G01*
X8422000Y-8029950D02*
G75*
G03*
X8422000Y-8029950I-38000J0D01*
G01*
X8422000Y-8283950D02*
G75*
G03*
X8422000Y-8283950I-38000J0D01*
G01*
X8422000Y-9218670D02*
G75*
G03*
X8422000Y-9218670I-38000J0D01*
G01*
X8422000Y-9472670D02*
G75*
G03*
X8422000Y-9472670I-38000J0D01*
G01*
X8422000Y-9726670D02*
G75*
G03*
X8422000Y-9726670I-38000J0D01*
G01*
X8422000Y-9980670D02*
G75*
G03*
X8422000Y-9980670I-38000J0D01*
G01*
X18832000Y-7392930D02*
G75*
G03*
X18832000Y-7392930I-38000J0D01*
G01*
X18832000Y-7646930D02*
G75*
G03*
X18832000Y-7646930I-38000J0D01*
G01*
X18832000Y-7900930D02*
G75*
G03*
X18832000Y-7900930I-38000J0D01*
G01*
X18832000Y-8154930D02*
G75*
G03*
X18832000Y-8154930I-38000J0D01*
G01*
X18832000Y-9089650D02*
G75*
G03*
X18832000Y-9089650I-38000J0D01*
G01*
X18832000Y-9343650D02*
G75*
G03*
X18832000Y-9343650I-38000J0D01*
G01*
X18832000Y-9597650D02*
G75*
G03*
X18832000Y-9597650I-38000J0D01*
G01*
X18832000Y-9851650D02*
G75*
G03*
X18832000Y-9851650I-38000J0D01*
G01*
X18843600Y-5716530D02*
G75*
G03*
X18843600Y-5716530I-38000J0D01*
G01*
X18843600Y-5970530D02*
G75*
G03*
X18843600Y-5970530I-38000J0D01*
G01*
X18843600Y-6224530D02*
G75*
G03*
X18843600Y-6224530I-38000J0D01*
G01*
X18843600Y-6478530D02*
G75*
G03*
X18843600Y-6478530I-38000J0D01*
G01*
X19086000Y-7519930D02*
G75*
G03*
X19086000Y-7519930I-38000J0D01*
G01*
X19086000Y-7773930D02*
G75*
G03*
X19086000Y-7773930I-38000J0D01*
G01*
X19086000Y-8027930D02*
G75*
G03*
X19086000Y-8027930I-38000J0D01*
G01*
X19086000Y-8281930D02*
G75*
G03*
X19086000Y-8281930I-38000J0D01*
G01*
X19086000Y-9216650D02*
G75*
G03*
X19086000Y-9216650I-38000J0D01*
G01*
X19086000Y-9470650D02*
G75*
G03*
X19086000Y-9470650I-38000J0D01*
G01*
X19086000Y-9724650D02*
G75*
G03*
X19086000Y-9724650I-38000J0D01*
G01*
X19086000Y-9978650D02*
G75*
G03*
X19086000Y-9978650I-38000J0D01*
G01*
X19097600Y-5843530D02*
G75*
G03*
X19097600Y-5843530I-38000J0D01*
G01*
X19097600Y-6097530D02*
G75*
G03*
X19097600Y-6097530I-38000J0D01*
G01*
X19097600Y-6351530D02*
G75*
G03*
X19097600Y-6351530I-38000J0D01*
G01*
X19097600Y-6605530D02*
G75*
G03*
X19097600Y-6605530I-38000J0D01*
G01*
D14*
X7835900Y-11771000D02*
X7835900Y-11851000D01*
X7795900Y-11811000D02*
X7875900Y-11811000D01*
X8089900Y-11771000D02*
X8089900Y-11851000D01*
X8049900Y-11811000D02*
X8129900Y-11811000D01*
X8343900Y-11771000D02*
X8343900Y-11851000D01*
X8303900Y-11811000D02*
X8383900Y-11811000D01*
X8597900Y-11771000D02*
X8597900Y-11851000D01*
X8557900Y-11811000D02*
X8637900Y-11811000D01*
X8851900Y-11771000D02*
X8851900Y-11851000D01*
X8811900Y-11811000D02*
X8891900Y-11811000D01*
X9105900Y-11771000D02*
X9105900Y-11851000D01*
X9065900Y-11811000D02*
X9145900Y-11811000D01*
X9359900Y-11771000D02*
X9359900Y-11851000D01*
X9319900Y-11811000D02*
X9399900Y-11811000D01*
X9613900Y-11771000D02*
X9613900Y-11851000D01*
X9573900Y-11811000D02*
X9653900Y-11811000D01*
X9978300Y-11771000D02*
X9978300Y-11851000D01*
X9938300Y-11811000D02*
X10018300Y-11811000D01*
X10232300Y-11771000D02*
X10232300Y-11851000D01*
X10192300Y-11811000D02*
X10272300Y-11811000D01*
X10486300Y-11771000D02*
X10486300Y-11851000D01*
X10446300Y-11811000D02*
X10526300Y-11811000D01*
X10740300Y-11771000D02*
X10740300Y-11851000D01*
X10700300Y-11811000D02*
X10780300Y-11811000D01*
X10994300Y-11771000D02*
X10994300Y-11851000D01*
X10954300Y-11811000D02*
X11034300Y-11811000D01*
X11248300Y-11771000D02*
X11248300Y-11851000D01*
X11208300Y-11811000D02*
X11288300Y-11811000D01*
X11502300Y-11771000D02*
X11502300Y-11851000D01*
X11462300Y-11811000D02*
X11542300Y-11811000D01*
X11756300Y-11771000D02*
X11756300Y-11851000D01*
X11716300Y-11811000D02*
X11796300Y-11811000D01*
X12120700Y-11771000D02*
X12120700Y-11851000D01*
X12080700Y-11811000D02*
X12160700Y-11811000D01*
X12374700Y-11771000D02*
X12374700Y-11851000D01*
X12334700Y-11811000D02*
X12414700Y-11811000D01*
X12628700Y-11771000D02*
X12628700Y-11851000D01*
X12588700Y-11811000D02*
X12668700Y-11811000D01*
X12882700Y-11771000D02*
X12882700Y-11851000D01*
X12842700Y-11811000D02*
X12922700Y-11811000D01*
X13136700Y-11771000D02*
X13136700Y-11851000D01*
X13096700Y-11811000D02*
X13176700Y-11811000D01*
X13390700Y-11771000D02*
X13390700Y-11851000D01*
X13350700Y-11811000D02*
X13430700Y-11811000D01*
X13644700Y-11771000D02*
X13644700Y-11851000D01*
X13604700Y-11811000D02*
X13684700Y-11811000D01*
X13898700Y-11771000D02*
X13898700Y-11851000D01*
X13858700Y-11811000D02*
X13938700Y-11811000D01*
X14263100Y-11771000D02*
X14263100Y-11851000D01*
X14223100Y-11811000D02*
X14303100Y-11811000D01*
X14517100Y-11771000D02*
X14517100Y-11851000D01*
X14477100Y-11811000D02*
X14557100Y-11811000D01*
X14771100Y-11771000D02*
X14771100Y-11851000D01*
X14731100Y-11811000D02*
X14811100Y-11811000D01*
X15025100Y-11771000D02*
X15025100Y-11851000D01*
X14985100Y-11811000D02*
X15065100Y-11811000D01*
X15279100Y-11771000D02*
X15279100Y-11851000D01*
X15239100Y-11811000D02*
X15319100Y-11811000D01*
X15533100Y-11771000D02*
X15533100Y-11851000D01*
X15493100Y-11811000D02*
X15573100Y-11811000D01*
X15787100Y-11771000D02*
X15787100Y-11851000D01*
X15747100Y-11811000D02*
X15827100Y-11811000D01*
X16041100Y-11771000D02*
X16041100Y-11851000D01*
X16001100Y-11811000D02*
X16081100Y-11811000D01*
D15*
X6877320Y-12325420D02*
X6877320Y-12261780D01*
X6813680Y-12261780D01*
X6813680Y-12325420D01*
X6877320Y-12325420D01*
X6877320Y-12575420D02*
X6877320Y-12511780D01*
X6813680Y-12511780D01*
X6813680Y-12575420D01*
X6877320Y-12575420D01*
X6877320Y-12825420D02*
X6877320Y-12761780D01*
X6813680Y-12761780D01*
X6813680Y-12825420D01*
X6877320Y-12825420D01*
X7207320Y-12325420D02*
X7207320Y-12261780D01*
X7143680Y-12261780D01*
X7143680Y-12325420D01*
X7207320Y-12325420D01*
X7207320Y-12575420D02*
X7207320Y-12511780D01*
X7143680Y-12511780D01*
X7143680Y-12575420D01*
X7207320Y-12575420D01*
X7207320Y-12825420D02*
X7207320Y-12761780D01*
X7143680Y-12761780D01*
X7143680Y-12825420D01*
X7207320Y-12825420D01*
X11121460Y-7184460D02*
X11121460Y-7120820D01*
X11057820Y-7120820D01*
X11057820Y-7184460D01*
X11121460Y-7184460D01*
X11121460Y-7438460D02*
X11121460Y-7374820D01*
X11057820Y-7374820D01*
X11057820Y-7438460D01*
X11121460Y-7438460D01*
X11121460Y-9724460D02*
X11121460Y-9660820D01*
X11057820Y-9660820D01*
X11057820Y-9724460D01*
X11121460Y-9724460D01*
X11121460Y-9978460D02*
X11121460Y-9914820D01*
X11057820Y-9914820D01*
X11057820Y-9978460D01*
X11121460Y-9978460D01*
X11375460Y-7184460D02*
X11375460Y-7120820D01*
X11311820Y-7120820D01*
X11311820Y-7184460D01*
X11375460Y-7184460D01*
X11375460Y-7438460D02*
X11375460Y-7374820D01*
X11311820Y-7374820D01*
X11311820Y-7438460D01*
X11375460Y-7438460D01*
X11375460Y-9724460D02*
X11375460Y-9660820D01*
X11311820Y-9660820D01*
X11311820Y-9724460D01*
X11375460Y-9724460D01*
X11375460Y-9978460D02*
X11375460Y-9914820D01*
X11311820Y-9914820D01*
X11311820Y-9978460D01*
X11375460Y-9978460D01*
X11416620Y-6010720D02*
X11416620Y-5947080D01*
X11352980Y-5947080D01*
X11352980Y-6010720D01*
X11416620Y-6010720D01*
X11629460Y-7184460D02*
X11629460Y-7120820D01*
X11565820Y-7120820D01*
X11565820Y-7184460D01*
X11629460Y-7184460D01*
X11629460Y-7438460D02*
X11629460Y-7374820D01*
X11565820Y-7374820D01*
X11565820Y-7438460D01*
X11629460Y-7438460D01*
X11629460Y-9724460D02*
X11629460Y-9660820D01*
X11565820Y-9660820D01*
X11565820Y-9724460D01*
X11629460Y-9724460D01*
X11629460Y-9978460D02*
X11629460Y-9914820D01*
X11565820Y-9914820D01*
X11565820Y-9978460D01*
X11629460Y-9978460D01*
X11666620Y-6010720D02*
X11666620Y-5947080D01*
X11602980Y-5947080D01*
X11602980Y-6010720D01*
X11666620Y-6010720D01*
X11866620Y-6010720D02*
X11866620Y-5947080D01*
X11802980Y-5947080D01*
X11802980Y-6010720D01*
X11866620Y-6010720D01*
X11883460Y-7184460D02*
X11883460Y-7120820D01*
X11819820Y-7120820D01*
X11819820Y-7184460D01*
X11883460Y-7184460D01*
X11883460Y-7438460D02*
X11883460Y-7374820D01*
X11819820Y-7374820D01*
X11819820Y-7438460D01*
X11883460Y-7438460D01*
X11883460Y-9724460D02*
X11883460Y-9660820D01*
X11819820Y-9660820D01*
X11819820Y-9724460D01*
X11883460Y-9724460D01*
X11883460Y-9978460D02*
X11883460Y-9914820D01*
X11819820Y-9914820D01*
X11819820Y-9978460D01*
X11883460Y-9978460D01*
X12116620Y-6010720D02*
X12116620Y-5947080D01*
X12052980Y-5947080D01*
X12052980Y-6010720D01*
X12116620Y-6010720D01*
X12137460Y-7184460D02*
X12137460Y-7120820D01*
X12073820Y-7120820D01*
X12073820Y-7184460D01*
X12137460Y-7184460D01*
X12137460Y-7438460D02*
X12137460Y-7374820D01*
X12073820Y-7374820D01*
X12073820Y-7438460D01*
X12137460Y-7438460D01*
X12137460Y-9724460D02*
X12137460Y-9660820D01*
X12073820Y-9660820D01*
X12073820Y-9724460D01*
X12137460Y-9724460D01*
X12137460Y-9978460D02*
X12137460Y-9914820D01*
X12073820Y-9914820D01*
X12073820Y-9978460D01*
X12137460Y-9978460D01*
X12391460Y-7184460D02*
X12391460Y-7120820D01*
X12327820Y-7120820D01*
X12327820Y-7184460D01*
X12391460Y-7184460D01*
X12391460Y-7438460D02*
X12391460Y-7374820D01*
X12327820Y-7374820D01*
X12327820Y-7438460D01*
X12391460Y-7438460D01*
X12391460Y-9724460D02*
X12391460Y-9660820D01*
X12327820Y-9660820D01*
X12327820Y-9724460D01*
X12391460Y-9724460D01*
X12391460Y-9978460D02*
X12391460Y-9914820D01*
X12327820Y-9914820D01*
X12327820Y-9978460D01*
X12391460Y-9978460D01*
X12645460Y-7184460D02*
X12645460Y-7120820D01*
X12581820Y-7120820D01*
X12581820Y-7184460D01*
X12645460Y-7184460D01*
X12645460Y-7438460D02*
X12645460Y-7374820D01*
X12581820Y-7374820D01*
X12581820Y-7438460D01*
X12645460Y-7438460D01*
X12645460Y-9724460D02*
X12645460Y-9660820D01*
X12581820Y-9660820D01*
X12581820Y-9724460D01*
X12645460Y-9724460D01*
X12645460Y-9978460D02*
X12645460Y-9914820D01*
X12581820Y-9914820D01*
X12581820Y-9978460D01*
X12645460Y-9978460D01*
X12899460Y-7184460D02*
X12899460Y-7120820D01*
X12835820Y-7120820D01*
X12835820Y-7184460D01*
X12899460Y-7184460D01*
X12899460Y-7438460D02*
X12899460Y-7374820D01*
X12835820Y-7374820D01*
X12835820Y-7438460D01*
X12899460Y-7438460D01*
X12899460Y-9724460D02*
X12899460Y-9660820D01*
X12835820Y-9660820D01*
X12835820Y-9724460D01*
X12899460Y-9724460D01*
X12899460Y-9978460D02*
X12899460Y-9914820D01*
X12835820Y-9914820D01*
X12835820Y-9978460D01*
X12899460Y-9978460D01*
X13153460Y-7184460D02*
X13153460Y-7120820D01*
X13089820Y-7120820D01*
X13089820Y-7184460D01*
X13153460Y-7184460D01*
X13153460Y-7438460D02*
X13153460Y-7374820D01*
X13089820Y-7374820D01*
X13089820Y-7438460D01*
X13153460Y-7438460D01*
X13153460Y-9724460D02*
X13153460Y-9660820D01*
X13089820Y-9660820D01*
X13089820Y-9724460D01*
X13153460Y-9724460D01*
X13153460Y-9978460D02*
X13153460Y-9914820D01*
X13089820Y-9914820D01*
X13089820Y-9978460D01*
X13153460Y-9978460D01*
X13407460Y-7184460D02*
X13407460Y-7120820D01*
X13343820Y-7120820D01*
X13343820Y-7184460D01*
X13407460Y-7184460D01*
X13407460Y-7438460D02*
X13407460Y-7374820D01*
X13343820Y-7374820D01*
X13343820Y-7438460D01*
X13407460Y-7438460D01*
X13407460Y-9724460D02*
X13407460Y-9660820D01*
X13343820Y-9660820D01*
X13343820Y-9724460D01*
X13407460Y-9724460D01*
X13407460Y-9978460D02*
X13407460Y-9914820D01*
X13343820Y-9914820D01*
X13343820Y-9978460D01*
X13407460Y-9978460D01*
X13661460Y-7184460D02*
X13661460Y-7120820D01*
X13597820Y-7120820D01*
X13597820Y-7184460D01*
X13661460Y-7184460D01*
X13661460Y-7438460D02*
X13661460Y-7374820D01*
X13597820Y-7374820D01*
X13597820Y-7438460D01*
X13661460Y-7438460D01*
X13661460Y-9724460D02*
X13661460Y-9660820D01*
X13597820Y-9660820D01*
X13597820Y-9724460D01*
X13661460Y-9724460D01*
X13661460Y-9978460D02*
X13661460Y-9914820D01*
X13597820Y-9914820D01*
X13597820Y-9978460D01*
X13661460Y-9978460D01*
X13915460Y-7184460D02*
X13915460Y-7120820D01*
X13851820Y-7120820D01*
X13851820Y-7184460D01*
X13915460Y-7184460D01*
X13915460Y-7438460D02*
X13915460Y-7374820D01*
X13851820Y-7374820D01*
X13851820Y-7438460D01*
X13915460Y-7438460D01*
X13915460Y-9724460D02*
X13915460Y-9660820D01*
X13851820Y-9660820D01*
X13851820Y-9724460D01*
X13915460Y-9724460D01*
X13915460Y-9978460D02*
X13915460Y-9914820D01*
X13851820Y-9914820D01*
X13851820Y-9978460D01*
X13915460Y-9978460D01*
X14169460Y-7184460D02*
X14169460Y-7120820D01*
X14105820Y-7120820D01*
X14105820Y-7184460D01*
X14169460Y-7184460D01*
X14169460Y-7438460D02*
X14169460Y-7374820D01*
X14105820Y-7374820D01*
X14105820Y-7438460D01*
X14169460Y-7438460D01*
X14169460Y-9724460D02*
X14169460Y-9660820D01*
X14105820Y-9660820D01*
X14105820Y-9724460D01*
X14169460Y-9724460D01*
X14169460Y-9978460D02*
X14169460Y-9914820D01*
X14105820Y-9914820D01*
X14105820Y-9978460D01*
X14169460Y-9978460D01*
X14423460Y-7184460D02*
X14423460Y-7120820D01*
X14359820Y-7120820D01*
X14359820Y-7184460D01*
X14423460Y-7184460D01*
X14423460Y-7438460D02*
X14423460Y-7374820D01*
X14359820Y-7374820D01*
X14359820Y-7438460D01*
X14423460Y-7438460D01*
X14423460Y-9724460D02*
X14423460Y-9660820D01*
X14359820Y-9660820D01*
X14359820Y-9724460D01*
X14423460Y-9724460D01*
X14423460Y-9978460D02*
X14423460Y-9914820D01*
X14359820Y-9914820D01*
X14359820Y-9978460D01*
X14423460Y-9978460D01*
X14677460Y-7184460D02*
X14677460Y-7120820D01*
X14613820Y-7120820D01*
X14613820Y-7184460D01*
X14677460Y-7184460D01*
X14677460Y-7438460D02*
X14677460Y-7374820D01*
X14613820Y-7374820D01*
X14613820Y-7438460D01*
X14677460Y-7438460D01*
X14677460Y-9724460D02*
X14677460Y-9660820D01*
X14613820Y-9660820D01*
X14613820Y-9724460D01*
X14677460Y-9724460D01*
X14677460Y-9978460D02*
X14677460Y-9914820D01*
X14613820Y-9914820D01*
X14613820Y-9978460D01*
X14677460Y-9978460D01*
X14931460Y-7184460D02*
X14931460Y-7120820D01*
X14867820Y-7120820D01*
X14867820Y-7184460D01*
X14931460Y-7184460D01*
X14931460Y-7438460D02*
X14931460Y-7374820D01*
X14867820Y-7374820D01*
X14867820Y-7438460D01*
X14931460Y-7438460D01*
X14931460Y-9724460D02*
X14931460Y-9660820D01*
X14867820Y-9660820D01*
X14867820Y-9724460D01*
X14931460Y-9724460D01*
X14931460Y-9978460D02*
X14931460Y-9914820D01*
X14867820Y-9914820D01*
X14867820Y-9978460D01*
X14931460Y-9978460D01*
X15185460Y-7184460D02*
X15185460Y-7120820D01*
X15121820Y-7120820D01*
X15121820Y-7184460D01*
X15185460Y-7184460D01*
X15185460Y-7438460D02*
X15185460Y-7374820D01*
X15121820Y-7374820D01*
X15121820Y-7438460D01*
X15185460Y-7438460D01*
X15185460Y-9724460D02*
X15185460Y-9660820D01*
X15121820Y-9660820D01*
X15121820Y-9724460D01*
X15185460Y-9724460D01*
X15185460Y-9978460D02*
X15185460Y-9914820D01*
X15121820Y-9914820D01*
X15121820Y-9978460D01*
X15185460Y-9978460D01*
X15439460Y-7184460D02*
X15439460Y-7120820D01*
X15375820Y-7120820D01*
X15375820Y-7184460D01*
X15439460Y-7184460D01*
X15439460Y-7438460D02*
X15439460Y-7374820D01*
X15375820Y-7374820D01*
X15375820Y-7438460D01*
X15439460Y-7438460D01*
X15439460Y-9724460D02*
X15439460Y-9660820D01*
X15375820Y-9660820D01*
X15375820Y-9724460D01*
X15439460Y-9724460D01*
X15439460Y-9978460D02*
X15439460Y-9914820D01*
X15375820Y-9914820D01*
X15375820Y-9978460D01*
X15439460Y-9978460D01*
D16*
X15345600Y-5684600D02*
X15393100Y-5637100D01*
X15345600Y-5589600D01*
X15298100Y-5637100D01*
X15345600Y-5684600D01*
X15595600Y-5684600D02*
X15643100Y-5637100D01*
X15595600Y-5589600D01*
X15548100Y-5637100D01*
X15595600Y-5684600D01*
X15845600Y-5684600D02*
X15893100Y-5637100D01*
X15845600Y-5589600D01*
X15798100Y-5637100D01*
X15845600Y-5684600D01*
X16095600Y-5684600D02*
X16143100Y-5637100D01*
X16095600Y-5589600D01*
X16048100Y-5637100D01*
X16095600Y-5684600D01*
D17*
X6858800Y-10668800D02*
X6958800Y-10768800D01*
X6958800Y-10668800D02*
X6858800Y-10768800D01*
X6958800Y-10718800D02*
G75*
G03*
X6958800Y-10718800I-50000J0D01*
G01*
X6858800Y-10922800D02*
X6958800Y-11022800D01*
X6958800Y-10922800D02*
X6858800Y-11022800D01*
X6958800Y-10972800D02*
G75*
G03*
X6958800Y-10972800I-50000J0D01*
G01*
X6858800Y-11176800D02*
X6958800Y-11276800D01*
X6958800Y-11176800D02*
X6858800Y-11276800D01*
X6958800Y-11226800D02*
G75*
G03*
X6958800Y-11226800I-50000J0D01*
G01*
X6858800Y-11430800D02*
X6958800Y-11530800D01*
X6958800Y-11430800D02*
X6858800Y-11530800D01*
X6958800Y-11480800D02*
G75*
G03*
X6958800Y-11480800I-50000J0D01*
G01*
X6858800Y-11684800D02*
X6958800Y-11784800D01*
X6958800Y-11684800D02*
X6858800Y-11784800D01*
X6958800Y-11734800D02*
G75*
G03*
X6958800Y-11734800I-50000J0D01*
G01*
X6858800Y-13259600D02*
X6958800Y-13359600D01*
X6958800Y-13259600D02*
X6858800Y-13359600D01*
X6958800Y-13309600D02*
G75*
G03*
X6958800Y-13309600I-50000J0D01*
G01*
X6858800Y-13513600D02*
X6958800Y-13613600D01*
X6958800Y-13513600D02*
X6858800Y-13613600D01*
X6958800Y-13563600D02*
G75*
G03*
X6958800Y-13563600I-50000J0D01*
G01*
X6858800Y-13767600D02*
X6958800Y-13867600D01*
X6958800Y-13767600D02*
X6858800Y-13867600D01*
X6958800Y-13817600D02*
G75*
G03*
X6958800Y-13817600I-50000J0D01*
G01*
X6858800Y-14021600D02*
X6958800Y-14121600D01*
X6958800Y-14021600D02*
X6858800Y-14121600D01*
X6958800Y-14071600D02*
G75*
G03*
X6958800Y-14071600I-50000J0D01*
G01*
X16764700Y-10974100D02*
X16864700Y-11074100D01*
X16864700Y-10974100D02*
X16764700Y-11074100D01*
X16864700Y-11024100D02*
G75*
G03*
X16864700Y-11024100I-50000J0D01*
G01*
X16764700Y-11228100D02*
X16864700Y-11328100D01*
X16864700Y-11228100D02*
X16764700Y-11328100D01*
X16864700Y-11278100D02*
G75*
G03*
X16864700Y-11278100I-50000J0D01*
G01*
X16764700Y-11482100D02*
X16864700Y-11582100D01*
X16864700Y-11482100D02*
X16764700Y-11582100D01*
X16864700Y-11532100D02*
G75*
G03*
X16864700Y-11532100I-50000J0D01*
G01*
X17445900Y-11049800D02*
X17545900Y-11149800D01*
X17545900Y-11049800D02*
X17445900Y-11149800D01*
X17545900Y-11099800D02*
G75*
G03*
X17545900Y-11099800I-50000J0D01*
G01*
X17945900Y-11049800D02*
X18045900Y-11149800D01*
X18045900Y-11049800D02*
X17945900Y-11149800D01*
X18045900Y-11099800D02*
G75*
G03*
X18045900Y-11099800I-50000J0D01*
G01*
X18593600Y-11278400D02*
X18693600Y-11378400D01*
X18693600Y-11278400D02*
X18593600Y-11378400D01*
X18693600Y-11328400D02*
G75*
G03*
X18693600Y-11328400I-50000J0D01*
G01*
X18847600Y-11278400D02*
X18947600Y-11378400D01*
X18947600Y-11278400D02*
X18847600Y-11378400D01*
X18947600Y-11328400D02*
G75*
G03*
X18947600Y-11328400I-50000J0D01*
G01*
X19101600Y-11278400D02*
X19201600Y-11378400D01*
X19201600Y-11278400D02*
X19101600Y-11378400D01*
X19201600Y-11328400D02*
G75*
G03*
X19201600Y-11328400I-50000J0D01*
G01*
D18*
X8380150Y-13821850D02*
X8500150Y-13941850D01*
X8500150Y-13821850D02*
X8380150Y-13941850D01*
X8440150Y-13821850D02*
X8440150Y-13941850D01*
X8380150Y-13881850D02*
X8500150Y-13881850D01*
X8384000Y-12551850D02*
X8504000Y-12671850D01*
X8504000Y-12551850D02*
X8384000Y-12671850D01*
X8444000Y-12551850D02*
X8444000Y-12671850D01*
X8384000Y-12611850D02*
X8504000Y-12611850D01*
X8730150Y-13821850D02*
X8850150Y-13941850D01*
X8850150Y-13821850D02*
X8730150Y-13941850D01*
X8790150Y-13821850D02*
X8790150Y-13941850D01*
X8730150Y-13881850D02*
X8850150Y-13881850D01*
X8734000Y-12551850D02*
X8854000Y-12671850D01*
X8854000Y-12551850D02*
X8734000Y-12671850D01*
X8794000Y-12551850D02*
X8794000Y-12671850D01*
X8734000Y-12611850D02*
X8854000Y-12611850D01*
X9080150Y-13821850D02*
X9200150Y-13941850D01*
X9200150Y-13821850D02*
X9080150Y-13941850D01*
X9140150Y-13821850D02*
X9140150Y-13941850D01*
X9080150Y-13881850D02*
X9200150Y-13881850D01*
X9084000Y-12551850D02*
X9204000Y-12671850D01*
X9204000Y-12551850D02*
X9084000Y-12671850D01*
X9144000Y-12551850D02*
X9144000Y-12671850D01*
X9084000Y-12611850D02*
X9204000Y-12611850D01*
X9830543Y-13821850D02*
X9950543Y-13941850D01*
X9950543Y-13821850D02*
X9830543Y-13941850D01*
X9890543Y-13821850D02*
X9890543Y-13941850D01*
X9830543Y-13881850D02*
X9950543Y-13881850D01*
X9833843Y-12538400D02*
X9953843Y-12658400D01*
X9953843Y-12538400D02*
X9833843Y-12658400D01*
X9893843Y-12538400D02*
X9893843Y-12658400D01*
X9833843Y-12598400D02*
X9953843Y-12598400D01*
X10180543Y-13821850D02*
X10300543Y-13941850D01*
X10300543Y-13821850D02*
X10180543Y-13941850D01*
X10240543Y-13821850D02*
X10240543Y-13941850D01*
X10180543Y-13881850D02*
X10300543Y-13881850D01*
X10183843Y-12538400D02*
X10303843Y-12658400D01*
X10303843Y-12538400D02*
X10183843Y-12658400D01*
X10243843Y-12538400D02*
X10243843Y-12658400D01*
X10183843Y-12598400D02*
X10303843Y-12598400D01*
X10530543Y-13821850D02*
X10650543Y-13941850D01*
X10650543Y-13821850D02*
X10530543Y-13941850D01*
X10590543Y-13821850D02*
X10590543Y-13941850D01*
X10530543Y-13881850D02*
X10650543Y-13881850D01*
X10533843Y-12538400D02*
X10653843Y-12658400D01*
X10653843Y-12538400D02*
X10533843Y-12658400D01*
X10593843Y-12538400D02*
X10593843Y-12658400D01*
X10533843Y-12598400D02*
X10653843Y-12598400D01*
X11280936Y-13821850D02*
X11400936Y-13941850D01*
X11400936Y-13821850D02*
X11280936Y-13941850D01*
X11340936Y-13821850D02*
X11340936Y-13941850D01*
X11280936Y-13881850D02*
X11400936Y-13881850D01*
X11283686Y-12538400D02*
X11403686Y-12658400D01*
X11403686Y-12538400D02*
X11283686Y-12658400D01*
X11343686Y-12538400D02*
X11343686Y-12658400D01*
X11283686Y-12598400D02*
X11403686Y-12598400D01*
X11630936Y-13821850D02*
X11750936Y-13941850D01*
X11750936Y-13821850D02*
X11630936Y-13941850D01*
X11690936Y-13821850D02*
X11690936Y-13941850D01*
X11630936Y-13881850D02*
X11750936Y-13881850D01*
X11633686Y-12538400D02*
X11753686Y-12658400D01*
X11753686Y-12538400D02*
X11633686Y-12658400D01*
X11693686Y-12538400D02*
X11693686Y-12658400D01*
X11633686Y-12598400D02*
X11753686Y-12598400D01*
X11980936Y-13821850D02*
X12100936Y-13941850D01*
X12100936Y-13821850D02*
X11980936Y-13941850D01*
X12040936Y-13821850D02*
X12040936Y-13941850D01*
X11980936Y-13881850D02*
X12100936Y-13881850D01*
X11983686Y-12538400D02*
X12103686Y-12658400D01*
X12103686Y-12538400D02*
X11983686Y-12658400D01*
X12043686Y-12538400D02*
X12043686Y-12658400D01*
X11983686Y-12598400D02*
X12103686Y-12598400D01*
X12731328Y-13821850D02*
X12851328Y-13941850D01*
X12851328Y-13821850D02*
X12731328Y-13941850D01*
X12791328Y-13821850D02*
X12791328Y-13941850D01*
X12731328Y-13881850D02*
X12851328Y-13881850D01*
X12733528Y-12538400D02*
X12853528Y-12658400D01*
X12853528Y-12538400D02*
X12733528Y-12658400D01*
X12793528Y-12538400D02*
X12793528Y-12658400D01*
X12733528Y-12598400D02*
X12853528Y-12598400D01*
X13081328Y-13821850D02*
X13201328Y-13941850D01*
X13201328Y-13821850D02*
X13081328Y-13941850D01*
X13141328Y-13821850D02*
X13141328Y-13941850D01*
X13081328Y-13881850D02*
X13201328Y-13881850D01*
X13083528Y-12538400D02*
X13203528Y-12658400D01*
X13203528Y-12538400D02*
X13083528Y-12658400D01*
X13143528Y-12538400D02*
X13143528Y-12658400D01*
X13083528Y-12598400D02*
X13203528Y-12598400D01*
X13431328Y-13821850D02*
X13551328Y-13941850D01*
X13551328Y-13821850D02*
X13431328Y-13941850D01*
X13491328Y-13821850D02*
X13491328Y-13941850D01*
X13431328Y-13881850D02*
X13551328Y-13881850D01*
X13433528Y-12538400D02*
X13553528Y-12658400D01*
X13553528Y-12538400D02*
X13433528Y-12658400D01*
X13493528Y-12538400D02*
X13493528Y-12658400D01*
X13433528Y-12598400D02*
X13553528Y-12598400D01*
X14181721Y-13808400D02*
X14301721Y-13928400D01*
X14301721Y-13808400D02*
X14181721Y-13928400D01*
X14241721Y-13808400D02*
X14241721Y-13928400D01*
X14181721Y-13868400D02*
X14301721Y-13868400D01*
X14183371Y-12538400D02*
X14303371Y-12658400D01*
X14303371Y-12538400D02*
X14183371Y-12658400D01*
X14243371Y-12538400D02*
X14243371Y-12658400D01*
X14183371Y-12598400D02*
X14303371Y-12598400D01*
X14531721Y-13808400D02*
X14651721Y-13928400D01*
X14651721Y-13808400D02*
X14531721Y-13928400D01*
X14591721Y-13808400D02*
X14591721Y-13928400D01*
X14531721Y-13868400D02*
X14651721Y-13868400D01*
X14533371Y-12538400D02*
X14653371Y-12658400D01*
X14653371Y-12538400D02*
X14533371Y-12658400D01*
X14593371Y-12538400D02*
X14593371Y-12658400D01*
X14533371Y-12598400D02*
X14653371Y-12598400D01*
X14881721Y-13808400D02*
X15001721Y-13928400D01*
X15001721Y-13808400D02*
X14881721Y-13928400D01*
X14941721Y-13808400D02*
X14941721Y-13928400D01*
X14881721Y-13868400D02*
X15001721Y-13868400D01*
X14883371Y-12538400D02*
X15003371Y-12658400D01*
X15003371Y-12538400D02*
X14883371Y-12658400D01*
X14943371Y-12538400D02*
X14943371Y-12658400D01*
X14883371Y-12598400D02*
X15003371Y-12598400D01*
X15632114Y-13808400D02*
X15752114Y-13928400D01*
X15752114Y-13808400D02*
X15632114Y-13928400D01*
X15692114Y-13808400D02*
X15692114Y-13928400D01*
X15632114Y-13868400D02*
X15752114Y-13868400D01*
X15633214Y-12538400D02*
X15753214Y-12658400D01*
X15753214Y-12538400D02*
X15633214Y-12658400D01*
X15693214Y-12538400D02*
X15693214Y-12658400D01*
X15633214Y-12598400D02*
X15753214Y-12598400D01*
X15982114Y-13808400D02*
X16102114Y-13928400D01*
X16102114Y-13808400D02*
X15982114Y-13928400D01*
X16042114Y-13808400D02*
X16042114Y-13928400D01*
X15982114Y-13868400D02*
X16102114Y-13868400D01*
X15983214Y-12538400D02*
X16103214Y-12658400D01*
X16103214Y-12538400D02*
X15983214Y-12658400D01*
X16043214Y-12538400D02*
X16043214Y-12658400D01*
X15983214Y-12598400D02*
X16103214Y-12598400D01*
X16332114Y-13808400D02*
X16452114Y-13928400D01*
X16452114Y-13808400D02*
X16332114Y-13928400D01*
X16392114Y-13808400D02*
X16392114Y-13928400D01*
X16332114Y-13868400D02*
X16452114Y-13868400D01*
X16333214Y-12538400D02*
X16453214Y-12658400D01*
X16453214Y-12538400D02*
X16333214Y-12658400D01*
X16393214Y-12538400D02*
X16393214Y-12658400D01*
X16333214Y-12598400D02*
X16453214Y-12598400D01*
X17082507Y-13808400D02*
X17202507Y-13928400D01*
X17202507Y-13808400D02*
X17082507Y-13928400D01*
X17142507Y-13808400D02*
X17142507Y-13928400D01*
X17082507Y-13868400D02*
X17202507Y-13868400D01*
X17083057Y-12538400D02*
X17203057Y-12658400D01*
X17203057Y-12538400D02*
X17083057Y-12658400D01*
X17143057Y-12538400D02*
X17143057Y-12658400D01*
X17083057Y-12598400D02*
X17203057Y-12598400D01*
X17432507Y-13808400D02*
X17552507Y-13928400D01*
X17552507Y-13808400D02*
X17432507Y-13928400D01*
X17492507Y-13808400D02*
X17492507Y-13928400D01*
X17432507Y-13868400D02*
X17552507Y-13868400D01*
X17433057Y-12538400D02*
X17553057Y-12658400D01*
X17553057Y-12538400D02*
X17433057Y-12658400D01*
X17493057Y-12538400D02*
X17493057Y-12658400D01*
X17433057Y-12598400D02*
X17553057Y-12598400D01*
X17782507Y-13808400D02*
X17902507Y-13928400D01*
X17902507Y-13808400D02*
X17782507Y-13928400D01*
X17842507Y-13808400D02*
X17842507Y-13928400D01*
X17782507Y-13868400D02*
X17902507Y-13868400D01*
X17783057Y-12538400D02*
X17903057Y-12658400D01*
X17903057Y-12538400D02*
X17783057Y-12658400D01*
X17843057Y-12538400D02*
X17843057Y-12658400D01*
X17783057Y-12598400D02*
X17903057Y-12598400D01*
X18532900Y-12538400D02*
X18652900Y-12658400D01*
X18652900Y-12538400D02*
X18532900Y-12658400D01*
X18592900Y-12538400D02*
X18592900Y-12658400D01*
X18532900Y-12598400D02*
X18652900Y-12598400D01*
X18532900Y-13808400D02*
X18652900Y-13928400D01*
X18652900Y-13808400D02*
X18532900Y-13928400D01*
X18592900Y-13808400D02*
X18592900Y-13928400D01*
X18532900Y-13868400D02*
X18652900Y-13868400D01*
X18882900Y-12538400D02*
X19002900Y-12658400D01*
X19002900Y-12538400D02*
X18882900Y-12658400D01*
X18942900Y-12538400D02*
X18942900Y-12658400D01*
X18882900Y-12598400D02*
X19002900Y-12598400D01*
X18882900Y-13808400D02*
X19002900Y-13928400D01*
X19002900Y-13808400D02*
X18882900Y-13928400D01*
X18942900Y-13808400D02*
X18942900Y-13928400D01*
X18882900Y-13868400D02*
X19002900Y-13868400D01*
X19232900Y-12538400D02*
X19352900Y-12658400D01*
X19352900Y-12538400D02*
X19232900Y-12658400D01*
X19292900Y-12538400D02*
X19292900Y-12658400D01*
X19232900Y-12598400D02*
X19352900Y-12598400D01*
X19232900Y-13808400D02*
X19352900Y-13928400D01*
X19352900Y-13808400D02*
X19232900Y-13928400D01*
X19292900Y-13808400D02*
X19292900Y-13928400D01*
X19232900Y-13868400D02*
X19352900Y-13868400D01*
D19*
X11012800Y-5853900D02*
X11142800Y-5983900D01*
X11142800Y-5853900D02*
X11012800Y-5983900D01*
X11123762Y-5964862D02*
X11123762Y-5872938D01*
X11031838Y-5872938D01*
X11031838Y-5964862D01*
X11123762Y-5964862D01*
D11*
X11132800Y-5968900D02*
X11132800Y-5868900D01*
X11022800Y-5968900D02*
X11022800Y-5868900D01*
X11132800Y-5868900D02*
G75*
G03*
X11022800Y-5868900I-55000J0D01*
G01*
X11022800Y-5968900D02*
G75*
G03*
X11132800Y-5968900I55000J0D01*
G01*
D19*
X11669800Y-5435900D02*
X11799800Y-5565900D01*
X11799800Y-5435900D02*
X11669800Y-5565900D01*
X11780762Y-5546862D02*
X11780762Y-5454938D01*
X11688838Y-5454938D01*
X11688838Y-5546862D01*
X11780762Y-5546862D01*
D11*
X11684800Y-5555900D02*
X11784800Y-5555900D01*
X11684800Y-5445900D02*
X11784800Y-5445900D01*
X11784800Y-5555900D02*
G75*
G03*
X11784800Y-5445900I0J55000D01*
G01*
X11684800Y-5445900D02*
G75*
G03*
X11684800Y-5555900I0J-55000D01*
G01*
D19*
X12326800Y-5853900D02*
X12456800Y-5983900D01*
X12456800Y-5853900D02*
X12326800Y-5983900D01*
X12437762Y-5964862D02*
X12437762Y-5872938D01*
X12345838Y-5872938D01*
X12345838Y-5964862D01*
X12437762Y-5964862D01*
D11*
X12336800Y-5868900D02*
X12336800Y-5968900D01*
X12446800Y-5868900D02*
X12446800Y-5968900D01*
X12336800Y-5968900D02*
G75*
G03*
X12446800Y-5968900I55000J0D01*
G01*
X12446800Y-5868900D02*
G75*
G03*
X12336800Y-5868900I-55000J0D01*
G01*
D20*
X9112300Y-14641179D02*
X9277300Y-14806179D01*
X9277300Y-14641179D02*
X9112300Y-14806179D01*
X9194800Y-14806179D02*
X9277300Y-14723679D01*
X9194800Y-14641179D01*
X9112300Y-14723679D01*
X9194800Y-14806179D01*
X9112300Y-15011179D02*
X9277300Y-15176179D01*
X9277300Y-15011179D02*
X9112300Y-15176179D01*
X9194800Y-15176179D02*
X9277300Y-15093679D01*
X9194800Y-15011179D01*
X9112300Y-15093679D01*
X9194800Y-15176179D01*
X9112300Y-15461179D02*
X9277300Y-15626179D01*
X9277300Y-15461179D02*
X9112300Y-15626179D01*
X9194800Y-15626179D02*
X9277300Y-15543679D01*
X9194800Y-15461179D01*
X9112300Y-15543679D01*
X9194800Y-15626179D01*
X9112300Y-15831179D02*
X9277300Y-15996179D01*
X9277300Y-15831179D02*
X9112300Y-15996179D01*
X9194800Y-15996179D02*
X9277300Y-15913679D01*
X9194800Y-15831179D01*
X9112300Y-15913679D01*
X9194800Y-15996179D01*
X9711740Y-14641179D02*
X9876740Y-14806179D01*
X9876740Y-14641179D02*
X9711740Y-14806179D01*
X9794240Y-14806179D02*
X9876740Y-14723679D01*
X9794240Y-14641179D01*
X9711740Y-14723679D01*
X9794240Y-14806179D01*
X9711740Y-15011179D02*
X9876740Y-15176179D01*
X9876740Y-15011179D02*
X9711740Y-15176179D01*
X9794240Y-15176179D02*
X9876740Y-15093679D01*
X9794240Y-15011179D01*
X9711740Y-15093679D01*
X9794240Y-15176179D01*
X9711740Y-15461179D02*
X9876740Y-15626179D01*
X9876740Y-15461179D02*
X9711740Y-15626179D01*
X9794240Y-15626179D02*
X9876740Y-15543679D01*
X9794240Y-15461179D01*
X9711740Y-15543679D01*
X9794240Y-15626179D01*
X9711740Y-15831179D02*
X9876740Y-15996179D01*
X9876740Y-15831179D02*
X9711740Y-15996179D01*
X9794240Y-15996179D02*
X9876740Y-15913679D01*
X9794240Y-15831179D01*
X9711740Y-15913679D01*
X9794240Y-15996179D01*
X10311180Y-14641179D02*
X10476180Y-14806179D01*
X10476180Y-14641179D02*
X10311180Y-14806179D01*
X10393680Y-14806179D02*
X10476180Y-14723679D01*
X10393680Y-14641179D01*
X10311180Y-14723679D01*
X10393680Y-14806179D01*
X10311180Y-15011179D02*
X10476180Y-15176179D01*
X10476180Y-15011179D02*
X10311180Y-15176179D01*
X10393680Y-15176179D02*
X10476180Y-15093679D01*
X10393680Y-15011179D01*
X10311180Y-15093679D01*
X10393680Y-15176179D01*
X10311180Y-15461179D02*
X10476180Y-15626179D01*
X10476180Y-15461179D02*
X10311180Y-15626179D01*
X10393680Y-15626179D02*
X10476180Y-15543679D01*
X10393680Y-15461179D01*
X10311180Y-15543679D01*
X10393680Y-15626179D01*
X10311180Y-15831179D02*
X10476180Y-15996179D01*
X10476180Y-15831179D02*
X10311180Y-15996179D01*
X10393680Y-15996179D02*
X10476180Y-15913679D01*
X10393680Y-15831179D01*
X10311180Y-15913679D01*
X10393680Y-15996179D01*
X10910620Y-14641179D02*
X11075620Y-14806179D01*
X11075620Y-14641179D02*
X10910620Y-14806179D01*
X10993120Y-14806179D02*
X11075620Y-14723679D01*
X10993120Y-14641179D01*
X10910620Y-14723679D01*
X10993120Y-14806179D01*
X10910620Y-15011179D02*
X11075620Y-15176179D01*
X11075620Y-15011179D02*
X10910620Y-15176179D01*
X10993120Y-15176179D02*
X11075620Y-15093679D01*
X10993120Y-15011179D01*
X10910620Y-15093679D01*
X10993120Y-15176179D01*
X10910620Y-15461179D02*
X11075620Y-15626179D01*
X11075620Y-15461179D02*
X10910620Y-15626179D01*
X10993120Y-15626179D02*
X11075620Y-15543679D01*
X10993120Y-15461179D01*
X10910620Y-15543679D01*
X10993120Y-15626179D01*
X10910620Y-15831179D02*
X11075620Y-15996179D01*
X11075620Y-15831179D02*
X10910620Y-15996179D01*
X10993120Y-15996179D02*
X11075620Y-15913679D01*
X10993120Y-15831179D01*
X10910620Y-15913679D01*
X10993120Y-15996179D01*
X11510060Y-14642300D02*
X11675060Y-14807300D01*
X11675060Y-14642300D02*
X11510060Y-14807300D01*
X11592560Y-14807300D02*
X11675060Y-14724800D01*
X11592560Y-14642300D01*
X11510060Y-14724800D01*
X11592560Y-14807300D01*
X11510060Y-15012300D02*
X11675060Y-15177300D01*
X11675060Y-15012300D02*
X11510060Y-15177300D01*
X11592560Y-15177300D02*
X11675060Y-15094800D01*
X11592560Y-15012300D01*
X11510060Y-15094800D01*
X11592560Y-15177300D01*
X11510060Y-15462300D02*
X11675060Y-15627300D01*
X11675060Y-15462300D02*
X11510060Y-15627300D01*
X11592560Y-15627300D02*
X11675060Y-15544800D01*
X11592560Y-15462300D01*
X11510060Y-15544800D01*
X11592560Y-15627300D01*
X11510060Y-15832300D02*
X11675060Y-15997300D01*
X11675060Y-15832300D02*
X11510060Y-15997300D01*
X11592560Y-15997300D02*
X11675060Y-15914800D01*
X11592560Y-15832300D01*
X11510060Y-15914800D01*
X11592560Y-15997300D01*
X12109500Y-14641179D02*
X12274500Y-14806179D01*
X12274500Y-14641179D02*
X12109500Y-14806179D01*
X12192000Y-14806179D02*
X12274500Y-14723679D01*
X12192000Y-14641179D01*
X12109500Y-14723679D01*
X12192000Y-14806179D01*
X12109500Y-15011179D02*
X12274500Y-15176179D01*
X12274500Y-15011179D02*
X12109500Y-15176179D01*
X12192000Y-15176179D02*
X12274500Y-15093679D01*
X12192000Y-15011179D01*
X12109500Y-15093679D01*
X12192000Y-15176179D01*
X12109500Y-15461179D02*
X12274500Y-15626179D01*
X12274500Y-15461179D02*
X12109500Y-15626179D01*
X12192000Y-15626179D02*
X12274500Y-15543679D01*
X12192000Y-15461179D01*
X12109500Y-15543679D01*
X12192000Y-15626179D01*
X12109500Y-15831179D02*
X12274500Y-15996179D01*
X12274500Y-15831179D02*
X12109500Y-15996179D01*
X12192000Y-15996179D02*
X12274500Y-15913679D01*
X12192000Y-15831179D01*
X12109500Y-15913679D01*
X12192000Y-15996179D01*
X12708940Y-14641179D02*
X12873940Y-14806179D01*
X12873940Y-14641179D02*
X12708940Y-14806179D01*
X12791440Y-14806179D02*
X12873940Y-14723679D01*
X12791440Y-14641179D01*
X12708940Y-14723679D01*
X12791440Y-14806179D01*
X12708940Y-15011179D02*
X12873940Y-15176179D01*
X12873940Y-15011179D02*
X12708940Y-15176179D01*
X12791440Y-15176179D02*
X12873940Y-15093679D01*
X12791440Y-15011179D01*
X12708940Y-15093679D01*
X12791440Y-15176179D01*
X12708940Y-15461179D02*
X12873940Y-15626179D01*
X12873940Y-15461179D02*
X12708940Y-15626179D01*
X12791440Y-15626179D02*
X12873940Y-15543679D01*
X12791440Y-15461179D01*
X12708940Y-15543679D01*
X12791440Y-15626179D01*
X12708940Y-15831179D02*
X12873940Y-15996179D01*
X12873940Y-15831179D02*
X12708940Y-15996179D01*
X12791440Y-15996179D02*
X12873940Y-15913679D01*
X12791440Y-15831179D01*
X12708940Y-15913679D01*
X12791440Y-15996179D01*
X13308380Y-14641179D02*
X13473380Y-14806179D01*
X13473380Y-14641179D02*
X13308380Y-14806179D01*
X13390880Y-14806179D02*
X13473380Y-14723679D01*
X13390880Y-14641179D01*
X13308380Y-14723679D01*
X13390880Y-14806179D01*
X13308380Y-15011179D02*
X13473380Y-15176179D01*
X13473380Y-15011179D02*
X13308380Y-15176179D01*
X13390880Y-15176179D02*
X13473380Y-15093679D01*
X13390880Y-15011179D01*
X13308380Y-15093679D01*
X13390880Y-15176179D01*
X13308380Y-15461179D02*
X13473380Y-15626179D01*
X13473380Y-15461179D02*
X13308380Y-15626179D01*
X13390880Y-15626179D02*
X13473380Y-15543679D01*
X13390880Y-15461179D01*
X13308380Y-15543679D01*
X13390880Y-15626179D01*
X13308380Y-15831179D02*
X13473380Y-15996179D01*
X13473380Y-15831179D02*
X13308380Y-15996179D01*
X13390880Y-15996179D02*
X13473380Y-15913679D01*
X13390880Y-15831179D01*
X13308380Y-15913679D01*
X13390880Y-15996179D01*
X13907820Y-14641179D02*
X14072820Y-14806179D01*
X14072820Y-14641179D02*
X13907820Y-14806179D01*
X13990320Y-14806179D02*
X14072820Y-14723679D01*
X13990320Y-14641179D01*
X13907820Y-14723679D01*
X13990320Y-14806179D01*
X13907820Y-15011179D02*
X14072820Y-15176179D01*
X14072820Y-15011179D02*
X13907820Y-15176179D01*
X13990320Y-15176179D02*
X14072820Y-15093679D01*
X13990320Y-15011179D01*
X13907820Y-15093679D01*
X13990320Y-15176179D01*
X13907820Y-15461179D02*
X14072820Y-15626179D01*
X14072820Y-15461179D02*
X13907820Y-15626179D01*
X13990320Y-15626179D02*
X14072820Y-15543679D01*
X13990320Y-15461179D01*
X13907820Y-15543679D01*
X13990320Y-15626179D01*
X13907820Y-15831179D02*
X14072820Y-15996179D01*
X14072820Y-15831179D02*
X13907820Y-15996179D01*
X13990320Y-15996179D02*
X14072820Y-15913679D01*
X13990320Y-15831179D01*
X13907820Y-15913679D01*
X13990320Y-15996179D01*
X14507260Y-14641179D02*
X14672260Y-14806179D01*
X14672260Y-14641179D02*
X14507260Y-14806179D01*
X14589760Y-14806179D02*
X14672260Y-14723679D01*
X14589760Y-14641179D01*
X14507260Y-14723679D01*
X14589760Y-14806179D01*
X14507260Y-15011179D02*
X14672260Y-15176179D01*
X14672260Y-15011179D02*
X14507260Y-15176179D01*
X14589760Y-15176179D02*
X14672260Y-15093679D01*
X14589760Y-15011179D01*
X14507260Y-15093679D01*
X14589760Y-15176179D01*
X14507260Y-15461179D02*
X14672260Y-15626179D01*
X14672260Y-15461179D02*
X14507260Y-15626179D01*
X14589760Y-15626179D02*
X14672260Y-15543679D01*
X14589760Y-15461179D01*
X14507260Y-15543679D01*
X14589760Y-15626179D01*
X14507260Y-15831179D02*
X14672260Y-15996179D01*
X14672260Y-15831179D02*
X14507260Y-15996179D01*
X14589760Y-15996179D02*
X14672260Y-15913679D01*
X14589760Y-15831179D01*
X14507260Y-15913679D01*
X14589760Y-15996179D01*
X15106700Y-14641179D02*
X15271700Y-14806179D01*
X15271700Y-14641179D02*
X15106700Y-14806179D01*
X15189200Y-14806179D02*
X15271700Y-14723679D01*
X15189200Y-14641179D01*
X15106700Y-14723679D01*
X15189200Y-14806179D01*
X15106700Y-15011179D02*
X15271700Y-15176179D01*
X15271700Y-15011179D02*
X15106700Y-15176179D01*
X15189200Y-15176179D02*
X15271700Y-15093679D01*
X15189200Y-15011179D01*
X15106700Y-15093679D01*
X15189200Y-15176179D01*
X15106700Y-15461179D02*
X15271700Y-15626179D01*
X15271700Y-15461179D02*
X15106700Y-15626179D01*
X15189200Y-15626179D02*
X15271700Y-15543679D01*
X15189200Y-15461179D01*
X15106700Y-15543679D01*
X15189200Y-15626179D01*
X15106700Y-15831179D02*
X15271700Y-15996179D01*
X15271700Y-15831179D02*
X15106700Y-15996179D01*
X15189200Y-15996179D02*
X15271700Y-15913679D01*
X15189200Y-15831179D01*
X15106700Y-15913679D01*
X15189200Y-15996179D01*
X15706140Y-14641179D02*
X15871140Y-14806179D01*
X15871140Y-14641179D02*
X15706140Y-14806179D01*
X15788640Y-14806179D02*
X15871140Y-14723679D01*
X15788640Y-14641179D01*
X15706140Y-14723679D01*
X15788640Y-14806179D01*
X15706140Y-15011179D02*
X15871140Y-15176179D01*
X15871140Y-15011179D02*
X15706140Y-15176179D01*
X15788640Y-15176179D02*
X15871140Y-15093679D01*
X15788640Y-15011179D01*
X15706140Y-15093679D01*
X15788640Y-15176179D01*
X15706140Y-15461179D02*
X15871140Y-15626179D01*
X15871140Y-15461179D02*
X15706140Y-15626179D01*
X15788640Y-15626179D02*
X15871140Y-15543679D01*
X15788640Y-15461179D01*
X15706140Y-15543679D01*
X15788640Y-15626179D01*
X15706140Y-15831179D02*
X15871140Y-15996179D01*
X15871140Y-15831179D02*
X15706140Y-15996179D01*
X15788640Y-15996179D02*
X15871140Y-15913679D01*
X15788640Y-15831179D01*
X15706140Y-15913679D01*
X15788640Y-15996179D01*
X16305580Y-14641179D02*
X16470580Y-14806179D01*
X16470580Y-14641179D02*
X16305580Y-14806179D01*
X16388080Y-14806179D02*
X16470580Y-14723679D01*
X16388080Y-14641179D01*
X16305580Y-14723679D01*
X16388080Y-14806179D01*
X16305580Y-15011179D02*
X16470580Y-15176179D01*
X16470580Y-15011179D02*
X16305580Y-15176179D01*
X16388080Y-15176179D02*
X16470580Y-15093679D01*
X16388080Y-15011179D01*
X16305580Y-15093679D01*
X16388080Y-15176179D01*
X16305580Y-15461179D02*
X16470580Y-15626179D01*
X16470580Y-15461179D02*
X16305580Y-15626179D01*
X16388080Y-15626179D02*
X16470580Y-15543679D01*
X16388080Y-15461179D01*
X16305580Y-15543679D01*
X16388080Y-15626179D01*
X16305580Y-15831179D02*
X16470580Y-15996179D01*
X16470580Y-15831179D02*
X16305580Y-15996179D01*
X16388080Y-15996179D02*
X16470580Y-15913679D01*
X16388080Y-15831179D01*
X16305580Y-15913679D01*
X16388080Y-15996179D01*
X16905020Y-14641179D02*
X17070020Y-14806179D01*
X17070020Y-14641179D02*
X16905020Y-14806179D01*
X16987520Y-14806179D02*
X17070020Y-14723679D01*
X16987520Y-14641179D01*
X16905020Y-14723679D01*
X16987520Y-14806179D01*
X16905020Y-15011179D02*
X17070020Y-15176179D01*
X17070020Y-15011179D02*
X16905020Y-15176179D01*
X16987520Y-15176179D02*
X17070020Y-15093679D01*
X16987520Y-15011179D01*
X16905020Y-15093679D01*
X16987520Y-15176179D01*
X16905020Y-15461179D02*
X17070020Y-15626179D01*
X17070020Y-15461179D02*
X16905020Y-15626179D01*
X16987520Y-15626179D02*
X17070020Y-15543679D01*
X16987520Y-15461179D01*
X16905020Y-15543679D01*
X16987520Y-15626179D01*
X16905020Y-15831179D02*
X17070020Y-15996179D01*
X17070020Y-15831179D02*
X16905020Y-15996179D01*
X16987520Y-15996179D02*
X17070020Y-15913679D01*
X16987520Y-15831179D01*
X16905020Y-15913679D01*
X16987520Y-15996179D01*
X17504460Y-14641179D02*
X17669460Y-14806179D01*
X17669460Y-14641179D02*
X17504460Y-14806179D01*
X17586960Y-14806179D02*
X17669460Y-14723679D01*
X17586960Y-14641179D01*
X17504460Y-14723679D01*
X17586960Y-14806179D01*
X17504460Y-15011179D02*
X17669460Y-15176179D01*
X17669460Y-15011179D02*
X17504460Y-15176179D01*
X17586960Y-15176179D02*
X17669460Y-15093679D01*
X17586960Y-15011179D01*
X17504460Y-15093679D01*
X17586960Y-15176179D01*
X17504460Y-15461179D02*
X17669460Y-15626179D01*
X17669460Y-15461179D02*
X17504460Y-15626179D01*
X17586960Y-15626179D02*
X17669460Y-15543679D01*
X17586960Y-15461179D01*
X17504460Y-15543679D01*
X17586960Y-15626179D01*
X17504460Y-15831179D02*
X17669460Y-15996179D01*
X17669460Y-15831179D02*
X17504460Y-15996179D01*
X17586960Y-15996179D02*
X17669460Y-15913679D01*
X17586960Y-15831179D01*
X17504460Y-15913679D01*
X17586960Y-15996179D01*
X18103900Y-14641179D02*
X18268900Y-14806179D01*
X18268900Y-14641179D02*
X18103900Y-14806179D01*
X18186400Y-14806179D02*
X18268900Y-14723679D01*
X18186400Y-14641179D01*
X18103900Y-14723679D01*
X18186400Y-14806179D01*
X18103900Y-15011179D02*
X18268900Y-15176179D01*
X18268900Y-15011179D02*
X18103900Y-15176179D01*
X18186400Y-15176179D02*
X18268900Y-15093679D01*
X18186400Y-15011179D01*
X18103900Y-15093679D01*
X18186400Y-15176179D01*
X18103900Y-15461179D02*
X18268900Y-15626179D01*
X18268900Y-15461179D02*
X18103900Y-15626179D01*
X18186400Y-15626179D02*
X18268900Y-15543679D01*
X18186400Y-15461179D01*
X18103900Y-15543679D01*
X18186400Y-15626179D01*
X18103900Y-15831179D02*
X18268900Y-15996179D01*
X18268900Y-15831179D02*
X18103900Y-15996179D01*
X18186400Y-15996179D02*
X18268900Y-15913679D01*
X18186400Y-15831179D01*
X18103900Y-15913679D01*
X18186400Y-15996179D01*
X20237500Y-12784500D02*
X20402500Y-12949500D01*
X20402500Y-12784500D02*
X20237500Y-12949500D01*
X20320000Y-12949500D02*
X20402500Y-12867000D01*
X20320000Y-12784500D01*
X20237500Y-12867000D01*
X20320000Y-12949500D01*
X20237500Y-13154500D02*
X20402500Y-13319500D01*
X20402500Y-13154500D02*
X20237500Y-13319500D01*
X20320000Y-13319500D02*
X20402500Y-13237000D01*
X20320000Y-13154500D01*
X20237500Y-13237000D01*
X20320000Y-13319500D01*
X20237500Y-13604500D02*
X20402500Y-13769500D01*
X20402500Y-13604500D02*
X20237500Y-13769500D01*
X20320000Y-13769500D02*
X20402500Y-13687000D01*
X20320000Y-13604500D01*
X20237500Y-13687000D01*
X20320000Y-13769500D01*
X20237500Y-13974500D02*
X20402500Y-14139500D01*
X20402500Y-13974500D02*
X20237500Y-14139500D01*
X20320000Y-14139500D02*
X20402500Y-14057000D01*
X20320000Y-13974500D01*
X20237500Y-14057000D01*
X20320000Y-14139500D01*
D21*
X7326400Y-15191300D02*
X7326400Y-15361300D01*
X7241400Y-15276300D02*
X7411400Y-15276300D01*
X7411400Y-15276300D02*
G75*
G03*
X7411400Y-15276300I-85000J0D01*
G01*
X8276400Y-15191300D02*
X8276400Y-15361300D01*
X8191400Y-15276300D02*
X8361400Y-15276300D01*
X8361400Y-15276300D02*
G75*
G03*
X8361400Y-15276300I-85000J0D01*
G01*
X19230900Y-15169500D02*
X19230900Y-15339500D01*
X19145900Y-15254500D02*
X19315900Y-15254500D01*
X19315900Y-15254500D02*
G75*
G03*
X19315900Y-15254500I-85000J0D01*
G01*
X20180900Y-15169500D02*
X20180900Y-15339500D01*
X20095900Y-15254500D02*
X20265900Y-15254500D01*
X20265900Y-15254500D02*
G75*
G03*
X20265900Y-15254500I-85000J0D01*
G01*
D11*
X6653419Y-16533376D02*
X6653419Y-16333376D01*
X6701038Y-16333376D01*
X6729609Y-16342900D01*
X6748657Y-16361948D01*
X6758181Y-16380995D01*
X6767705Y-16419090D01*
X6767705Y-16447662D01*
X6758181Y-16485757D01*
X6748657Y-16504805D01*
X6729609Y-16523852D01*
X6701038Y-16533376D01*
X6653419Y-16533376D01*
X6853419Y-16533376D02*
X6853419Y-16400043D01*
X6853419Y-16438138D02*
X6862943Y-16419090D01*
X6872467Y-16409567D01*
X6891514Y-16400043D01*
X6910562Y-16400043D01*
X6977228Y-16533376D02*
X6977228Y-16400043D01*
X6977228Y-16333376D02*
X6967705Y-16342900D01*
X6977228Y-16352424D01*
X6986752Y-16342900D01*
X6977228Y-16333376D01*
X6977228Y-16352424D01*
X7101038Y-16533376D02*
X7081990Y-16523852D01*
X7072467Y-16504805D01*
X7072467Y-16333376D01*
X7205800Y-16533376D02*
X7186752Y-16523852D01*
X7177228Y-16504805D01*
X7177228Y-16333376D01*
X7434371Y-16533376D02*
X7434371Y-16333376D01*
X7501038Y-16476233D01*
X7567705Y-16333376D01*
X7567705Y-16533376D01*
X7748657Y-16533376D02*
X7748657Y-16428614D01*
X7739133Y-16409567D01*
X7720086Y-16400043D01*
X7681990Y-16400043D01*
X7662943Y-16409567D01*
X7748657Y-16523852D02*
X7729609Y-16533376D01*
X7681990Y-16533376D01*
X7662943Y-16523852D01*
X7653419Y-16504805D01*
X7653419Y-16485757D01*
X7662943Y-16466709D01*
X7681990Y-16457186D01*
X7729609Y-16457186D01*
X7748657Y-16447662D01*
X7843895Y-16400043D02*
X7843895Y-16600043D01*
X7843895Y-16409567D02*
X7862943Y-16400043D01*
X7901038Y-16400043D01*
X7920086Y-16409567D01*
X7929609Y-16419090D01*
X7939133Y-16438138D01*
X7939133Y-16495281D01*
X7929609Y-16514328D01*
X7920086Y-16523852D01*
X7901038Y-16533376D01*
X7862943Y-16533376D01*
X7843895Y-16523852D01*
X8024848Y-16514328D02*
X8034371Y-16523852D01*
X8024848Y-16533376D01*
X8015324Y-16523852D01*
X8024848Y-16514328D01*
X8024848Y-16533376D01*
X8024848Y-16409567D02*
X8034371Y-16419090D01*
X8024848Y-16428614D01*
X8015324Y-16419090D01*
X8024848Y-16409567D01*
X8024848Y-16428614D01*
D12*
X6355800Y-16842900D02*
X6395800Y-16882900D01*
X6395800Y-16842900D02*
X6355800Y-16882900D01*
D11*
X6691514Y-16753376D02*
X6710562Y-16753376D01*
X6729609Y-16762900D01*
X6739133Y-16772424D01*
X6748657Y-16791471D01*
X6758181Y-16829567D01*
X6758181Y-16877186D01*
X6748657Y-16915281D01*
X6739133Y-16934329D01*
X6729609Y-16943852D01*
X6710562Y-16953376D01*
X6691514Y-16953376D01*
X6672467Y-16943852D01*
X6662943Y-16934329D01*
X6653419Y-16915281D01*
X6643895Y-16877186D01*
X6643895Y-16829567D01*
X6653419Y-16791471D01*
X6662943Y-16772424D01*
X6672467Y-16762900D01*
X6691514Y-16753376D01*
X6843895Y-16934329D02*
X6853419Y-16943852D01*
X6843895Y-16953376D01*
X6834371Y-16943852D01*
X6843895Y-16934329D01*
X6843895Y-16953376D01*
X7024848Y-16820043D02*
X7024848Y-16953376D01*
X6977228Y-16743852D02*
X6929609Y-16886710D01*
X7053419Y-16886710D01*
X7167705Y-16753376D02*
X7186752Y-16753376D01*
X7205800Y-16762900D01*
X7215324Y-16772424D01*
X7224848Y-16791471D01*
X7234371Y-16829567D01*
X7234371Y-16877186D01*
X7224848Y-16915281D01*
X7215324Y-16934329D01*
X7205800Y-16943852D01*
X7186752Y-16953376D01*
X7167705Y-16953376D01*
X7148657Y-16943852D01*
X7139133Y-16934329D01*
X7129609Y-16915281D01*
X7120086Y-16877186D01*
X7120086Y-16829567D01*
X7129609Y-16791471D01*
X7139133Y-16772424D01*
X7148657Y-16762900D01*
X7167705Y-16753376D01*
X7358181Y-16753376D02*
X7377228Y-16753376D01*
X7396276Y-16762900D01*
X7405800Y-16772424D01*
X7415324Y-16791471D01*
X7424848Y-16829567D01*
X7424848Y-16877186D01*
X7415324Y-16915281D01*
X7405800Y-16934329D01*
X7396276Y-16943852D01*
X7377228Y-16953376D01*
X7358181Y-16953376D01*
X7339133Y-16943852D01*
X7329609Y-16934329D01*
X7320086Y-16915281D01*
X7310562Y-16877186D01*
X7310562Y-16829567D01*
X7320086Y-16791471D01*
X7329609Y-16772424D01*
X7339133Y-16762900D01*
X7358181Y-16753376D01*
X7510562Y-16953376D02*
X7510562Y-16820043D01*
X7510562Y-16839090D02*
X7520086Y-16829567D01*
X7539133Y-16820043D01*
X7567705Y-16820043D01*
X7586752Y-16829567D01*
X7596276Y-16848614D01*
X7596276Y-16953376D01*
X7596276Y-16848614D02*
X7605800Y-16829567D01*
X7624848Y-16820043D01*
X7653419Y-16820043D01*
X7672467Y-16829567D01*
X7681990Y-16848614D01*
X7681990Y-16953376D01*
X7777228Y-16953376D02*
X7777228Y-16820043D01*
X7777228Y-16839090D02*
X7786752Y-16829567D01*
X7805800Y-16820043D01*
X7834371Y-16820043D01*
X7853419Y-16829567D01*
X7862943Y-16848614D01*
X7862943Y-16953376D01*
X7862943Y-16848614D02*
X7872467Y-16829567D01*
X7891514Y-16820043D01*
X7920086Y-16820043D01*
X7939133Y-16829567D01*
X7948657Y-16848614D01*
X7948657Y-16953376D01*
X8339133Y-16743852D02*
X8167705Y-17000995D01*
X8596276Y-16753376D02*
X8615324Y-16753376D01*
X8634371Y-16762900D01*
X8643895Y-16772424D01*
X8653419Y-16791471D01*
X8662943Y-16829567D01*
X8662943Y-16877186D01*
X8653419Y-16915281D01*
X8643895Y-16934329D01*
X8634371Y-16943852D01*
X8615324Y-16953376D01*
X8596276Y-16953376D01*
X8577229Y-16943852D01*
X8567705Y-16934329D01*
X8558181Y-16915281D01*
X8548657Y-16877186D01*
X8548657Y-16829567D01*
X8558181Y-16791471D01*
X8567705Y-16772424D01*
X8577229Y-16762900D01*
X8596276Y-16753376D01*
X8748657Y-16934329D02*
X8758181Y-16943852D01*
X8748657Y-16953376D01*
X8739133Y-16943852D01*
X8748657Y-16934329D01*
X8748657Y-16953376D01*
X8881990Y-16753376D02*
X8901038Y-16753376D01*
X8920086Y-16762900D01*
X8929610Y-16772424D01*
X8939133Y-16791471D01*
X8948657Y-16829567D01*
X8948657Y-16877186D01*
X8939133Y-16915281D01*
X8929610Y-16934329D01*
X8920086Y-16943852D01*
X8901038Y-16953376D01*
X8881990Y-16953376D01*
X8862943Y-16943852D01*
X8853419Y-16934329D01*
X8843895Y-16915281D01*
X8834371Y-16877186D01*
X8834371Y-16829567D01*
X8843895Y-16791471D01*
X8853419Y-16772424D01*
X8862943Y-16762900D01*
X8881990Y-16753376D01*
X9139133Y-16953376D02*
X9024848Y-16953376D01*
X9081990Y-16953376D02*
X9081990Y-16753376D01*
X9062943Y-16781948D01*
X9043895Y-16800995D01*
X9024848Y-16810519D01*
X9320086Y-16753376D02*
X9224848Y-16753376D01*
X9215324Y-16848614D01*
X9224848Y-16839090D01*
X9243895Y-16829567D01*
X9291514Y-16829567D01*
X9310562Y-16839090D01*
X9320086Y-16848614D01*
X9329610Y-16867662D01*
X9329610Y-16915281D01*
X9320086Y-16934329D01*
X9310562Y-16943852D01*
X9291514Y-16953376D01*
X9243895Y-16953376D01*
X9224848Y-16943852D01*
X9215324Y-16934329D01*
X9396276Y-16753376D02*
X9529610Y-16753376D01*
X9443895Y-16953376D01*
X9596276Y-16753376D02*
X9596276Y-16791471D01*
X9672467Y-16753376D02*
X9672467Y-16791471D01*
X9967705Y-17029567D02*
X9958181Y-17020043D01*
X9939133Y-16991471D01*
X9929610Y-16972424D01*
X9920086Y-16943852D01*
X9910562Y-16896233D01*
X9910562Y-16858138D01*
X9920086Y-16810519D01*
X9929610Y-16781948D01*
X9939133Y-16762900D01*
X9958181Y-16734328D01*
X9967705Y-16724805D01*
X10034371Y-16772424D02*
X10043895Y-16762900D01*
X10062943Y-16753376D01*
X10110562Y-16753376D01*
X10129610Y-16762900D01*
X10139133Y-16772424D01*
X10148657Y-16791471D01*
X10148657Y-16810519D01*
X10139133Y-16839090D01*
X10024848Y-16953376D01*
X10148657Y-16953376D01*
X10320086Y-16820043D02*
X10320086Y-16953376D01*
X10272467Y-16743852D02*
X10224848Y-16886710D01*
X10348657Y-16886710D01*
X10453419Y-16839090D02*
X10434371Y-16829567D01*
X10424848Y-16820043D01*
X10415324Y-16800995D01*
X10415324Y-16791471D01*
X10424848Y-16772424D01*
X10434371Y-16762900D01*
X10453419Y-16753376D01*
X10491514Y-16753376D01*
X10510562Y-16762900D01*
X10520086Y-16772424D01*
X10529610Y-16791471D01*
X10529610Y-16800995D01*
X10520086Y-16820043D01*
X10510562Y-16829567D01*
X10491514Y-16839090D01*
X10453419Y-16839090D01*
X10434371Y-16848614D01*
X10424848Y-16858138D01*
X10415324Y-16877186D01*
X10415324Y-16915281D01*
X10424848Y-16934329D01*
X10434371Y-16943852D01*
X10453419Y-16953376D01*
X10491514Y-16953376D01*
X10510562Y-16943852D01*
X10520086Y-16934329D01*
X10529610Y-16915281D01*
X10529610Y-16877186D01*
X10520086Y-16858138D01*
X10510562Y-16848614D01*
X10491514Y-16839090D01*
X10767705Y-16953376D02*
X10767705Y-16753376D01*
X10853419Y-16953376D02*
X10853419Y-16848614D01*
X10843895Y-16829567D01*
X10824848Y-16820043D01*
X10796276Y-16820043D01*
X10777229Y-16829567D01*
X10767705Y-16839090D01*
X10977229Y-16953376D02*
X10958181Y-16943852D01*
X10948657Y-16934329D01*
X10939133Y-16915281D01*
X10939133Y-16858138D01*
X10948657Y-16839090D01*
X10958181Y-16829567D01*
X10977229Y-16820043D01*
X11005800Y-16820043D01*
X11024848Y-16829567D01*
X11034371Y-16839090D01*
X11043895Y-16858138D01*
X11043895Y-16915281D01*
X11034371Y-16934329D01*
X11024848Y-16943852D01*
X11005800Y-16953376D01*
X10977229Y-16953376D01*
X11158181Y-16953376D02*
X11139133Y-16943852D01*
X11129610Y-16924805D01*
X11129610Y-16753376D01*
X11310562Y-16943852D02*
X11291514Y-16953376D01*
X11253419Y-16953376D01*
X11234371Y-16943852D01*
X11224848Y-16924805D01*
X11224848Y-16848614D01*
X11234371Y-16829567D01*
X11253419Y-16820043D01*
X11291514Y-16820043D01*
X11310562Y-16829567D01*
X11320086Y-16848614D01*
X11320086Y-16867662D01*
X11224848Y-16886710D01*
X11396276Y-16943852D02*
X11415324Y-16953376D01*
X11453419Y-16953376D01*
X11472467Y-16943852D01*
X11481990Y-16924805D01*
X11481990Y-16915281D01*
X11472467Y-16896233D01*
X11453419Y-16886710D01*
X11424848Y-16886710D01*
X11405800Y-16877186D01*
X11396276Y-16858138D01*
X11396276Y-16848614D01*
X11405800Y-16829567D01*
X11424848Y-16820043D01*
X11453419Y-16820043D01*
X11472467Y-16829567D01*
X11548657Y-17029567D02*
X11558181Y-17020043D01*
X11577228Y-16991471D01*
X11586752Y-16972424D01*
X11596276Y-16943852D01*
X11605800Y-16896233D01*
X11605800Y-16858138D01*
X11596276Y-16810519D01*
X11586752Y-16781948D01*
X11577228Y-16762900D01*
X11558181Y-16734328D01*
X11548657Y-16724805D01*
D13*
X6395800Y-17126900D02*
G75*
G03*
X6395800Y-17126900I-38000J0D01*
G01*
D11*
X6691514Y-17017376D02*
X6710562Y-17017376D01*
X6729609Y-17026900D01*
X6739133Y-17036424D01*
X6748657Y-17055471D01*
X6758181Y-17093567D01*
X6758181Y-17141186D01*
X6748657Y-17179281D01*
X6739133Y-17198329D01*
X6729609Y-17207852D01*
X6710562Y-17217376D01*
X6691514Y-17217376D01*
X6672467Y-17207852D01*
X6662943Y-17198329D01*
X6653419Y-17179281D01*
X6643895Y-17141186D01*
X6643895Y-17093567D01*
X6653419Y-17055471D01*
X6662943Y-17036424D01*
X6672467Y-17026900D01*
X6691514Y-17017376D01*
X6843895Y-17198329D02*
X6853419Y-17207852D01*
X6843895Y-17217376D01*
X6834371Y-17207852D01*
X6843895Y-17198329D01*
X6843895Y-17217376D01*
X6920086Y-17017376D02*
X7053419Y-17017376D01*
X6967705Y-17217376D01*
X7215324Y-17017376D02*
X7177228Y-17017376D01*
X7158181Y-17026900D01*
X7148657Y-17036424D01*
X7129609Y-17064995D01*
X7120086Y-17103090D01*
X7120086Y-17179281D01*
X7129609Y-17198329D01*
X7139133Y-17207852D01*
X7158181Y-17217376D01*
X7196276Y-17217376D01*
X7215324Y-17207852D01*
X7224848Y-17198329D01*
X7234371Y-17179281D01*
X7234371Y-17131662D01*
X7224848Y-17112614D01*
X7215324Y-17103090D01*
X7196276Y-17093567D01*
X7158181Y-17093567D01*
X7139133Y-17103090D01*
X7129609Y-17112614D01*
X7120086Y-17131662D01*
X7358181Y-17017376D02*
X7377228Y-17017376D01*
X7396276Y-17026900D01*
X7405800Y-17036424D01*
X7415324Y-17055471D01*
X7424848Y-17093567D01*
X7424848Y-17141186D01*
X7415324Y-17179281D01*
X7405800Y-17198329D01*
X7396276Y-17207852D01*
X7377228Y-17217376D01*
X7358181Y-17217376D01*
X7339133Y-17207852D01*
X7329609Y-17198329D01*
X7320086Y-17179281D01*
X7310562Y-17141186D01*
X7310562Y-17093567D01*
X7320086Y-17055471D01*
X7329609Y-17036424D01*
X7339133Y-17026900D01*
X7358181Y-17017376D01*
X7510562Y-17217376D02*
X7510562Y-17084043D01*
X7510562Y-17103090D02*
X7520086Y-17093567D01*
X7539133Y-17084043D01*
X7567705Y-17084043D01*
X7586752Y-17093567D01*
X7596276Y-17112614D01*
X7596276Y-17217376D01*
X7596276Y-17112614D02*
X7605800Y-17093567D01*
X7624848Y-17084043D01*
X7653419Y-17084043D01*
X7672467Y-17093567D01*
X7681990Y-17112614D01*
X7681990Y-17217376D01*
X7777228Y-17217376D02*
X7777228Y-17084043D01*
X7777228Y-17103090D02*
X7786752Y-17093567D01*
X7805800Y-17084043D01*
X7834371Y-17084043D01*
X7853419Y-17093567D01*
X7862943Y-17112614D01*
X7862943Y-17217376D01*
X7862943Y-17112614D02*
X7872467Y-17093567D01*
X7891514Y-17084043D01*
X7920086Y-17084043D01*
X7939133Y-17093567D01*
X7948657Y-17112614D01*
X7948657Y-17217376D01*
X8339133Y-17007852D02*
X8167705Y-17264995D01*
X8596276Y-17017376D02*
X8615324Y-17017376D01*
X8634371Y-17026900D01*
X8643895Y-17036424D01*
X8653419Y-17055471D01*
X8662943Y-17093567D01*
X8662943Y-17141186D01*
X8653419Y-17179281D01*
X8643895Y-17198329D01*
X8634371Y-17207852D01*
X8615324Y-17217376D01*
X8596276Y-17217376D01*
X8577229Y-17207852D01*
X8567705Y-17198329D01*
X8558181Y-17179281D01*
X8548657Y-17141186D01*
X8548657Y-17093567D01*
X8558181Y-17055471D01*
X8567705Y-17036424D01*
X8577229Y-17026900D01*
X8596276Y-17017376D01*
X8748657Y-17198329D02*
X8758181Y-17207852D01*
X8748657Y-17217376D01*
X8739133Y-17207852D01*
X8748657Y-17198329D01*
X8748657Y-17217376D01*
X8881990Y-17017376D02*
X8901038Y-17017376D01*
X8920086Y-17026900D01*
X8929610Y-17036424D01*
X8939133Y-17055471D01*
X8948657Y-17093567D01*
X8948657Y-17141186D01*
X8939133Y-17179281D01*
X8929610Y-17198329D01*
X8920086Y-17207852D01*
X8901038Y-17217376D01*
X8881990Y-17217376D01*
X8862943Y-17207852D01*
X8853419Y-17198329D01*
X8843895Y-17179281D01*
X8834371Y-17141186D01*
X8834371Y-17093567D01*
X8843895Y-17055471D01*
X8853419Y-17036424D01*
X8862943Y-17026900D01*
X8881990Y-17017376D01*
X9024848Y-17036424D02*
X9034371Y-17026900D01*
X9053419Y-17017376D01*
X9101038Y-17017376D01*
X9120086Y-17026900D01*
X9129610Y-17036424D01*
X9139133Y-17055471D01*
X9139133Y-17074519D01*
X9129610Y-17103090D01*
X9015324Y-17217376D01*
X9139133Y-17217376D01*
X9234371Y-17217376D02*
X9272467Y-17217376D01*
X9291514Y-17207852D01*
X9301038Y-17198329D01*
X9320086Y-17169757D01*
X9329610Y-17131662D01*
X9329610Y-17055471D01*
X9320086Y-17036424D01*
X9310562Y-17026900D01*
X9291514Y-17017376D01*
X9253419Y-17017376D01*
X9234371Y-17026900D01*
X9224848Y-17036424D01*
X9215324Y-17055471D01*
X9215324Y-17103090D01*
X9224848Y-17122138D01*
X9234371Y-17131662D01*
X9253419Y-17141186D01*
X9291514Y-17141186D01*
X9310562Y-17131662D01*
X9320086Y-17122138D01*
X9329610Y-17103090D01*
X9424848Y-17217376D02*
X9462943Y-17217376D01*
X9481990Y-17207852D01*
X9491514Y-17198329D01*
X9510562Y-17169757D01*
X9520086Y-17131662D01*
X9520086Y-17055471D01*
X9510562Y-17036424D01*
X9501038Y-17026900D01*
X9481990Y-17017376D01*
X9443895Y-17017376D01*
X9424848Y-17026900D01*
X9415324Y-17036424D01*
X9405800Y-17055471D01*
X9405800Y-17103090D01*
X9415324Y-17122138D01*
X9424848Y-17131662D01*
X9443895Y-17141186D01*
X9481990Y-17141186D01*
X9501038Y-17131662D01*
X9510562Y-17122138D01*
X9520086Y-17103090D01*
X9596276Y-17017376D02*
X9596276Y-17055471D01*
X9672467Y-17017376D02*
X9672467Y-17055471D01*
X9967705Y-17293567D02*
X9958181Y-17284043D01*
X9939133Y-17255471D01*
X9929610Y-17236424D01*
X9920086Y-17207852D01*
X9910562Y-17160233D01*
X9910562Y-17122138D01*
X9920086Y-17074519D01*
X9929610Y-17045948D01*
X9939133Y-17026900D01*
X9958181Y-16998329D01*
X9967705Y-16988805D01*
X10129610Y-17084043D02*
X10129610Y-17217376D01*
X10081990Y-17007852D02*
X10034371Y-17150710D01*
X10158181Y-17150710D01*
X10262943Y-17103090D02*
X10243895Y-17093567D01*
X10234371Y-17084043D01*
X10224848Y-17064995D01*
X10224848Y-17055471D01*
X10234371Y-17036424D01*
X10243895Y-17026900D01*
X10262943Y-17017376D01*
X10301038Y-17017376D01*
X10320086Y-17026900D01*
X10329610Y-17036424D01*
X10339133Y-17055471D01*
X10339133Y-17064995D01*
X10329610Y-17084043D01*
X10320086Y-17093567D01*
X10301038Y-17103090D01*
X10262943Y-17103090D01*
X10243895Y-17112614D01*
X10234371Y-17122138D01*
X10224848Y-17141186D01*
X10224848Y-17179281D01*
X10234371Y-17198329D01*
X10243895Y-17207852D01*
X10262943Y-17217376D01*
X10301038Y-17217376D01*
X10320086Y-17207852D01*
X10329610Y-17198329D01*
X10339133Y-17179281D01*
X10339133Y-17141186D01*
X10329610Y-17122138D01*
X10320086Y-17112614D01*
X10301038Y-17103090D01*
X10577229Y-17217376D02*
X10577229Y-17017376D01*
X10662943Y-17217376D02*
X10662943Y-17112614D01*
X10653419Y-17093567D01*
X10634371Y-17084043D01*
X10605800Y-17084043D01*
X10586752Y-17093567D01*
X10577229Y-17103090D01*
X10786752Y-17217376D02*
X10767705Y-17207852D01*
X10758181Y-17198329D01*
X10748657Y-17179281D01*
X10748657Y-17122138D01*
X10758181Y-17103090D01*
X10767705Y-17093567D01*
X10786752Y-17084043D01*
X10815324Y-17084043D01*
X10834371Y-17093567D01*
X10843895Y-17103090D01*
X10853419Y-17122138D01*
X10853419Y-17179281D01*
X10843895Y-17198329D01*
X10834371Y-17207852D01*
X10815324Y-17217376D01*
X10786752Y-17217376D01*
X10967705Y-17217376D02*
X10948657Y-17207852D01*
X10939133Y-17188805D01*
X10939133Y-17017376D01*
X11120086Y-17207852D02*
X11101038Y-17217376D01*
X11062943Y-17217376D01*
X11043895Y-17207852D01*
X11034371Y-17188805D01*
X11034371Y-17112614D01*
X11043895Y-17093567D01*
X11062943Y-17084043D01*
X11101038Y-17084043D01*
X11120086Y-17093567D01*
X11129610Y-17112614D01*
X11129610Y-17131662D01*
X11034371Y-17150710D01*
X11205800Y-17207852D02*
X11224848Y-17217376D01*
X11262943Y-17217376D01*
X11281990Y-17207852D01*
X11291514Y-17188805D01*
X11291514Y-17179281D01*
X11281990Y-17160233D01*
X11262943Y-17150710D01*
X11234371Y-17150710D01*
X11215324Y-17141186D01*
X11205800Y-17122138D01*
X11205800Y-17112614D01*
X11215324Y-17093567D01*
X11234371Y-17084043D01*
X11262943Y-17084043D01*
X11281990Y-17093567D01*
X11358181Y-17293567D02*
X11367705Y-17284043D01*
X11386752Y-17255471D01*
X11396276Y-17236424D01*
X11405800Y-17207852D01*
X11415324Y-17160233D01*
X11415324Y-17122138D01*
X11405800Y-17074519D01*
X11396276Y-17045948D01*
X11386752Y-17026900D01*
X11367705Y-16998329D01*
X11358181Y-16988805D01*
D14*
X6355800Y-17350900D02*
X6355800Y-17430900D01*
X6315800Y-17390900D02*
X6395800Y-17390900D01*
D11*
X6691514Y-17281376D02*
X6710562Y-17281376D01*
X6729609Y-17290900D01*
X6739133Y-17300424D01*
X6748657Y-17319471D01*
X6758181Y-17357567D01*
X6758181Y-17405186D01*
X6748657Y-17443281D01*
X6739133Y-17462329D01*
X6729609Y-17471852D01*
X6710562Y-17481376D01*
X6691514Y-17481376D01*
X6672467Y-17471852D01*
X6662943Y-17462329D01*
X6653419Y-17443281D01*
X6643895Y-17405186D01*
X6643895Y-17357567D01*
X6653419Y-17319471D01*
X6662943Y-17300424D01*
X6672467Y-17290900D01*
X6691514Y-17281376D01*
X6843895Y-17462329D02*
X6853419Y-17471852D01*
X6843895Y-17481376D01*
X6834371Y-17471852D01*
X6843895Y-17462329D01*
X6843895Y-17481376D01*
X6967705Y-17367090D02*
X6948657Y-17357567D01*
X6939133Y-17348043D01*
X6929609Y-17328995D01*
X6929609Y-17319471D01*
X6939133Y-17300424D01*
X6948657Y-17290900D01*
X6967705Y-17281376D01*
X7005800Y-17281376D01*
X7024848Y-17290900D01*
X7034371Y-17300424D01*
X7043895Y-17319471D01*
X7043895Y-17328995D01*
X7034371Y-17348043D01*
X7024848Y-17357567D01*
X7005800Y-17367090D01*
X6967705Y-17367090D01*
X6948657Y-17376614D01*
X6939133Y-17386138D01*
X6929609Y-17405186D01*
X6929609Y-17443281D01*
X6939133Y-17462329D01*
X6948657Y-17471852D01*
X6967705Y-17481376D01*
X7005800Y-17481376D01*
X7024848Y-17471852D01*
X7034371Y-17462329D01*
X7043895Y-17443281D01*
X7043895Y-17405186D01*
X7034371Y-17386138D01*
X7024848Y-17376614D01*
X7005800Y-17367090D01*
X7167705Y-17281376D02*
X7186752Y-17281376D01*
X7205800Y-17290900D01*
X7215324Y-17300424D01*
X7224848Y-17319471D01*
X7234371Y-17357567D01*
X7234371Y-17405186D01*
X7224848Y-17443281D01*
X7215324Y-17462329D01*
X7205800Y-17471852D01*
X7186752Y-17481376D01*
X7167705Y-17481376D01*
X7148657Y-17471852D01*
X7139133Y-17462329D01*
X7129609Y-17443281D01*
X7120086Y-17405186D01*
X7120086Y-17357567D01*
X7129609Y-17319471D01*
X7139133Y-17300424D01*
X7148657Y-17290900D01*
X7167705Y-17281376D01*
X7358181Y-17281376D02*
X7377228Y-17281376D01*
X7396276Y-17290900D01*
X7405800Y-17300424D01*
X7415324Y-17319471D01*
X7424848Y-17357567D01*
X7424848Y-17405186D01*
X7415324Y-17443281D01*
X7405800Y-17462329D01*
X7396276Y-17471852D01*
X7377228Y-17481376D01*
X7358181Y-17481376D01*
X7339133Y-17471852D01*
X7329609Y-17462329D01*
X7320086Y-17443281D01*
X7310562Y-17405186D01*
X7310562Y-17357567D01*
X7320086Y-17319471D01*
X7329609Y-17300424D01*
X7339133Y-17290900D01*
X7358181Y-17281376D01*
X7510562Y-17481376D02*
X7510562Y-17348043D01*
X7510562Y-17367090D02*
X7520086Y-17357567D01*
X7539133Y-17348043D01*
X7567705Y-17348043D01*
X7586752Y-17357567D01*
X7596276Y-17376614D01*
X7596276Y-17481376D01*
X7596276Y-17376614D02*
X7605800Y-17357567D01*
X7624848Y-17348043D01*
X7653419Y-17348043D01*
X7672467Y-17357567D01*
X7681990Y-17376614D01*
X7681990Y-17481376D01*
X7777228Y-17481376D02*
X7777228Y-17348043D01*
X7777228Y-17367090D02*
X7786752Y-17357567D01*
X7805800Y-17348043D01*
X7834371Y-17348043D01*
X7853419Y-17357567D01*
X7862943Y-17376614D01*
X7862943Y-17481376D01*
X7862943Y-17376614D02*
X7872467Y-17357567D01*
X7891514Y-17348043D01*
X7920086Y-17348043D01*
X7939133Y-17357567D01*
X7948657Y-17376614D01*
X7948657Y-17481376D01*
X8339133Y-17271852D02*
X8167705Y-17528995D01*
X8596276Y-17281376D02*
X8615324Y-17281376D01*
X8634371Y-17290900D01*
X8643895Y-17300424D01*
X8653419Y-17319471D01*
X8662943Y-17357567D01*
X8662943Y-17405186D01*
X8653419Y-17443281D01*
X8643895Y-17462329D01*
X8634371Y-17471852D01*
X8615324Y-17481376D01*
X8596276Y-17481376D01*
X8577229Y-17471852D01*
X8567705Y-17462329D01*
X8558181Y-17443281D01*
X8548657Y-17405186D01*
X8548657Y-17357567D01*
X8558181Y-17319471D01*
X8567705Y-17300424D01*
X8577229Y-17290900D01*
X8596276Y-17281376D01*
X8748657Y-17462329D02*
X8758181Y-17471852D01*
X8748657Y-17481376D01*
X8739133Y-17471852D01*
X8748657Y-17462329D01*
X8748657Y-17481376D01*
X8881990Y-17281376D02*
X8901038Y-17281376D01*
X8920086Y-17290900D01*
X8929610Y-17300424D01*
X8939133Y-17319471D01*
X8948657Y-17357567D01*
X8948657Y-17405186D01*
X8939133Y-17443281D01*
X8929610Y-17462329D01*
X8920086Y-17471852D01*
X8901038Y-17481376D01*
X8881990Y-17481376D01*
X8862943Y-17471852D01*
X8853419Y-17462329D01*
X8843895Y-17443281D01*
X8834371Y-17405186D01*
X8834371Y-17357567D01*
X8843895Y-17319471D01*
X8853419Y-17300424D01*
X8862943Y-17290900D01*
X8881990Y-17281376D01*
X9015324Y-17281376D02*
X9139133Y-17281376D01*
X9072467Y-17357567D01*
X9101038Y-17357567D01*
X9120086Y-17367090D01*
X9129610Y-17376614D01*
X9139133Y-17395662D01*
X9139133Y-17443281D01*
X9129610Y-17462329D01*
X9120086Y-17471852D01*
X9101038Y-17481376D01*
X9043895Y-17481376D01*
X9024848Y-17471852D01*
X9015324Y-17462329D01*
X9329610Y-17481376D02*
X9215324Y-17481376D01*
X9272467Y-17481376D02*
X9272467Y-17281376D01*
X9253419Y-17309948D01*
X9234371Y-17328995D01*
X9215324Y-17338519D01*
X9510562Y-17281376D02*
X9415324Y-17281376D01*
X9405800Y-17376614D01*
X9415324Y-17367090D01*
X9434371Y-17357567D01*
X9481990Y-17357567D01*
X9501038Y-17367090D01*
X9510562Y-17376614D01*
X9520086Y-17395662D01*
X9520086Y-17443281D01*
X9510562Y-17462329D01*
X9501038Y-17471852D01*
X9481990Y-17481376D01*
X9434371Y-17481376D01*
X9415324Y-17471852D01*
X9405800Y-17462329D01*
X9596276Y-17281376D02*
X9596276Y-17319471D01*
X9672467Y-17281376D02*
X9672467Y-17319471D01*
X9967705Y-17557567D02*
X9958181Y-17548043D01*
X9939133Y-17519471D01*
X9929610Y-17500424D01*
X9920086Y-17471852D01*
X9910562Y-17424233D01*
X9910562Y-17386138D01*
X9920086Y-17338519D01*
X9929610Y-17309948D01*
X9939133Y-17290900D01*
X9958181Y-17262329D01*
X9967705Y-17252805D01*
X10024848Y-17281376D02*
X10148657Y-17281376D01*
X10081990Y-17357567D01*
X10110562Y-17357567D01*
X10129610Y-17367090D01*
X10139133Y-17376614D01*
X10148657Y-17395662D01*
X10148657Y-17443281D01*
X10139133Y-17462329D01*
X10129610Y-17471852D01*
X10110562Y-17481376D01*
X10053419Y-17481376D01*
X10034371Y-17471852D01*
X10024848Y-17462329D01*
X10224848Y-17300424D02*
X10234371Y-17290900D01*
X10253419Y-17281376D01*
X10301038Y-17281376D01*
X10320086Y-17290900D01*
X10329610Y-17300424D01*
X10339133Y-17319471D01*
X10339133Y-17338519D01*
X10329610Y-17367090D01*
X10215324Y-17481376D01*
X10339133Y-17481376D01*
X10577229Y-17481376D02*
X10577229Y-17281376D01*
X10662943Y-17481376D02*
X10662943Y-17376614D01*
X10653419Y-17357567D01*
X10634371Y-17348043D01*
X10605800Y-17348043D01*
X10586752Y-17357567D01*
X10577229Y-17367090D01*
X10786752Y-17481376D02*
X10767705Y-17471852D01*
X10758181Y-17462329D01*
X10748657Y-17443281D01*
X10748657Y-17386138D01*
X10758181Y-17367090D01*
X10767705Y-17357567D01*
X10786752Y-17348043D01*
X10815324Y-17348043D01*
X10834371Y-17357567D01*
X10843895Y-17367090D01*
X10853419Y-17386138D01*
X10853419Y-17443281D01*
X10843895Y-17462329D01*
X10834371Y-17471852D01*
X10815324Y-17481376D01*
X10786752Y-17481376D01*
X10967705Y-17481376D02*
X10948657Y-17471852D01*
X10939133Y-17452805D01*
X10939133Y-17281376D01*
X11120086Y-17471852D02*
X11101038Y-17481376D01*
X11062943Y-17481376D01*
X11043895Y-17471852D01*
X11034371Y-17452805D01*
X11034371Y-17376614D01*
X11043895Y-17357567D01*
X11062943Y-17348043D01*
X11101038Y-17348043D01*
X11120086Y-17357567D01*
X11129610Y-17376614D01*
X11129610Y-17395662D01*
X11034371Y-17414710D01*
X11205800Y-17471852D02*
X11224848Y-17481376D01*
X11262943Y-17481376D01*
X11281990Y-17471852D01*
X11291514Y-17452805D01*
X11291514Y-17443281D01*
X11281990Y-17424233D01*
X11262943Y-17414710D01*
X11234371Y-17414710D01*
X11215324Y-17405186D01*
X11205800Y-17386138D01*
X11205800Y-17376614D01*
X11215324Y-17357567D01*
X11234371Y-17348043D01*
X11262943Y-17348043D01*
X11281990Y-17357567D01*
X11358181Y-17557567D02*
X11367705Y-17548043D01*
X11386752Y-17519471D01*
X11396276Y-17500424D01*
X11405800Y-17471852D01*
X11415324Y-17424233D01*
X11415324Y-17386138D01*
X11405800Y-17338519D01*
X11396276Y-17309948D01*
X11386752Y-17290900D01*
X11367705Y-17262329D01*
X11358181Y-17252805D01*
D15*
X6382620Y-17686720D02*
X6382620Y-17623080D01*
X6318980Y-17623080D01*
X6318980Y-17686720D01*
X6382620Y-17686720D01*
D11*
X6691514Y-17545376D02*
X6710562Y-17545376D01*
X6729609Y-17554900D01*
X6739133Y-17564424D01*
X6748657Y-17583471D01*
X6758181Y-17621567D01*
X6758181Y-17669186D01*
X6748657Y-17707281D01*
X6739133Y-17726329D01*
X6729609Y-17735852D01*
X6710562Y-17745376D01*
X6691514Y-17745376D01*
X6672467Y-17735852D01*
X6662943Y-17726329D01*
X6653419Y-17707281D01*
X6643895Y-17669186D01*
X6643895Y-17621567D01*
X6653419Y-17583471D01*
X6662943Y-17564424D01*
X6672467Y-17554900D01*
X6691514Y-17545376D01*
X6843895Y-17726329D02*
X6853419Y-17735852D01*
X6843895Y-17745376D01*
X6834371Y-17735852D01*
X6843895Y-17726329D01*
X6843895Y-17745376D01*
X6948657Y-17745376D02*
X6986752Y-17745376D01*
X7005800Y-17735852D01*
X7015324Y-17726329D01*
X7034371Y-17697757D01*
X7043895Y-17659662D01*
X7043895Y-17583471D01*
X7034371Y-17564424D01*
X7024848Y-17554900D01*
X7005800Y-17545376D01*
X6967705Y-17545376D01*
X6948657Y-17554900D01*
X6939133Y-17564424D01*
X6929609Y-17583471D01*
X6929609Y-17631090D01*
X6939133Y-17650138D01*
X6948657Y-17659662D01*
X6967705Y-17669186D01*
X7005800Y-17669186D01*
X7024848Y-17659662D01*
X7034371Y-17650138D01*
X7043895Y-17631090D01*
X7167705Y-17545376D02*
X7186752Y-17545376D01*
X7205800Y-17554900D01*
X7215324Y-17564424D01*
X7224848Y-17583471D01*
X7234371Y-17621567D01*
X7234371Y-17669186D01*
X7224848Y-17707281D01*
X7215324Y-17726329D01*
X7205800Y-17735852D01*
X7186752Y-17745376D01*
X7167705Y-17745376D01*
X7148657Y-17735852D01*
X7139133Y-17726329D01*
X7129609Y-17707281D01*
X7120086Y-17669186D01*
X7120086Y-17621567D01*
X7129609Y-17583471D01*
X7139133Y-17564424D01*
X7148657Y-17554900D01*
X7167705Y-17545376D01*
X7358181Y-17545376D02*
X7377228Y-17545376D01*
X7396276Y-17554900D01*
X7405800Y-17564424D01*
X7415324Y-17583471D01*
X7424848Y-17621567D01*
X7424848Y-17669186D01*
X7415324Y-17707281D01*
X7405800Y-17726329D01*
X7396276Y-17735852D01*
X7377228Y-17745376D01*
X7358181Y-17745376D01*
X7339133Y-17735852D01*
X7329609Y-17726329D01*
X7320086Y-17707281D01*
X7310562Y-17669186D01*
X7310562Y-17621567D01*
X7320086Y-17583471D01*
X7329609Y-17564424D01*
X7339133Y-17554900D01*
X7358181Y-17545376D01*
X7510562Y-17745376D02*
X7510562Y-17612043D01*
X7510562Y-17631090D02*
X7520086Y-17621567D01*
X7539133Y-17612043D01*
X7567705Y-17612043D01*
X7586752Y-17621567D01*
X7596276Y-17640614D01*
X7596276Y-17745376D01*
X7596276Y-17640614D02*
X7605800Y-17621567D01*
X7624848Y-17612043D01*
X7653419Y-17612043D01*
X7672467Y-17621567D01*
X7681990Y-17640614D01*
X7681990Y-17745376D01*
X7777228Y-17745376D02*
X7777228Y-17612043D01*
X7777228Y-17631090D02*
X7786752Y-17621567D01*
X7805800Y-17612043D01*
X7834371Y-17612043D01*
X7853419Y-17621567D01*
X7862943Y-17640614D01*
X7862943Y-17745376D01*
X7862943Y-17640614D02*
X7872467Y-17621567D01*
X7891514Y-17612043D01*
X7920086Y-17612043D01*
X7939133Y-17621567D01*
X7948657Y-17640614D01*
X7948657Y-17745376D01*
X8339133Y-17535852D02*
X8167705Y-17792995D01*
X8596276Y-17545376D02*
X8615324Y-17545376D01*
X8634371Y-17554900D01*
X8643895Y-17564424D01*
X8653419Y-17583471D01*
X8662943Y-17621567D01*
X8662943Y-17669186D01*
X8653419Y-17707281D01*
X8643895Y-17726329D01*
X8634371Y-17735852D01*
X8615324Y-17745376D01*
X8596276Y-17745376D01*
X8577229Y-17735852D01*
X8567705Y-17726329D01*
X8558181Y-17707281D01*
X8548657Y-17669186D01*
X8548657Y-17621567D01*
X8558181Y-17583471D01*
X8567705Y-17564424D01*
X8577229Y-17554900D01*
X8596276Y-17545376D01*
X8748657Y-17726329D02*
X8758181Y-17735852D01*
X8748657Y-17745376D01*
X8739133Y-17735852D01*
X8748657Y-17726329D01*
X8748657Y-17745376D01*
X8881990Y-17545376D02*
X8901038Y-17545376D01*
X8920086Y-17554900D01*
X8929610Y-17564424D01*
X8939133Y-17583471D01*
X8948657Y-17621567D01*
X8948657Y-17669186D01*
X8939133Y-17707281D01*
X8929610Y-17726329D01*
X8920086Y-17735852D01*
X8901038Y-17745376D01*
X8881990Y-17745376D01*
X8862943Y-17735852D01*
X8853419Y-17726329D01*
X8843895Y-17707281D01*
X8834371Y-17669186D01*
X8834371Y-17621567D01*
X8843895Y-17583471D01*
X8853419Y-17564424D01*
X8862943Y-17554900D01*
X8881990Y-17545376D01*
X9015324Y-17545376D02*
X9139133Y-17545376D01*
X9072467Y-17621567D01*
X9101038Y-17621567D01*
X9120086Y-17631090D01*
X9129610Y-17640614D01*
X9139133Y-17659662D01*
X9139133Y-17707281D01*
X9129610Y-17726329D01*
X9120086Y-17735852D01*
X9101038Y-17745376D01*
X9043895Y-17745376D01*
X9024848Y-17735852D01*
X9015324Y-17726329D01*
X9320086Y-17545376D02*
X9224848Y-17545376D01*
X9215324Y-17640614D01*
X9224848Y-17631090D01*
X9243895Y-17621567D01*
X9291514Y-17621567D01*
X9310562Y-17631090D01*
X9320086Y-17640614D01*
X9329610Y-17659662D01*
X9329610Y-17707281D01*
X9320086Y-17726329D01*
X9310562Y-17735852D01*
X9291514Y-17745376D01*
X9243895Y-17745376D01*
X9224848Y-17735852D01*
X9215324Y-17726329D01*
X9501038Y-17612043D02*
X9501038Y-17745376D01*
X9453419Y-17535852D02*
X9405800Y-17678710D01*
X9529610Y-17678710D01*
X9596276Y-17545376D02*
X9596276Y-17583471D01*
X9672467Y-17545376D02*
X9672467Y-17583471D01*
X9967705Y-17821567D02*
X9958181Y-17812043D01*
X9939133Y-17783471D01*
X9929610Y-17764424D01*
X9920086Y-17735852D01*
X9910562Y-17688233D01*
X9910562Y-17650138D01*
X9920086Y-17602519D01*
X9929610Y-17573948D01*
X9939133Y-17554900D01*
X9958181Y-17526329D01*
X9967705Y-17516805D01*
X10072467Y-17631090D02*
X10053419Y-17621567D01*
X10043895Y-17612043D01*
X10034371Y-17592995D01*
X10034371Y-17583471D01*
X10043895Y-17564424D01*
X10053419Y-17554900D01*
X10072467Y-17545376D01*
X10110562Y-17545376D01*
X10129610Y-17554900D01*
X10139133Y-17564424D01*
X10148657Y-17583471D01*
X10148657Y-17592995D01*
X10139133Y-17612043D01*
X10129610Y-17621567D01*
X10110562Y-17631090D01*
X10072467Y-17631090D01*
X10053419Y-17640614D01*
X10043895Y-17650138D01*
X10034371Y-17669186D01*
X10034371Y-17707281D01*
X10043895Y-17726329D01*
X10053419Y-17735852D01*
X10072467Y-17745376D01*
X10110562Y-17745376D01*
X10129610Y-17735852D01*
X10139133Y-17726329D01*
X10148657Y-17707281D01*
X10148657Y-17669186D01*
X10139133Y-17650138D01*
X10129610Y-17640614D01*
X10110562Y-17631090D01*
X10224848Y-17564424D02*
X10234371Y-17554900D01*
X10253419Y-17545376D01*
X10301038Y-17545376D01*
X10320086Y-17554900D01*
X10329610Y-17564424D01*
X10339133Y-17583471D01*
X10339133Y-17602519D01*
X10329610Y-17631090D01*
X10215324Y-17745376D01*
X10339133Y-17745376D01*
X10577229Y-17745376D02*
X10577229Y-17545376D01*
X10662943Y-17745376D02*
X10662943Y-17640614D01*
X10653419Y-17621567D01*
X10634371Y-17612043D01*
X10605800Y-17612043D01*
X10586752Y-17621567D01*
X10577229Y-17631090D01*
X10786752Y-17745376D02*
X10767705Y-17735852D01*
X10758181Y-17726329D01*
X10748657Y-17707281D01*
X10748657Y-17650138D01*
X10758181Y-17631090D01*
X10767705Y-17621567D01*
X10786752Y-17612043D01*
X10815324Y-17612043D01*
X10834371Y-17621567D01*
X10843895Y-17631090D01*
X10853419Y-17650138D01*
X10853419Y-17707281D01*
X10843895Y-17726329D01*
X10834371Y-17735852D01*
X10815324Y-17745376D01*
X10786752Y-17745376D01*
X10967705Y-17745376D02*
X10948657Y-17735852D01*
X10939133Y-17716805D01*
X10939133Y-17545376D01*
X11120086Y-17735852D02*
X11101038Y-17745376D01*
X11062943Y-17745376D01*
X11043895Y-17735852D01*
X11034371Y-17716805D01*
X11034371Y-17640614D01*
X11043895Y-17621567D01*
X11062943Y-17612043D01*
X11101038Y-17612043D01*
X11120086Y-17621567D01*
X11129610Y-17640614D01*
X11129610Y-17659662D01*
X11034371Y-17678710D01*
X11205800Y-17735852D02*
X11224848Y-17745376D01*
X11262943Y-17745376D01*
X11281990Y-17735852D01*
X11291514Y-17716805D01*
X11291514Y-17707281D01*
X11281990Y-17688233D01*
X11262943Y-17678710D01*
X11234371Y-17678710D01*
X11215324Y-17669186D01*
X11205800Y-17650138D01*
X11205800Y-17640614D01*
X11215324Y-17621567D01*
X11234371Y-17612043D01*
X11262943Y-17612043D01*
X11281990Y-17621567D01*
X11358181Y-17821567D02*
X11367705Y-17812043D01*
X11386752Y-17783471D01*
X11396276Y-17764424D01*
X11405800Y-17735852D01*
X11415324Y-17688233D01*
X11415324Y-17650138D01*
X11405800Y-17602519D01*
X11396276Y-17573948D01*
X11386752Y-17554900D01*
X11367705Y-17526329D01*
X11358181Y-17516805D01*
D16*
X6348300Y-17966400D02*
X6395800Y-17918900D01*
X6348300Y-17871400D01*
X6300800Y-17918900D01*
X6348300Y-17966400D01*
D11*
X6691514Y-17809376D02*
X6710562Y-17809376D01*
X6729609Y-17818900D01*
X6739133Y-17828424D01*
X6748657Y-17847471D01*
X6758181Y-17885567D01*
X6758181Y-17933186D01*
X6748657Y-17971281D01*
X6739133Y-17990329D01*
X6729609Y-17999852D01*
X6710562Y-18009376D01*
X6691514Y-18009376D01*
X6672467Y-17999852D01*
X6662943Y-17990329D01*
X6653419Y-17971281D01*
X6643895Y-17933186D01*
X6643895Y-17885567D01*
X6653419Y-17847471D01*
X6662943Y-17828424D01*
X6672467Y-17818900D01*
X6691514Y-17809376D01*
X6843895Y-17990329D02*
X6853419Y-17999852D01*
X6843895Y-18009376D01*
X6834371Y-17999852D01*
X6843895Y-17990329D01*
X6843895Y-18009376D01*
X6948657Y-18009376D02*
X6986752Y-18009376D01*
X7005800Y-17999852D01*
X7015324Y-17990329D01*
X7034371Y-17961757D01*
X7043895Y-17923662D01*
X7043895Y-17847471D01*
X7034371Y-17828424D01*
X7024848Y-17818900D01*
X7005800Y-17809376D01*
X6967705Y-17809376D01*
X6948657Y-17818900D01*
X6939133Y-17828424D01*
X6929609Y-17847471D01*
X6929609Y-17895090D01*
X6939133Y-17914138D01*
X6948657Y-17923662D01*
X6967705Y-17933186D01*
X7005800Y-17933186D01*
X7024848Y-17923662D01*
X7034371Y-17914138D01*
X7043895Y-17895090D01*
X7224848Y-17809376D02*
X7129609Y-17809376D01*
X7120086Y-17904614D01*
X7129609Y-17895090D01*
X7148657Y-17885567D01*
X7196276Y-17885567D01*
X7215324Y-17895090D01*
X7224848Y-17904614D01*
X7234371Y-17923662D01*
X7234371Y-17971281D01*
X7224848Y-17990329D01*
X7215324Y-17999852D01*
X7196276Y-18009376D01*
X7148657Y-18009376D01*
X7129609Y-17999852D01*
X7120086Y-17990329D01*
X7358181Y-17809376D02*
X7377228Y-17809376D01*
X7396276Y-17818900D01*
X7405800Y-17828424D01*
X7415324Y-17847471D01*
X7424848Y-17885567D01*
X7424848Y-17933186D01*
X7415324Y-17971281D01*
X7405800Y-17990329D01*
X7396276Y-17999852D01*
X7377228Y-18009376D01*
X7358181Y-18009376D01*
X7339133Y-17999852D01*
X7329609Y-17990329D01*
X7320086Y-17971281D01*
X7310562Y-17933186D01*
X7310562Y-17885567D01*
X7320086Y-17847471D01*
X7329609Y-17828424D01*
X7339133Y-17818900D01*
X7358181Y-17809376D01*
X7510562Y-18009376D02*
X7510562Y-17876043D01*
X7510562Y-17895090D02*
X7520086Y-17885567D01*
X7539133Y-17876043D01*
X7567705Y-17876043D01*
X7586752Y-17885567D01*
X7596276Y-17904614D01*
X7596276Y-18009376D01*
X7596276Y-17904614D02*
X7605800Y-17885567D01*
X7624848Y-17876043D01*
X7653419Y-17876043D01*
X7672467Y-17885567D01*
X7681990Y-17904614D01*
X7681990Y-18009376D01*
X7777228Y-18009376D02*
X7777228Y-17876043D01*
X7777228Y-17895090D02*
X7786752Y-17885567D01*
X7805800Y-17876043D01*
X7834371Y-17876043D01*
X7853419Y-17885567D01*
X7862943Y-17904614D01*
X7862943Y-18009376D01*
X7862943Y-17904614D02*
X7872467Y-17885567D01*
X7891514Y-17876043D01*
X7920086Y-17876043D01*
X7939133Y-17885567D01*
X7948657Y-17904614D01*
X7948657Y-18009376D01*
X8339133Y-17799852D02*
X8167705Y-18056995D01*
X8596276Y-17809376D02*
X8615324Y-17809376D01*
X8634371Y-17818900D01*
X8643895Y-17828424D01*
X8653419Y-17847471D01*
X8662943Y-17885567D01*
X8662943Y-17933186D01*
X8653419Y-17971281D01*
X8643895Y-17990329D01*
X8634371Y-17999852D01*
X8615324Y-18009376D01*
X8596276Y-18009376D01*
X8577229Y-17999852D01*
X8567705Y-17990329D01*
X8558181Y-17971281D01*
X8548657Y-17933186D01*
X8548657Y-17885567D01*
X8558181Y-17847471D01*
X8567705Y-17828424D01*
X8577229Y-17818900D01*
X8596276Y-17809376D01*
X8748657Y-17990329D02*
X8758181Y-17999852D01*
X8748657Y-18009376D01*
X8739133Y-17999852D01*
X8748657Y-17990329D01*
X8748657Y-18009376D01*
X8881990Y-17809376D02*
X8901038Y-17809376D01*
X8920086Y-17818900D01*
X8929610Y-17828424D01*
X8939133Y-17847471D01*
X8948657Y-17885567D01*
X8948657Y-17933186D01*
X8939133Y-17971281D01*
X8929610Y-17990329D01*
X8920086Y-17999852D01*
X8901038Y-18009376D01*
X8881990Y-18009376D01*
X8862943Y-17999852D01*
X8853419Y-17990329D01*
X8843895Y-17971281D01*
X8834371Y-17933186D01*
X8834371Y-17885567D01*
X8843895Y-17847471D01*
X8853419Y-17828424D01*
X8862943Y-17818900D01*
X8881990Y-17809376D01*
X9015324Y-17809376D02*
X9139133Y-17809376D01*
X9072467Y-17885567D01*
X9101038Y-17885567D01*
X9120086Y-17895090D01*
X9129610Y-17904614D01*
X9139133Y-17923662D01*
X9139133Y-17971281D01*
X9129610Y-17990329D01*
X9120086Y-17999852D01*
X9101038Y-18009376D01*
X9043895Y-18009376D01*
X9024848Y-17999852D01*
X9015324Y-17990329D01*
X9205800Y-17809376D02*
X9339133Y-17809376D01*
X9253419Y-18009376D01*
X9501038Y-17876043D02*
X9501038Y-18009376D01*
X9453419Y-17799852D02*
X9405800Y-17942710D01*
X9529610Y-17942710D01*
X9596276Y-17809376D02*
X9596276Y-17847471D01*
X9672467Y-17809376D02*
X9672467Y-17847471D01*
X9967705Y-18085567D02*
X9958181Y-18076043D01*
X9939133Y-18047471D01*
X9929610Y-18028424D01*
X9920086Y-17999852D01*
X9910562Y-17952233D01*
X9910562Y-17914138D01*
X9920086Y-17866519D01*
X9929610Y-17837948D01*
X9939133Y-17818900D01*
X9958181Y-17790329D01*
X9967705Y-17780805D01*
X10129610Y-17876043D02*
X10129610Y-18009376D01*
X10081990Y-17799852D02*
X10034371Y-17942710D01*
X10158181Y-17942710D01*
X10386752Y-18009376D02*
X10386752Y-17809376D01*
X10472467Y-18009376D02*
X10472467Y-17904614D01*
X10462943Y-17885567D01*
X10443895Y-17876043D01*
X10415324Y-17876043D01*
X10396276Y-17885567D01*
X10386752Y-17895090D01*
X10596276Y-18009376D02*
X10577229Y-17999852D01*
X10567705Y-17990329D01*
X10558181Y-17971281D01*
X10558181Y-17914138D01*
X10567705Y-17895090D01*
X10577229Y-17885567D01*
X10596276Y-17876043D01*
X10624848Y-17876043D01*
X10643895Y-17885567D01*
X10653419Y-17895090D01*
X10662943Y-17914138D01*
X10662943Y-17971281D01*
X10653419Y-17990329D01*
X10643895Y-17999852D01*
X10624848Y-18009376D01*
X10596276Y-18009376D01*
X10777229Y-18009376D02*
X10758181Y-17999852D01*
X10748657Y-17980805D01*
X10748657Y-17809376D01*
X10929610Y-17999852D02*
X10910562Y-18009376D01*
X10872467Y-18009376D01*
X10853419Y-17999852D01*
X10843895Y-17980805D01*
X10843895Y-17904614D01*
X10853419Y-17885567D01*
X10872467Y-17876043D01*
X10910562Y-17876043D01*
X10929610Y-17885567D01*
X10939133Y-17904614D01*
X10939133Y-17923662D01*
X10843895Y-17942710D01*
X11015324Y-17999852D02*
X11034371Y-18009376D01*
X11072467Y-18009376D01*
X11091514Y-17999852D01*
X11101038Y-17980805D01*
X11101038Y-17971281D01*
X11091514Y-17952233D01*
X11072467Y-17942710D01*
X11043895Y-17942710D01*
X11024848Y-17933186D01*
X11015324Y-17914138D01*
X11015324Y-17904614D01*
X11024848Y-17885567D01*
X11043895Y-17876043D01*
X11072467Y-17876043D01*
X11091514Y-17885567D01*
X11167705Y-18085567D02*
X11177229Y-18076043D01*
X11196276Y-18047471D01*
X11205800Y-18028424D01*
X11215324Y-17999852D01*
X11224848Y-17952233D01*
X11224848Y-17914138D01*
X11215324Y-17866519D01*
X11205800Y-17837948D01*
X11196276Y-17818900D01*
X11177229Y-17790329D01*
X11167705Y-17780805D01*
D17*
X6295800Y-18132900D02*
X6395800Y-18232900D01*
X6395800Y-18132900D02*
X6295800Y-18232900D01*
X6395800Y-18182900D02*
G75*
G03*
X6395800Y-18182900I-50000J0D01*
G01*
D11*
X6758181Y-18273376D02*
X6643895Y-18273376D01*
X6701038Y-18273376D02*
X6701038Y-18073376D01*
X6681990Y-18101948D01*
X6662943Y-18120995D01*
X6643895Y-18130519D01*
X6843895Y-18254329D02*
X6853419Y-18263852D01*
X6843895Y-18273376D01*
X6834371Y-18263852D01*
X6843895Y-18254329D01*
X6843895Y-18273376D01*
X6977228Y-18073376D02*
X6996276Y-18073376D01*
X7015324Y-18082900D01*
X7024848Y-18092424D01*
X7034371Y-18111471D01*
X7043895Y-18149567D01*
X7043895Y-18197186D01*
X7034371Y-18235281D01*
X7024848Y-18254329D01*
X7015324Y-18263852D01*
X6996276Y-18273376D01*
X6977228Y-18273376D01*
X6958181Y-18263852D01*
X6948657Y-18254329D01*
X6939133Y-18235281D01*
X6929609Y-18197186D01*
X6929609Y-18149567D01*
X6939133Y-18111471D01*
X6948657Y-18092424D01*
X6958181Y-18082900D01*
X6977228Y-18073376D01*
X7167705Y-18073376D02*
X7186752Y-18073376D01*
X7205800Y-18082900D01*
X7215324Y-18092424D01*
X7224848Y-18111471D01*
X7234371Y-18149567D01*
X7234371Y-18197186D01*
X7224848Y-18235281D01*
X7215324Y-18254329D01*
X7205800Y-18263852D01*
X7186752Y-18273376D01*
X7167705Y-18273376D01*
X7148657Y-18263852D01*
X7139133Y-18254329D01*
X7129609Y-18235281D01*
X7120086Y-18197186D01*
X7120086Y-18149567D01*
X7129609Y-18111471D01*
X7139133Y-18092424D01*
X7148657Y-18082900D01*
X7167705Y-18073376D01*
X7358181Y-18073376D02*
X7377228Y-18073376D01*
X7396276Y-18082900D01*
X7405800Y-18092424D01*
X7415324Y-18111471D01*
X7424848Y-18149567D01*
X7424848Y-18197186D01*
X7415324Y-18235281D01*
X7405800Y-18254329D01*
X7396276Y-18263852D01*
X7377228Y-18273376D01*
X7358181Y-18273376D01*
X7339133Y-18263852D01*
X7329609Y-18254329D01*
X7320086Y-18235281D01*
X7310562Y-18197186D01*
X7310562Y-18149567D01*
X7320086Y-18111471D01*
X7329609Y-18092424D01*
X7339133Y-18082900D01*
X7358181Y-18073376D01*
X7510562Y-18273376D02*
X7510562Y-18140043D01*
X7510562Y-18159090D02*
X7520086Y-18149567D01*
X7539133Y-18140043D01*
X7567705Y-18140043D01*
X7586752Y-18149567D01*
X7596276Y-18168614D01*
X7596276Y-18273376D01*
X7596276Y-18168614D02*
X7605800Y-18149567D01*
X7624848Y-18140043D01*
X7653419Y-18140043D01*
X7672467Y-18149567D01*
X7681990Y-18168614D01*
X7681990Y-18273376D01*
X7777228Y-18273376D02*
X7777228Y-18140043D01*
X7777228Y-18159090D02*
X7786752Y-18149567D01*
X7805800Y-18140043D01*
X7834371Y-18140043D01*
X7853419Y-18149567D01*
X7862943Y-18168614D01*
X7862943Y-18273376D01*
X7862943Y-18168614D02*
X7872467Y-18149567D01*
X7891514Y-18140043D01*
X7920086Y-18140043D01*
X7939133Y-18149567D01*
X7948657Y-18168614D01*
X7948657Y-18273376D01*
X8339133Y-18063852D02*
X8167705Y-18320995D01*
X8596276Y-18073376D02*
X8615324Y-18073376D01*
X8634371Y-18082900D01*
X8643895Y-18092424D01*
X8653419Y-18111471D01*
X8662943Y-18149567D01*
X8662943Y-18197186D01*
X8653419Y-18235281D01*
X8643895Y-18254329D01*
X8634371Y-18263852D01*
X8615324Y-18273376D01*
X8596276Y-18273376D01*
X8577229Y-18263852D01*
X8567705Y-18254329D01*
X8558181Y-18235281D01*
X8548657Y-18197186D01*
X8548657Y-18149567D01*
X8558181Y-18111471D01*
X8567705Y-18092424D01*
X8577229Y-18082900D01*
X8596276Y-18073376D01*
X8748657Y-18254329D02*
X8758181Y-18263852D01*
X8748657Y-18273376D01*
X8739133Y-18263852D01*
X8748657Y-18254329D01*
X8748657Y-18273376D01*
X8881990Y-18073376D02*
X8901038Y-18073376D01*
X8920086Y-18082900D01*
X8929610Y-18092424D01*
X8939133Y-18111471D01*
X8948657Y-18149567D01*
X8948657Y-18197186D01*
X8939133Y-18235281D01*
X8929610Y-18254329D01*
X8920086Y-18263852D01*
X8901038Y-18273376D01*
X8881990Y-18273376D01*
X8862943Y-18263852D01*
X8853419Y-18254329D01*
X8843895Y-18235281D01*
X8834371Y-18197186D01*
X8834371Y-18149567D01*
X8843895Y-18111471D01*
X8853419Y-18092424D01*
X8862943Y-18082900D01*
X8881990Y-18073376D01*
X9015324Y-18073376D02*
X9139133Y-18073376D01*
X9072467Y-18149567D01*
X9101038Y-18149567D01*
X9120086Y-18159090D01*
X9129610Y-18168614D01*
X9139133Y-18187662D01*
X9139133Y-18235281D01*
X9129610Y-18254329D01*
X9120086Y-18263852D01*
X9101038Y-18273376D01*
X9043895Y-18273376D01*
X9024848Y-18263852D01*
X9015324Y-18254329D01*
X9234371Y-18273376D02*
X9272467Y-18273376D01*
X9291514Y-18263852D01*
X9301038Y-18254329D01*
X9320086Y-18225757D01*
X9329610Y-18187662D01*
X9329610Y-18111471D01*
X9320086Y-18092424D01*
X9310562Y-18082900D01*
X9291514Y-18073376D01*
X9253419Y-18073376D01*
X9234371Y-18082900D01*
X9224848Y-18092424D01*
X9215324Y-18111471D01*
X9215324Y-18159090D01*
X9224848Y-18178138D01*
X9234371Y-18187662D01*
X9253419Y-18197186D01*
X9291514Y-18197186D01*
X9310562Y-18187662D01*
X9320086Y-18178138D01*
X9329610Y-18159090D01*
X9501038Y-18140043D02*
X9501038Y-18273376D01*
X9453419Y-18063852D02*
X9405800Y-18206710D01*
X9529610Y-18206710D01*
X9596276Y-18073376D02*
X9596276Y-18111471D01*
X9672467Y-18073376D02*
X9672467Y-18111471D01*
X9967705Y-18349567D02*
X9958181Y-18340043D01*
X9939133Y-18311471D01*
X9929610Y-18292424D01*
X9920086Y-18263852D01*
X9910562Y-18216233D01*
X9910562Y-18178138D01*
X9920086Y-18130519D01*
X9929610Y-18101948D01*
X9939133Y-18082900D01*
X9958181Y-18054329D01*
X9967705Y-18044805D01*
X10148657Y-18273376D02*
X10034371Y-18273376D01*
X10091514Y-18273376D02*
X10091514Y-18073376D01*
X10072467Y-18101948D01*
X10053419Y-18120995D01*
X10034371Y-18130519D01*
X10215324Y-18073376D02*
X10348657Y-18073376D01*
X10262943Y-18273376D01*
X10577229Y-18273376D02*
X10577229Y-18073376D01*
X10662943Y-18273376D02*
X10662943Y-18168614D01*
X10653419Y-18149567D01*
X10634371Y-18140043D01*
X10605800Y-18140043D01*
X10586752Y-18149567D01*
X10577229Y-18159090D01*
X10786752Y-18273376D02*
X10767705Y-18263852D01*
X10758181Y-18254329D01*
X10748657Y-18235281D01*
X10748657Y-18178138D01*
X10758181Y-18159090D01*
X10767705Y-18149567D01*
X10786752Y-18140043D01*
X10815324Y-18140043D01*
X10834371Y-18149567D01*
X10843895Y-18159090D01*
X10853419Y-18178138D01*
X10853419Y-18235281D01*
X10843895Y-18254329D01*
X10834371Y-18263852D01*
X10815324Y-18273376D01*
X10786752Y-18273376D01*
X10967705Y-18273376D02*
X10948657Y-18263852D01*
X10939133Y-18244805D01*
X10939133Y-18073376D01*
X11120086Y-18263852D02*
X11101038Y-18273376D01*
X11062943Y-18273376D01*
X11043895Y-18263852D01*
X11034371Y-18244805D01*
X11034371Y-18168614D01*
X11043895Y-18149567D01*
X11062943Y-18140043D01*
X11101038Y-18140043D01*
X11120086Y-18149567D01*
X11129610Y-18168614D01*
X11129610Y-18187662D01*
X11034371Y-18206710D01*
X11205800Y-18263852D02*
X11224848Y-18273376D01*
X11262943Y-18273376D01*
X11281990Y-18263852D01*
X11291514Y-18244805D01*
X11291514Y-18235281D01*
X11281990Y-18216233D01*
X11262943Y-18206710D01*
X11234371Y-18206710D01*
X11215324Y-18197186D01*
X11205800Y-18178138D01*
X11205800Y-18168614D01*
X11215324Y-18149567D01*
X11234371Y-18140043D01*
X11262943Y-18140043D01*
X11281990Y-18149567D01*
X11358181Y-18349567D02*
X11367705Y-18340043D01*
X11386752Y-18311471D01*
X11396276Y-18292424D01*
X11405800Y-18263852D01*
X11415324Y-18216233D01*
X11415324Y-18178138D01*
X11405800Y-18130519D01*
X11396276Y-18101948D01*
X11386752Y-18082900D01*
X11367705Y-18054329D01*
X11358181Y-18044805D01*
D18*
X6275800Y-18386900D02*
X6395800Y-18506900D01*
X6395800Y-18386900D02*
X6275800Y-18506900D01*
X6335800Y-18386900D02*
X6335800Y-18506900D01*
X6275800Y-18446900D02*
X6395800Y-18446900D01*
D11*
X6758181Y-18537376D02*
X6643895Y-18537376D01*
X6701038Y-18537376D02*
X6701038Y-18337376D01*
X6681990Y-18365948D01*
X6662943Y-18384995D01*
X6643895Y-18394519D01*
X6843895Y-18518329D02*
X6853419Y-18527852D01*
X6843895Y-18537376D01*
X6834371Y-18527852D01*
X6843895Y-18518329D01*
X6843895Y-18537376D01*
X6929609Y-18356424D02*
X6939133Y-18346900D01*
X6958181Y-18337376D01*
X7005800Y-18337376D01*
X7024848Y-18346900D01*
X7034371Y-18356424D01*
X7043895Y-18375471D01*
X7043895Y-18394519D01*
X7034371Y-18423090D01*
X6920086Y-18537376D01*
X7043895Y-18537376D01*
X7167705Y-18337376D02*
X7186752Y-18337376D01*
X7205800Y-18346900D01*
X7215324Y-18356424D01*
X7224848Y-18375471D01*
X7234371Y-18413567D01*
X7234371Y-18461186D01*
X7224848Y-18499281D01*
X7215324Y-18518329D01*
X7205800Y-18527852D01*
X7186752Y-18537376D01*
X7167705Y-18537376D01*
X7148657Y-18527852D01*
X7139133Y-18518329D01*
X7129609Y-18499281D01*
X7120086Y-18461186D01*
X7120086Y-18413567D01*
X7129609Y-18375471D01*
X7139133Y-18356424D01*
X7148657Y-18346900D01*
X7167705Y-18337376D01*
X7358181Y-18337376D02*
X7377228Y-18337376D01*
X7396276Y-18346900D01*
X7405800Y-18356424D01*
X7415324Y-18375471D01*
X7424848Y-18413567D01*
X7424848Y-18461186D01*
X7415324Y-18499281D01*
X7405800Y-18518329D01*
X7396276Y-18527852D01*
X7377228Y-18537376D01*
X7358181Y-18537376D01*
X7339133Y-18527852D01*
X7329609Y-18518329D01*
X7320086Y-18499281D01*
X7310562Y-18461186D01*
X7310562Y-18413567D01*
X7320086Y-18375471D01*
X7329609Y-18356424D01*
X7339133Y-18346900D01*
X7358181Y-18337376D01*
X7510562Y-18537376D02*
X7510562Y-18404043D01*
X7510562Y-18423090D02*
X7520086Y-18413567D01*
X7539133Y-18404043D01*
X7567705Y-18404043D01*
X7586752Y-18413567D01*
X7596276Y-18432614D01*
X7596276Y-18537376D01*
X7596276Y-18432614D02*
X7605800Y-18413567D01*
X7624848Y-18404043D01*
X7653419Y-18404043D01*
X7672467Y-18413567D01*
X7681990Y-18432614D01*
X7681990Y-18537376D01*
X7777228Y-18537376D02*
X7777228Y-18404043D01*
X7777228Y-18423090D02*
X7786752Y-18413567D01*
X7805800Y-18404043D01*
X7834371Y-18404043D01*
X7853419Y-18413567D01*
X7862943Y-18432614D01*
X7862943Y-18537376D01*
X7862943Y-18432614D02*
X7872467Y-18413567D01*
X7891514Y-18404043D01*
X7920086Y-18404043D01*
X7939133Y-18413567D01*
X7948657Y-18432614D01*
X7948657Y-18537376D01*
X8339133Y-18327852D02*
X8167705Y-18584995D01*
X8596276Y-18337376D02*
X8615324Y-18337376D01*
X8634371Y-18346900D01*
X8643895Y-18356424D01*
X8653419Y-18375471D01*
X8662943Y-18413567D01*
X8662943Y-18461186D01*
X8653419Y-18499281D01*
X8643895Y-18518329D01*
X8634371Y-18527852D01*
X8615324Y-18537376D01*
X8596276Y-18537376D01*
X8577229Y-18527852D01*
X8567705Y-18518329D01*
X8558181Y-18499281D01*
X8548657Y-18461186D01*
X8548657Y-18413567D01*
X8558181Y-18375471D01*
X8567705Y-18356424D01*
X8577229Y-18346900D01*
X8596276Y-18337376D01*
X8748657Y-18518329D02*
X8758181Y-18527852D01*
X8748657Y-18537376D01*
X8739133Y-18527852D01*
X8748657Y-18518329D01*
X8748657Y-18537376D01*
X8881990Y-18337376D02*
X8901038Y-18337376D01*
X8920086Y-18346900D01*
X8929610Y-18356424D01*
X8939133Y-18375471D01*
X8948657Y-18413567D01*
X8948657Y-18461186D01*
X8939133Y-18499281D01*
X8929610Y-18518329D01*
X8920086Y-18527852D01*
X8901038Y-18537376D01*
X8881990Y-18537376D01*
X8862943Y-18527852D01*
X8853419Y-18518329D01*
X8843895Y-18499281D01*
X8834371Y-18461186D01*
X8834371Y-18413567D01*
X8843895Y-18375471D01*
X8853419Y-18356424D01*
X8862943Y-18346900D01*
X8881990Y-18337376D01*
X9120086Y-18404043D02*
X9120086Y-18537376D01*
X9072467Y-18327852D02*
X9024848Y-18470710D01*
X9148657Y-18470710D01*
X9205800Y-18337376D02*
X9339133Y-18337376D01*
X9253419Y-18537376D01*
X9405800Y-18356424D02*
X9415324Y-18346900D01*
X9434371Y-18337376D01*
X9481990Y-18337376D01*
X9501038Y-18346900D01*
X9510562Y-18356424D01*
X9520086Y-18375471D01*
X9520086Y-18394519D01*
X9510562Y-18423090D01*
X9396276Y-18537376D01*
X9520086Y-18537376D01*
X9596276Y-18337376D02*
X9596276Y-18375471D01*
X9672467Y-18337376D02*
X9672467Y-18375471D01*
X9967705Y-18613567D02*
X9958181Y-18604043D01*
X9939133Y-18575471D01*
X9929610Y-18556424D01*
X9920086Y-18527852D01*
X9910562Y-18480233D01*
X9910562Y-18442138D01*
X9920086Y-18394519D01*
X9929610Y-18365948D01*
X9939133Y-18346900D01*
X9958181Y-18318329D01*
X9967705Y-18308805D01*
X10129610Y-18404043D02*
X10129610Y-18537376D01*
X10081990Y-18327852D02*
X10034371Y-18470710D01*
X10158181Y-18470710D01*
X10262943Y-18423090D02*
X10243895Y-18413567D01*
X10234371Y-18404043D01*
X10224848Y-18384995D01*
X10224848Y-18375471D01*
X10234371Y-18356424D01*
X10243895Y-18346900D01*
X10262943Y-18337376D01*
X10301038Y-18337376D01*
X10320086Y-18346900D01*
X10329610Y-18356424D01*
X10339133Y-18375471D01*
X10339133Y-18384995D01*
X10329610Y-18404043D01*
X10320086Y-18413567D01*
X10301038Y-18423090D01*
X10262943Y-18423090D01*
X10243895Y-18432614D01*
X10234371Y-18442138D01*
X10224848Y-18461186D01*
X10224848Y-18499281D01*
X10234371Y-18518329D01*
X10243895Y-18527852D01*
X10262943Y-18537376D01*
X10301038Y-18537376D01*
X10320086Y-18527852D01*
X10329610Y-18518329D01*
X10339133Y-18499281D01*
X10339133Y-18461186D01*
X10329610Y-18442138D01*
X10320086Y-18432614D01*
X10301038Y-18423090D01*
X10577229Y-18537376D02*
X10577229Y-18337376D01*
X10662943Y-18537376D02*
X10662943Y-18432614D01*
X10653419Y-18413567D01*
X10634371Y-18404043D01*
X10605800Y-18404043D01*
X10586752Y-18413567D01*
X10577229Y-18423090D01*
X10786752Y-18537376D02*
X10767705Y-18527852D01*
X10758181Y-18518329D01*
X10748657Y-18499281D01*
X10748657Y-18442138D01*
X10758181Y-18423090D01*
X10767705Y-18413567D01*
X10786752Y-18404043D01*
X10815324Y-18404043D01*
X10834371Y-18413567D01*
X10843895Y-18423090D01*
X10853419Y-18442138D01*
X10853419Y-18499281D01*
X10843895Y-18518329D01*
X10834371Y-18527852D01*
X10815324Y-18537376D01*
X10786752Y-18537376D01*
X10967705Y-18537376D02*
X10948657Y-18527852D01*
X10939133Y-18508805D01*
X10939133Y-18337376D01*
X11120086Y-18527852D02*
X11101038Y-18537376D01*
X11062943Y-18537376D01*
X11043895Y-18527852D01*
X11034371Y-18508805D01*
X11034371Y-18432614D01*
X11043895Y-18413567D01*
X11062943Y-18404043D01*
X11101038Y-18404043D01*
X11120086Y-18413567D01*
X11129610Y-18432614D01*
X11129610Y-18451662D01*
X11034371Y-18470710D01*
X11205800Y-18527852D02*
X11224848Y-18537376D01*
X11262943Y-18537376D01*
X11281990Y-18527852D01*
X11291514Y-18508805D01*
X11291514Y-18499281D01*
X11281990Y-18480233D01*
X11262943Y-18470710D01*
X11234371Y-18470710D01*
X11215324Y-18461186D01*
X11205800Y-18442138D01*
X11205800Y-18432614D01*
X11215324Y-18413567D01*
X11234371Y-18404043D01*
X11262943Y-18404043D01*
X11281990Y-18413567D01*
X11358181Y-18613567D02*
X11367705Y-18604043D01*
X11386752Y-18575471D01*
X11396276Y-18556424D01*
X11405800Y-18527852D01*
X11415324Y-18480233D01*
X11415324Y-18442138D01*
X11405800Y-18394519D01*
X11396276Y-18365948D01*
X11386752Y-18346900D01*
X11367705Y-18318329D01*
X11358181Y-18308805D01*
D19*
X6265800Y-18645900D02*
X6395800Y-18775900D01*
X6395800Y-18645900D02*
X6265800Y-18775900D01*
X6376762Y-18756862D02*
X6376762Y-18664938D01*
X6284838Y-18664938D01*
X6284838Y-18756862D01*
X6376762Y-18756862D01*
D11*
X6758181Y-18801376D02*
X6643895Y-18801376D01*
X6701038Y-18801376D02*
X6701038Y-18601376D01*
X6681990Y-18629948D01*
X6662943Y-18648995D01*
X6643895Y-18658519D01*
X6843895Y-18782329D02*
X6853419Y-18791852D01*
X6843895Y-18801376D01*
X6834371Y-18791852D01*
X6843895Y-18782329D01*
X6843895Y-18801376D01*
X6920086Y-18601376D02*
X7043895Y-18601376D01*
X6977228Y-18677567D01*
X7005800Y-18677567D01*
X7024848Y-18687090D01*
X7034371Y-18696614D01*
X7043895Y-18715662D01*
X7043895Y-18763281D01*
X7034371Y-18782329D01*
X7024848Y-18791852D01*
X7005800Y-18801376D01*
X6948657Y-18801376D01*
X6929609Y-18791852D01*
X6920086Y-18782329D01*
X7167705Y-18601376D02*
X7186752Y-18601376D01*
X7205800Y-18610900D01*
X7215324Y-18620424D01*
X7224848Y-18639471D01*
X7234371Y-18677567D01*
X7234371Y-18725186D01*
X7224848Y-18763281D01*
X7215324Y-18782329D01*
X7205800Y-18791852D01*
X7186752Y-18801376D01*
X7167705Y-18801376D01*
X7148657Y-18791852D01*
X7139133Y-18782329D01*
X7129609Y-18763281D01*
X7120086Y-18725186D01*
X7120086Y-18677567D01*
X7129609Y-18639471D01*
X7139133Y-18620424D01*
X7148657Y-18610900D01*
X7167705Y-18601376D01*
X7358181Y-18601376D02*
X7377228Y-18601376D01*
X7396276Y-18610900D01*
X7405800Y-18620424D01*
X7415324Y-18639471D01*
X7424848Y-18677567D01*
X7424848Y-18725186D01*
X7415324Y-18763281D01*
X7405800Y-18782329D01*
X7396276Y-18791852D01*
X7377228Y-18801376D01*
X7358181Y-18801376D01*
X7339133Y-18791852D01*
X7329609Y-18782329D01*
X7320086Y-18763281D01*
X7310562Y-18725186D01*
X7310562Y-18677567D01*
X7320086Y-18639471D01*
X7329609Y-18620424D01*
X7339133Y-18610900D01*
X7358181Y-18601376D01*
X7510562Y-18801376D02*
X7510562Y-18668043D01*
X7510562Y-18687090D02*
X7520086Y-18677567D01*
X7539133Y-18668043D01*
X7567705Y-18668043D01*
X7586752Y-18677567D01*
X7596276Y-18696614D01*
X7596276Y-18801376D01*
X7596276Y-18696614D02*
X7605800Y-18677567D01*
X7624848Y-18668043D01*
X7653419Y-18668043D01*
X7672467Y-18677567D01*
X7681990Y-18696614D01*
X7681990Y-18801376D01*
X7777228Y-18801376D02*
X7777228Y-18668043D01*
X7777228Y-18687090D02*
X7786752Y-18677567D01*
X7805800Y-18668043D01*
X7834371Y-18668043D01*
X7853419Y-18677567D01*
X7862943Y-18696614D01*
X7862943Y-18801376D01*
X7862943Y-18696614D02*
X7872467Y-18677567D01*
X7891514Y-18668043D01*
X7920086Y-18668043D01*
X7939133Y-18677567D01*
X7948657Y-18696614D01*
X7948657Y-18801376D01*
X8339133Y-18591852D02*
X8167705Y-18848995D01*
X8596276Y-18601376D02*
X8615324Y-18601376D01*
X8634371Y-18610900D01*
X8643895Y-18620424D01*
X8653419Y-18639471D01*
X8662943Y-18677567D01*
X8662943Y-18725186D01*
X8653419Y-18763281D01*
X8643895Y-18782329D01*
X8634371Y-18791852D01*
X8615324Y-18801376D01*
X8596276Y-18801376D01*
X8577229Y-18791852D01*
X8567705Y-18782329D01*
X8558181Y-18763281D01*
X8548657Y-18725186D01*
X8548657Y-18677567D01*
X8558181Y-18639471D01*
X8567705Y-18620424D01*
X8577229Y-18610900D01*
X8596276Y-18601376D01*
X8748657Y-18782329D02*
X8758181Y-18791852D01*
X8748657Y-18801376D01*
X8739133Y-18791852D01*
X8748657Y-18782329D01*
X8748657Y-18801376D01*
X8881990Y-18601376D02*
X8901038Y-18601376D01*
X8920086Y-18610900D01*
X8929610Y-18620424D01*
X8939133Y-18639471D01*
X8948657Y-18677567D01*
X8948657Y-18725186D01*
X8939133Y-18763281D01*
X8929610Y-18782329D01*
X8920086Y-18791852D01*
X8901038Y-18801376D01*
X8881990Y-18801376D01*
X8862943Y-18791852D01*
X8853419Y-18782329D01*
X8843895Y-18763281D01*
X8834371Y-18725186D01*
X8834371Y-18677567D01*
X8843895Y-18639471D01*
X8853419Y-18620424D01*
X8862943Y-18610900D01*
X8881990Y-18601376D01*
X9129610Y-18601376D02*
X9034371Y-18601376D01*
X9024848Y-18696614D01*
X9034371Y-18687090D01*
X9053419Y-18677567D01*
X9101038Y-18677567D01*
X9120086Y-18687090D01*
X9129610Y-18696614D01*
X9139133Y-18715662D01*
X9139133Y-18763281D01*
X9129610Y-18782329D01*
X9120086Y-18791852D01*
X9101038Y-18801376D01*
X9053419Y-18801376D01*
X9034371Y-18791852D01*
X9024848Y-18782329D01*
X9329610Y-18801376D02*
X9215324Y-18801376D01*
X9272467Y-18801376D02*
X9272467Y-18601376D01*
X9253419Y-18629948D01*
X9234371Y-18648995D01*
X9215324Y-18658519D01*
X9405800Y-18620424D02*
X9415324Y-18610900D01*
X9434371Y-18601376D01*
X9481990Y-18601376D01*
X9501038Y-18610900D01*
X9510562Y-18620424D01*
X9520086Y-18639471D01*
X9520086Y-18658519D01*
X9510562Y-18687090D01*
X9396276Y-18801376D01*
X9520086Y-18801376D01*
X9596276Y-18601376D02*
X9596276Y-18639471D01*
X9672467Y-18601376D02*
X9672467Y-18639471D01*
X9967705Y-18877567D02*
X9958181Y-18868043D01*
X9939133Y-18839471D01*
X9929610Y-18820424D01*
X9920086Y-18791852D01*
X9910562Y-18744233D01*
X9910562Y-18706138D01*
X9920086Y-18658519D01*
X9929610Y-18629948D01*
X9939133Y-18610900D01*
X9958181Y-18582329D01*
X9967705Y-18572805D01*
X10081990Y-18601376D02*
X10101038Y-18601376D01*
X10120086Y-18610900D01*
X10129610Y-18620424D01*
X10139133Y-18639471D01*
X10148657Y-18677567D01*
X10148657Y-18725186D01*
X10139133Y-18763281D01*
X10129610Y-18782329D01*
X10120086Y-18791852D01*
X10101038Y-18801376D01*
X10081990Y-18801376D01*
X10062943Y-18791852D01*
X10053419Y-18782329D01*
X10043895Y-18763281D01*
X10034371Y-18725186D01*
X10034371Y-18677567D01*
X10043895Y-18639471D01*
X10053419Y-18620424D01*
X10062943Y-18610900D01*
X10081990Y-18601376D01*
X10386752Y-18801376D02*
X10386752Y-18601376D01*
X10472467Y-18801376D02*
X10472467Y-18696614D01*
X10462943Y-18677567D01*
X10443895Y-18668043D01*
X10415324Y-18668043D01*
X10396276Y-18677567D01*
X10386752Y-18687090D01*
X10596276Y-18801376D02*
X10577229Y-18791852D01*
X10567705Y-18782329D01*
X10558181Y-18763281D01*
X10558181Y-18706138D01*
X10567705Y-18687090D01*
X10577229Y-18677567D01*
X10596276Y-18668043D01*
X10624848Y-18668043D01*
X10643895Y-18677567D01*
X10653419Y-18687090D01*
X10662943Y-18706138D01*
X10662943Y-18763281D01*
X10653419Y-18782329D01*
X10643895Y-18791852D01*
X10624848Y-18801376D01*
X10596276Y-18801376D01*
X10777229Y-18801376D02*
X10758181Y-18791852D01*
X10748657Y-18772805D01*
X10748657Y-18601376D01*
X10929610Y-18791852D02*
X10910562Y-18801376D01*
X10872467Y-18801376D01*
X10853419Y-18791852D01*
X10843895Y-18772805D01*
X10843895Y-18696614D01*
X10853419Y-18677567D01*
X10872467Y-18668043D01*
X10910562Y-18668043D01*
X10929610Y-18677567D01*
X10939133Y-18696614D01*
X10939133Y-18715662D01*
X10843895Y-18734710D01*
X11015324Y-18791852D02*
X11034371Y-18801376D01*
X11072467Y-18801376D01*
X11091514Y-18791852D01*
X11101038Y-18772805D01*
X11101038Y-18763281D01*
X11091514Y-18744233D01*
X11072467Y-18734710D01*
X11043895Y-18734710D01*
X11024848Y-18725186D01*
X11015324Y-18706138D01*
X11015324Y-18696614D01*
X11024848Y-18677567D01*
X11043895Y-18668043D01*
X11072467Y-18668043D01*
X11091514Y-18677567D01*
X11339133Y-18725186D02*
X11491514Y-18725186D01*
X11415324Y-18801376D02*
X11415324Y-18648995D01*
X11720086Y-18601376D02*
X11843895Y-18601376D01*
X11777228Y-18677567D01*
X11805800Y-18677567D01*
X11824848Y-18687090D01*
X11834371Y-18696614D01*
X11843895Y-18715662D01*
X11843895Y-18763281D01*
X11834371Y-18782329D01*
X11824848Y-18791852D01*
X11805800Y-18801376D01*
X11748657Y-18801376D01*
X11729609Y-18791852D01*
X11720086Y-18782329D01*
X12072467Y-18791852D02*
X12091514Y-18801376D01*
X12129609Y-18801376D01*
X12148657Y-18791852D01*
X12158181Y-18772805D01*
X12158181Y-18763281D01*
X12148657Y-18744233D01*
X12129609Y-18734710D01*
X12101038Y-18734710D01*
X12081990Y-18725186D01*
X12072467Y-18706138D01*
X12072467Y-18696614D01*
X12081990Y-18677567D01*
X12101038Y-18668043D01*
X12129609Y-18668043D01*
X12148657Y-18677567D01*
X12272467Y-18801376D02*
X12253419Y-18791852D01*
X12243895Y-18772805D01*
X12243895Y-18601376D01*
X12377228Y-18801376D02*
X12358181Y-18791852D01*
X12348657Y-18782329D01*
X12339133Y-18763281D01*
X12339133Y-18706138D01*
X12348657Y-18687090D01*
X12358181Y-18677567D01*
X12377228Y-18668043D01*
X12405800Y-18668043D01*
X12424848Y-18677567D01*
X12434371Y-18687090D01*
X12443895Y-18706138D01*
X12443895Y-18763281D01*
X12434371Y-18782329D01*
X12424848Y-18791852D01*
X12405800Y-18801376D01*
X12377228Y-18801376D01*
X12501038Y-18668043D02*
X12577228Y-18668043D01*
X12529609Y-18601376D02*
X12529609Y-18772805D01*
X12539133Y-18791852D01*
X12558181Y-18801376D01*
X12577228Y-18801376D01*
X12634371Y-18791852D02*
X12653419Y-18801376D01*
X12691514Y-18801376D01*
X12710562Y-18791852D01*
X12720086Y-18772805D01*
X12720086Y-18763281D01*
X12710562Y-18744233D01*
X12691514Y-18734710D01*
X12662943Y-18734710D01*
X12643895Y-18725186D01*
X12634371Y-18706138D01*
X12634371Y-18696614D01*
X12643895Y-18677567D01*
X12662943Y-18668043D01*
X12691514Y-18668043D01*
X12710562Y-18677567D01*
X12786752Y-18877567D02*
X12796276Y-18868043D01*
X12815324Y-18839471D01*
X12824848Y-18820424D01*
X12834371Y-18791852D01*
X12843895Y-18744233D01*
X12843895Y-18706138D01*
X12834371Y-18658519D01*
X12824848Y-18629948D01*
X12815324Y-18610900D01*
X12796276Y-18582329D01*
X12786752Y-18572805D01*
D20*
X6230800Y-18892400D02*
X6395800Y-19057400D01*
X6395800Y-18892400D02*
X6230800Y-19057400D01*
X6313300Y-19057400D02*
X6395800Y-18974900D01*
X6313300Y-18892400D01*
X6230800Y-18974900D01*
X6313300Y-19057400D01*
D11*
X6758181Y-19065376D02*
X6643895Y-19065376D01*
X6701038Y-19065376D02*
X6701038Y-18865376D01*
X6681990Y-18893948D01*
X6662943Y-18912995D01*
X6643895Y-18922519D01*
X6843895Y-19046329D02*
X6853419Y-19055852D01*
X6843895Y-19065376D01*
X6834371Y-19055852D01*
X6843895Y-19046329D01*
X6843895Y-19065376D01*
X7024848Y-18865376D02*
X6986752Y-18865376D01*
X6967705Y-18874900D01*
X6958181Y-18884424D01*
X6939133Y-18912995D01*
X6929609Y-18951090D01*
X6929609Y-19027281D01*
X6939133Y-19046329D01*
X6948657Y-19055852D01*
X6967705Y-19065376D01*
X7005800Y-19065376D01*
X7024848Y-19055852D01*
X7034371Y-19046329D01*
X7043895Y-19027281D01*
X7043895Y-18979662D01*
X7034371Y-18960614D01*
X7024848Y-18951090D01*
X7005800Y-18941567D01*
X6967705Y-18941567D01*
X6948657Y-18951090D01*
X6939133Y-18960614D01*
X6929609Y-18979662D01*
X7224848Y-18865376D02*
X7129609Y-18865376D01*
X7120086Y-18960614D01*
X7129609Y-18951090D01*
X7148657Y-18941567D01*
X7196276Y-18941567D01*
X7215324Y-18951090D01*
X7224848Y-18960614D01*
X7234371Y-18979662D01*
X7234371Y-19027281D01*
X7224848Y-19046329D01*
X7215324Y-19055852D01*
X7196276Y-19065376D01*
X7148657Y-19065376D01*
X7129609Y-19055852D01*
X7120086Y-19046329D01*
X7358181Y-18865376D02*
X7377228Y-18865376D01*
X7396276Y-18874900D01*
X7405800Y-18884424D01*
X7415324Y-18903471D01*
X7424848Y-18941567D01*
X7424848Y-18989186D01*
X7415324Y-19027281D01*
X7405800Y-19046329D01*
X7396276Y-19055852D01*
X7377228Y-19065376D01*
X7358181Y-19065376D01*
X7339133Y-19055852D01*
X7329609Y-19046329D01*
X7320086Y-19027281D01*
X7310562Y-18989186D01*
X7310562Y-18941567D01*
X7320086Y-18903471D01*
X7329609Y-18884424D01*
X7339133Y-18874900D01*
X7358181Y-18865376D01*
X7510562Y-19065376D02*
X7510562Y-18932043D01*
X7510562Y-18951090D02*
X7520086Y-18941567D01*
X7539133Y-18932043D01*
X7567705Y-18932043D01*
X7586752Y-18941567D01*
X7596276Y-18960614D01*
X7596276Y-19065376D01*
X7596276Y-18960614D02*
X7605800Y-18941567D01*
X7624848Y-18932043D01*
X7653419Y-18932043D01*
X7672467Y-18941567D01*
X7681990Y-18960614D01*
X7681990Y-19065376D01*
X7777228Y-19065376D02*
X7777228Y-18932043D01*
X7777228Y-18951090D02*
X7786752Y-18941567D01*
X7805800Y-18932043D01*
X7834371Y-18932043D01*
X7853419Y-18941567D01*
X7862943Y-18960614D01*
X7862943Y-19065376D01*
X7862943Y-18960614D02*
X7872467Y-18941567D01*
X7891514Y-18932043D01*
X7920086Y-18932043D01*
X7939133Y-18941567D01*
X7948657Y-18960614D01*
X7948657Y-19065376D01*
X8339133Y-18855852D02*
X8167705Y-19112995D01*
X8596276Y-18865376D02*
X8615324Y-18865376D01*
X8634371Y-18874900D01*
X8643895Y-18884424D01*
X8653419Y-18903471D01*
X8662943Y-18941567D01*
X8662943Y-18989186D01*
X8653419Y-19027281D01*
X8643895Y-19046329D01*
X8634371Y-19055852D01*
X8615324Y-19065376D01*
X8596276Y-19065376D01*
X8577229Y-19055852D01*
X8567705Y-19046329D01*
X8558181Y-19027281D01*
X8548657Y-18989186D01*
X8548657Y-18941567D01*
X8558181Y-18903471D01*
X8567705Y-18884424D01*
X8577229Y-18874900D01*
X8596276Y-18865376D01*
X8748657Y-19046329D02*
X8758181Y-19055852D01*
X8748657Y-19065376D01*
X8739133Y-19055852D01*
X8748657Y-19046329D01*
X8748657Y-19065376D01*
X8881990Y-18865376D02*
X8901038Y-18865376D01*
X8920086Y-18874900D01*
X8929610Y-18884424D01*
X8939133Y-18903471D01*
X8948657Y-18941567D01*
X8948657Y-18989186D01*
X8939133Y-19027281D01*
X8929610Y-19046329D01*
X8920086Y-19055852D01*
X8901038Y-19065376D01*
X8881990Y-19065376D01*
X8862943Y-19055852D01*
X8853419Y-19046329D01*
X8843895Y-19027281D01*
X8834371Y-18989186D01*
X8834371Y-18941567D01*
X8843895Y-18903471D01*
X8853419Y-18884424D01*
X8862943Y-18874900D01*
X8881990Y-18865376D01*
X9120086Y-18865376D02*
X9081990Y-18865376D01*
X9062943Y-18874900D01*
X9053419Y-18884424D01*
X9034371Y-18912995D01*
X9024848Y-18951090D01*
X9024848Y-19027281D01*
X9034371Y-19046329D01*
X9043895Y-19055852D01*
X9062943Y-19065376D01*
X9101038Y-19065376D01*
X9120086Y-19055852D01*
X9129610Y-19046329D01*
X9139133Y-19027281D01*
X9139133Y-18979662D01*
X9129610Y-18960614D01*
X9120086Y-18951090D01*
X9101038Y-18941567D01*
X9062943Y-18941567D01*
X9043895Y-18951090D01*
X9034371Y-18960614D01*
X9024848Y-18979662D01*
X9320086Y-18865376D02*
X9224848Y-18865376D01*
X9215324Y-18960614D01*
X9224848Y-18951090D01*
X9243895Y-18941567D01*
X9291514Y-18941567D01*
X9310562Y-18951090D01*
X9320086Y-18960614D01*
X9329610Y-18979662D01*
X9329610Y-19027281D01*
X9320086Y-19046329D01*
X9310562Y-19055852D01*
X9291514Y-19065376D01*
X9243895Y-19065376D01*
X9224848Y-19055852D01*
X9215324Y-19046329D01*
X9453419Y-18865376D02*
X9472467Y-18865376D01*
X9491514Y-18874900D01*
X9501038Y-18884424D01*
X9510562Y-18903471D01*
X9520086Y-18941567D01*
X9520086Y-18989186D01*
X9510562Y-19027281D01*
X9501038Y-19046329D01*
X9491514Y-19055852D01*
X9472467Y-19065376D01*
X9453419Y-19065376D01*
X9434371Y-19055852D01*
X9424848Y-19046329D01*
X9415324Y-19027281D01*
X9405800Y-18989186D01*
X9405800Y-18941567D01*
X9415324Y-18903471D01*
X9424848Y-18884424D01*
X9434371Y-18874900D01*
X9453419Y-18865376D01*
X9596276Y-18865376D02*
X9596276Y-18903471D01*
X9672467Y-18865376D02*
X9672467Y-18903471D01*
X9967705Y-19141567D02*
X9958181Y-19132043D01*
X9939133Y-19103471D01*
X9929610Y-19084424D01*
X9920086Y-19055852D01*
X9910562Y-19008233D01*
X9910562Y-18970138D01*
X9920086Y-18922519D01*
X9929610Y-18893948D01*
X9939133Y-18874900D01*
X9958181Y-18846329D01*
X9967705Y-18836805D01*
X10129610Y-18865376D02*
X10091514Y-18865376D01*
X10072467Y-18874900D01*
X10062943Y-18884424D01*
X10043895Y-18912995D01*
X10034371Y-18951090D01*
X10034371Y-19027281D01*
X10043895Y-19046329D01*
X10053419Y-19055852D01*
X10072467Y-19065376D01*
X10110562Y-19065376D01*
X10129610Y-19055852D01*
X10139133Y-19046329D01*
X10148657Y-19027281D01*
X10148657Y-18979662D01*
X10139133Y-18960614D01*
X10129610Y-18951090D01*
X10110562Y-18941567D01*
X10072467Y-18941567D01*
X10053419Y-18951090D01*
X10043895Y-18960614D01*
X10034371Y-18979662D01*
X10262943Y-18951090D02*
X10243895Y-18941567D01*
X10234371Y-18932043D01*
X10224848Y-18912995D01*
X10224848Y-18903471D01*
X10234371Y-18884424D01*
X10243895Y-18874900D01*
X10262943Y-18865376D01*
X10301038Y-18865376D01*
X10320086Y-18874900D01*
X10329610Y-18884424D01*
X10339133Y-18903471D01*
X10339133Y-18912995D01*
X10329610Y-18932043D01*
X10320086Y-18941567D01*
X10301038Y-18951090D01*
X10262943Y-18951090D01*
X10243895Y-18960614D01*
X10234371Y-18970138D01*
X10224848Y-18989186D01*
X10224848Y-19027281D01*
X10234371Y-19046329D01*
X10243895Y-19055852D01*
X10262943Y-19065376D01*
X10301038Y-19065376D01*
X10320086Y-19055852D01*
X10329610Y-19046329D01*
X10339133Y-19027281D01*
X10339133Y-18989186D01*
X10329610Y-18970138D01*
X10320086Y-18960614D01*
X10301038Y-18951090D01*
X10577229Y-19065376D02*
X10577229Y-18865376D01*
X10662943Y-19065376D02*
X10662943Y-18960614D01*
X10653419Y-18941567D01*
X10634371Y-18932043D01*
X10605800Y-18932043D01*
X10586752Y-18941567D01*
X10577229Y-18951090D01*
X10786752Y-19065376D02*
X10767705Y-19055852D01*
X10758181Y-19046329D01*
X10748657Y-19027281D01*
X10748657Y-18970138D01*
X10758181Y-18951090D01*
X10767705Y-18941567D01*
X10786752Y-18932043D01*
X10815324Y-18932043D01*
X10834371Y-18941567D01*
X10843895Y-18951090D01*
X10853419Y-18970138D01*
X10853419Y-19027281D01*
X10843895Y-19046329D01*
X10834371Y-19055852D01*
X10815324Y-19065376D01*
X10786752Y-19065376D01*
X10967705Y-19065376D02*
X10948657Y-19055852D01*
X10939133Y-19036805D01*
X10939133Y-18865376D01*
X11120086Y-19055852D02*
X11101038Y-19065376D01*
X11062943Y-19065376D01*
X11043895Y-19055852D01*
X11034371Y-19036805D01*
X11034371Y-18960614D01*
X11043895Y-18941567D01*
X11062943Y-18932043D01*
X11101038Y-18932043D01*
X11120086Y-18941567D01*
X11129610Y-18960614D01*
X11129610Y-18979662D01*
X11034371Y-18998710D01*
X11205800Y-19055852D02*
X11224848Y-19065376D01*
X11262943Y-19065376D01*
X11281990Y-19055852D01*
X11291514Y-19036805D01*
X11291514Y-19027281D01*
X11281990Y-19008233D01*
X11262943Y-18998710D01*
X11234371Y-18998710D01*
X11215324Y-18989186D01*
X11205800Y-18970138D01*
X11205800Y-18960614D01*
X11215324Y-18941567D01*
X11234371Y-18932043D01*
X11262943Y-18932043D01*
X11281990Y-18941567D01*
X11358181Y-19141567D02*
X11367705Y-19132043D01*
X11386752Y-19103471D01*
X11396276Y-19084424D01*
X11405800Y-19055852D01*
X11415324Y-19008233D01*
X11415324Y-18970138D01*
X11405800Y-18922519D01*
X11396276Y-18893948D01*
X11386752Y-18874900D01*
X11367705Y-18846329D01*
X11358181Y-18836805D01*
D21*
X6310800Y-19174900D02*
X6310800Y-19344900D01*
X6225800Y-19259900D02*
X6395800Y-19259900D01*
X6395800Y-19259900D02*
G75*
G03*
X6395800Y-19259900I-85000J0D01*
G01*
D11*
X6758181Y-19350376D02*
X6643895Y-19350376D01*
X6701038Y-19350376D02*
X6701038Y-19150376D01*
X6681990Y-19178948D01*
X6662943Y-19197995D01*
X6643895Y-19207519D01*
X6843895Y-19331329D02*
X6853419Y-19340852D01*
X6843895Y-19350376D01*
X6834371Y-19340852D01*
X6843895Y-19331329D01*
X6843895Y-19350376D01*
X6920086Y-19150376D02*
X7053419Y-19150376D01*
X6967705Y-19350376D01*
X7167705Y-19150376D02*
X7186752Y-19150376D01*
X7205800Y-19159900D01*
X7215324Y-19169424D01*
X7224848Y-19188471D01*
X7234371Y-19226567D01*
X7234371Y-19274186D01*
X7224848Y-19312281D01*
X7215324Y-19331329D01*
X7205800Y-19340852D01*
X7186752Y-19350376D01*
X7167705Y-19350376D01*
X7148657Y-19340852D01*
X7139133Y-19331329D01*
X7129609Y-19312281D01*
X7120086Y-19274186D01*
X7120086Y-19226567D01*
X7129609Y-19188471D01*
X7139133Y-19169424D01*
X7148657Y-19159900D01*
X7167705Y-19150376D01*
X7358181Y-19150376D02*
X7377228Y-19150376D01*
X7396276Y-19159900D01*
X7405800Y-19169424D01*
X7415324Y-19188471D01*
X7424848Y-19226567D01*
X7424848Y-19274186D01*
X7415324Y-19312281D01*
X7405800Y-19331329D01*
X7396276Y-19340852D01*
X7377228Y-19350376D01*
X7358181Y-19350376D01*
X7339133Y-19340852D01*
X7329609Y-19331329D01*
X7320086Y-19312281D01*
X7310562Y-19274186D01*
X7310562Y-19226567D01*
X7320086Y-19188471D01*
X7329609Y-19169424D01*
X7339133Y-19159900D01*
X7358181Y-19150376D01*
X7510562Y-19350376D02*
X7510562Y-19217043D01*
X7510562Y-19236090D02*
X7520086Y-19226567D01*
X7539133Y-19217043D01*
X7567705Y-19217043D01*
X7586752Y-19226567D01*
X7596276Y-19245614D01*
X7596276Y-19350376D01*
X7596276Y-19245614D02*
X7605800Y-19226567D01*
X7624848Y-19217043D01*
X7653419Y-19217043D01*
X7672467Y-19226567D01*
X7681990Y-19245614D01*
X7681990Y-19350376D01*
X7777228Y-19350376D02*
X7777228Y-19217043D01*
X7777228Y-19236090D02*
X7786752Y-19226567D01*
X7805800Y-19217043D01*
X7834371Y-19217043D01*
X7853419Y-19226567D01*
X7862943Y-19245614D01*
X7862943Y-19350376D01*
X7862943Y-19245614D02*
X7872467Y-19226567D01*
X7891514Y-19217043D01*
X7920086Y-19217043D01*
X7939133Y-19226567D01*
X7948657Y-19245614D01*
X7948657Y-19350376D01*
X8339133Y-19140852D02*
X8167705Y-19397995D01*
X8596276Y-19150376D02*
X8615324Y-19150376D01*
X8634371Y-19159900D01*
X8643895Y-19169424D01*
X8653419Y-19188471D01*
X8662943Y-19226567D01*
X8662943Y-19274186D01*
X8653419Y-19312281D01*
X8643895Y-19331329D01*
X8634371Y-19340852D01*
X8615324Y-19350376D01*
X8596276Y-19350376D01*
X8577229Y-19340852D01*
X8567705Y-19331329D01*
X8558181Y-19312281D01*
X8548657Y-19274186D01*
X8548657Y-19226567D01*
X8558181Y-19188471D01*
X8567705Y-19169424D01*
X8577229Y-19159900D01*
X8596276Y-19150376D01*
X8748657Y-19331329D02*
X8758181Y-19340852D01*
X8748657Y-19350376D01*
X8739133Y-19340852D01*
X8748657Y-19331329D01*
X8748657Y-19350376D01*
X8881990Y-19150376D02*
X8901038Y-19150376D01*
X8920086Y-19159900D01*
X8929610Y-19169424D01*
X8939133Y-19188471D01*
X8948657Y-19226567D01*
X8948657Y-19274186D01*
X8939133Y-19312281D01*
X8929610Y-19331329D01*
X8920086Y-19340852D01*
X8901038Y-19350376D01*
X8881990Y-19350376D01*
X8862943Y-19340852D01*
X8853419Y-19331329D01*
X8843895Y-19312281D01*
X8834371Y-19274186D01*
X8834371Y-19226567D01*
X8843895Y-19188471D01*
X8853419Y-19169424D01*
X8862943Y-19159900D01*
X8881990Y-19150376D01*
X9120086Y-19150376D02*
X9081990Y-19150376D01*
X9062943Y-19159900D01*
X9053419Y-19169424D01*
X9034371Y-19197995D01*
X9024848Y-19236090D01*
X9024848Y-19312281D01*
X9034371Y-19331329D01*
X9043895Y-19340852D01*
X9062943Y-19350376D01*
X9101038Y-19350376D01*
X9120086Y-19340852D01*
X9129610Y-19331329D01*
X9139133Y-19312281D01*
X9139133Y-19264662D01*
X9129610Y-19245614D01*
X9120086Y-19236090D01*
X9101038Y-19226567D01*
X9062943Y-19226567D01*
X9043895Y-19236090D01*
X9034371Y-19245614D01*
X9024848Y-19264662D01*
X9310562Y-19150376D02*
X9272467Y-19150376D01*
X9253419Y-19159900D01*
X9243895Y-19169424D01*
X9224848Y-19197995D01*
X9215324Y-19236090D01*
X9215324Y-19312281D01*
X9224848Y-19331329D01*
X9234371Y-19340852D01*
X9253419Y-19350376D01*
X9291514Y-19350376D01*
X9310562Y-19340852D01*
X9320086Y-19331329D01*
X9329610Y-19312281D01*
X9329610Y-19264662D01*
X9320086Y-19245614D01*
X9310562Y-19236090D01*
X9291514Y-19226567D01*
X9253419Y-19226567D01*
X9234371Y-19236090D01*
X9224848Y-19245614D01*
X9215324Y-19264662D01*
X9424848Y-19350376D02*
X9462943Y-19350376D01*
X9481990Y-19340852D01*
X9491514Y-19331329D01*
X9510562Y-19302757D01*
X9520086Y-19264662D01*
X9520086Y-19188471D01*
X9510562Y-19169424D01*
X9501038Y-19159900D01*
X9481990Y-19150376D01*
X9443895Y-19150376D01*
X9424848Y-19159900D01*
X9415324Y-19169424D01*
X9405800Y-19188471D01*
X9405800Y-19236090D01*
X9415324Y-19255138D01*
X9424848Y-19264662D01*
X9443895Y-19274186D01*
X9481990Y-19274186D01*
X9501038Y-19264662D01*
X9510562Y-19255138D01*
X9520086Y-19236090D01*
X9596276Y-19150376D02*
X9596276Y-19188471D01*
X9672467Y-19150376D02*
X9672467Y-19188471D01*
X9967705Y-19426567D02*
X9958181Y-19417043D01*
X9939133Y-19388471D01*
X9929610Y-19369424D01*
X9920086Y-19340852D01*
X9910562Y-19293233D01*
X9910562Y-19255138D01*
X9920086Y-19207519D01*
X9929610Y-19178948D01*
X9939133Y-19159900D01*
X9958181Y-19131329D01*
X9967705Y-19121805D01*
X10129610Y-19217043D02*
X10129610Y-19350376D01*
X10081990Y-19140852D02*
X10034371Y-19283710D01*
X10158181Y-19283710D01*
X10386752Y-19350376D02*
X10386752Y-19150376D01*
X10472467Y-19350376D02*
X10472467Y-19245614D01*
X10462943Y-19226567D01*
X10443895Y-19217043D01*
X10415324Y-19217043D01*
X10396276Y-19226567D01*
X10386752Y-19236090D01*
X10596276Y-19350376D02*
X10577229Y-19340852D01*
X10567705Y-19331329D01*
X10558181Y-19312281D01*
X10558181Y-19255138D01*
X10567705Y-19236090D01*
X10577229Y-19226567D01*
X10596276Y-19217043D01*
X10624848Y-19217043D01*
X10643895Y-19226567D01*
X10653419Y-19236090D01*
X10662943Y-19255138D01*
X10662943Y-19312281D01*
X10653419Y-19331329D01*
X10643895Y-19340852D01*
X10624848Y-19350376D01*
X10596276Y-19350376D01*
X10777229Y-19350376D02*
X10758181Y-19340852D01*
X10748657Y-19321805D01*
X10748657Y-19150376D01*
X10929610Y-19340852D02*
X10910562Y-19350376D01*
X10872467Y-19350376D01*
X10853419Y-19340852D01*
X10843895Y-19321805D01*
X10843895Y-19245614D01*
X10853419Y-19226567D01*
X10872467Y-19217043D01*
X10910562Y-19217043D01*
X10929610Y-19226567D01*
X10939133Y-19245614D01*
X10939133Y-19264662D01*
X10843895Y-19283710D01*
X11015324Y-19340852D02*
X11034371Y-19350376D01*
X11072467Y-19350376D01*
X11091514Y-19340852D01*
X11101038Y-19321805D01*
X11101038Y-19312281D01*
X11091514Y-19293233D01*
X11072467Y-19283710D01*
X11043895Y-19283710D01*
X11024848Y-19274186D01*
X11015324Y-19255138D01*
X11015324Y-19245614D01*
X11024848Y-19226567D01*
X11043895Y-19217043D01*
X11072467Y-19217043D01*
X11091514Y-19226567D01*
X11167705Y-19426567D02*
X11177229Y-19417043D01*
X11196276Y-19388471D01*
X11205800Y-19369424D01*
X11215324Y-19340852D01*
X11224848Y-19293233D01*
X11224848Y-19255138D01*
X11215324Y-19207519D01*
X11205800Y-19178948D01*
X11196276Y-19159900D01*
X11177229Y-19131329D01*
X11167705Y-19121805D01*
M02*
