G04 #@! TF.GenerationSoftware,KiCad,Pcbnew,(6.0.4)*
G04 #@! TF.CreationDate,2022-05-09T00:45:17-06:00*
G04 #@! TF.ProjectId,PB_16-6v1_SMD.kicad_pcb,50425f31-362d-4367-9631-5f534d442e6b,rev?*
G04 #@! TF.SameCoordinates,Original*
G04 #@! TF.FileFunction,Paste,Top*
G04 #@! TF.FilePolarity,Positive*
%FSLAX46Y46*%
G04 Gerber Fmt 4.6, Leading zero omitted, Abs format (unit mm)*
G04 Created by KiCad (PCBNEW (6.0.4)) date 2022-05-09 00:45:17*
%MOMM*%
%LPD*%
G01*
G04 APERTURE LIST*
G04 Aperture macros list*
%AMRoundRect*
0 Rectangle with rounded corners*
0 $1 Rounding radius*
0 $2 $3 $4 $5 $6 $7 $8 $9 X,Y pos of 4 corners*
0 Add a 4 corners polygon primitive as box body*
4,1,4,$2,$3,$4,$5,$6,$7,$8,$9,$2,$3,0*
0 Add four circle primitives for the rounded corners*
1,1,$1+$1,$2,$3*
1,1,$1+$1,$4,$5*
1,1,$1+$1,$6,$7*
1,1,$1+$1,$8,$9*
0 Add four rect primitives between the rounded corners*
20,1,$1+$1,$2,$3,$4,$5,0*
20,1,$1+$1,$4,$5,$6,$7,0*
20,1,$1+$1,$6,$7,$8,$9,0*
20,1,$1+$1,$8,$9,$2,$3,0*%
G04 Aperture macros list end*
%ADD10RoundRect,0.250000X-0.475000X0.250000X-0.475000X-0.250000X0.475000X-0.250000X0.475000X0.250000X0*%
%ADD11RoundRect,0.243750X-0.456250X0.243750X-0.456250X-0.243750X0.456250X-0.243750X0.456250X0.243750X0*%
%ADD12R,0.900000X1.200000*%
%ADD13RoundRect,0.250000X-0.262500X-0.450000X0.262500X-0.450000X0.262500X0.450000X-0.262500X0.450000X0*%
%ADD14RoundRect,0.150000X-0.150000X0.825000X-0.150000X-0.825000X0.150000X-0.825000X0.150000X0.825000X0*%
%ADD15RoundRect,0.250000X0.250000X0.475000X-0.250000X0.475000X-0.250000X-0.475000X0.250000X-0.475000X0*%
%ADD16RoundRect,0.243750X0.243750X0.456250X-0.243750X0.456250X-0.243750X-0.456250X0.243750X-0.456250X0*%
%ADD17RoundRect,0.250000X0.475000X-0.250000X0.475000X0.250000X-0.475000X0.250000X-0.475000X-0.250000X0*%
%ADD18RoundRect,0.250000X0.450000X-0.262500X0.450000X0.262500X-0.450000X0.262500X-0.450000X-0.262500X0*%
%ADD19R,0.626843X1.658716*%
%ADD20RoundRect,0.313422X0.000001X0.515936X0.000001X-0.515936X-0.000001X-0.515936X-0.000001X0.515936X0*%
%ADD21RoundRect,0.150000X0.512500X0.150000X-0.512500X0.150000X-0.512500X-0.150000X0.512500X-0.150000X0*%
%ADD22RoundRect,0.042000X-0.943000X-0.258000X0.943000X-0.258000X0.943000X0.258000X-0.943000X0.258000X0*%
%ADD23RoundRect,0.250000X0.262500X0.450000X-0.262500X0.450000X-0.262500X-0.450000X0.262500X-0.450000X0*%
%ADD24RoundRect,0.100000X-0.100000X0.637500X-0.100000X-0.637500X0.100000X-0.637500X0.100000X0.637500X0*%
%ADD25RoundRect,0.250000X1.500000X0.550000X-1.500000X0.550000X-1.500000X-0.550000X1.500000X-0.550000X0*%
%ADD26RoundRect,0.250000X-0.450000X0.262500X-0.450000X-0.262500X0.450000X-0.262500X0.450000X0.262500X0*%
%ADD27RoundRect,0.042000X0.943000X0.258000X-0.943000X0.258000X-0.943000X-0.258000X0.943000X-0.258000X0*%
%ADD28R,0.600000X1.050000*%
G04 APERTURE END LIST*
D10*
X173307600Y-61330800D03*
X173307600Y-63230800D03*
D11*
X198526400Y-133782200D03*
X198526400Y-135657200D03*
D12*
X191644000Y-106934000D03*
X194944000Y-106934000D03*
X197485999Y-116840000D03*
X200785999Y-116840000D03*
D13*
X104074000Y-55880000D03*
X105899000Y-55880000D03*
D10*
X98735200Y-94554000D03*
X98735200Y-96454000D03*
D14*
X135509000Y-82869000D03*
X134239000Y-82869000D03*
X132969000Y-82869000D03*
X131699000Y-82869000D03*
X131699000Y-87819000D03*
X132969000Y-87819000D03*
X134239000Y-87819000D03*
X135509000Y-87819000D03*
D15*
X169606000Y-70612000D03*
X167706000Y-70612000D03*
D16*
X200073500Y-109728000D03*
X198198500Y-109728000D03*
D10*
X98735200Y-60822800D03*
X98735200Y-62722800D03*
D15*
X106040000Y-61976000D03*
X104140000Y-61976000D03*
D10*
X98735200Y-77586800D03*
X98735200Y-79486800D03*
D17*
X155448000Y-109728000D03*
X155448000Y-107828000D03*
X128524000Y-109728000D03*
X128524000Y-107828000D03*
D18*
X198628000Y-140612500D03*
X198628000Y-138787500D03*
D19*
X199416000Y-120432227D03*
D20*
X197585999Y-120432227D03*
X198500999Y-122385641D03*
D21*
X118541500Y-64295000D03*
X118541500Y-63345000D03*
X118541500Y-62395000D03*
X116266500Y-62395000D03*
X116266500Y-63345000D03*
X116266500Y-64295000D03*
D22*
X177473000Y-74599800D03*
X177473000Y-75869800D03*
X177473000Y-77139800D03*
X177473000Y-78409800D03*
X177473000Y-79679800D03*
X177473000Y-80949800D03*
X177473000Y-82219800D03*
X177473000Y-83489800D03*
X182423000Y-83489800D03*
X182423000Y-82219800D03*
X182423000Y-80949800D03*
X182423000Y-79679800D03*
X182423000Y-78409800D03*
X182423000Y-77139800D03*
X182423000Y-75869800D03*
X182423000Y-74599800D03*
D23*
X145057500Y-65659000D03*
X143232500Y-65659000D03*
D24*
X152277000Y-106357500D03*
X151627000Y-106357500D03*
X150977000Y-106357500D03*
X150327000Y-106357500D03*
X149677000Y-106357500D03*
X149027000Y-106357500D03*
X148377000Y-106357500D03*
X147727000Y-106357500D03*
X147077000Y-106357500D03*
X146427000Y-106357500D03*
X146427000Y-112082500D03*
X147077000Y-112082500D03*
X147727000Y-112082500D03*
X148377000Y-112082500D03*
X149027000Y-112082500D03*
X149677000Y-112082500D03*
X150327000Y-112082500D03*
X150977000Y-112082500D03*
X151627000Y-112082500D03*
X152277000Y-112082500D03*
D18*
X73152000Y-142033000D03*
X73152000Y-140208000D03*
D25*
X165641000Y-101473000D03*
X160241000Y-101473000D03*
D23*
X105941500Y-58801000D03*
X104116500Y-58801000D03*
D24*
X124845000Y-106357500D03*
X124195000Y-106357500D03*
X123545000Y-106357500D03*
X122895000Y-106357500D03*
X122245000Y-106357500D03*
X121595000Y-106357500D03*
X120945000Y-106357500D03*
X120295000Y-106357500D03*
X119645000Y-106357500D03*
X118995000Y-106357500D03*
X118995000Y-112082500D03*
X119645000Y-112082500D03*
X120295000Y-112082500D03*
X120945000Y-112082500D03*
X121595000Y-112082500D03*
X122245000Y-112082500D03*
X122895000Y-112082500D03*
X123545000Y-112082500D03*
X124195000Y-112082500D03*
X124845000Y-112082500D03*
D18*
X124968000Y-87780500D03*
X124968000Y-85955500D03*
D22*
X177589000Y-57835800D03*
X177589000Y-59105800D03*
X177589000Y-60375800D03*
X177589000Y-61645800D03*
X177589000Y-62915800D03*
X177589000Y-64185800D03*
X177589000Y-65455800D03*
X177589000Y-66725800D03*
X182539000Y-66725800D03*
X182539000Y-65455800D03*
X182539000Y-64185800D03*
X182539000Y-62915800D03*
X182539000Y-61645800D03*
X182539000Y-60375800D03*
X182539000Y-59105800D03*
X182539000Y-57835800D03*
D10*
X138684000Y-85984000D03*
X138684000Y-87884000D03*
X172582000Y-95062000D03*
X172582000Y-96962000D03*
D23*
X200048499Y-114300000D03*
X198223499Y-114300000D03*
D26*
X204216000Y-109427000D03*
X204216000Y-111252000D03*
D10*
X172582000Y-78094800D03*
X172582000Y-79994800D03*
D27*
X93915000Y-66217800D03*
X93915000Y-64947800D03*
X93915000Y-63677800D03*
X93915000Y-62407800D03*
X93915000Y-61137800D03*
X93915000Y-59867800D03*
X93915000Y-58597800D03*
X93915000Y-57327800D03*
X88965000Y-57327800D03*
X88965000Y-58597800D03*
X88965000Y-59867800D03*
X88965000Y-61137800D03*
X88965000Y-62407800D03*
X88965000Y-63677800D03*
X88965000Y-64947800D03*
X88965000Y-66217800D03*
D28*
X149286000Y-62658000D03*
X148336000Y-62658000D03*
X147386000Y-62658000D03*
X147386000Y-65358000D03*
X149286000Y-65358000D03*
D27*
X93915000Y-82981800D03*
X93915000Y-81711800D03*
X93915000Y-80441800D03*
X93915000Y-79171800D03*
X93915000Y-77901800D03*
X93915000Y-76631800D03*
X93915000Y-75361800D03*
X93915000Y-74091800D03*
X88965000Y-74091800D03*
X88965000Y-75361800D03*
X88965000Y-76631800D03*
X88965000Y-77901800D03*
X88965000Y-79171800D03*
X88965000Y-80441800D03*
X88965000Y-81711800D03*
X88965000Y-82981800D03*
D11*
X73197000Y-134393700D03*
X73197000Y-136268700D03*
D22*
X177473000Y-91567000D03*
X177473000Y-92837000D03*
X177473000Y-94107000D03*
X177473000Y-95377000D03*
X177473000Y-96647000D03*
X177473000Y-97917000D03*
X177473000Y-99187000D03*
X177473000Y-100457000D03*
X182423000Y-100457000D03*
X182423000Y-99187000D03*
X182423000Y-97917000D03*
X182423000Y-96647000D03*
X182423000Y-95377000D03*
X182423000Y-94107000D03*
X182423000Y-92837000D03*
X182423000Y-91567000D03*
D26*
X128524000Y-85955500D03*
X128524000Y-87780500D03*
D27*
X93915000Y-99949000D03*
X93915000Y-98679000D03*
X93915000Y-97409000D03*
X93915000Y-96139000D03*
X93915000Y-94869000D03*
X93915000Y-93599000D03*
X93915000Y-92329000D03*
X93915000Y-91059000D03*
X88965000Y-91059000D03*
X88965000Y-92329000D03*
X88965000Y-93599000D03*
X88965000Y-94869000D03*
X88965000Y-96139000D03*
X88965000Y-97409000D03*
X88965000Y-98679000D03*
X88965000Y-99949000D03*
M02*
