M48
; DRILL file {KiCad (6.0.4)} date Mon May  9 00:45:21 2022
; FORMAT={-:-/ absolute / metric / decimal}
; #@! TF.CreationDate,2022-05-09T00:45:21-06:00
; #@! TF.GenerationSoftware,Kicad,Pcbnew,(6.0.4)
; #@! TF.FileFunction,Plated,1,2,PTH
FMAT,2
METRIC
; #@! TA.AperFunction,Plated,PTH,ViaDrill
T1C0.400
; #@! TA.AperFunction,Plated,PTH,ComponentDrill
T2C0.760
; #@! TA.AperFunction,Plated,PTH,ComponentDrill
T3C0.800
; #@! TA.AperFunction,Plated,PTH,ComponentDrill
T4C0.900
; #@! TA.AperFunction,Plated,PTH,ComponentDrill
T5C0.950
; #@! TA.AperFunction,Plated,PTH,ComponentDrill
T6C1.000
; #@! TA.AperFunction,Plated,PTH,ComponentDrill
T7C1.200
; #@! TA.AperFunction,Plated,PTH,ComponentDrill
T8C1.300
; #@! TA.AperFunction,Plated,PTH,ComponentDrill
T9C1.650
; #@! TA.AperFunction,Plated,PTH,ComponentDrill
T10C1.700
%
G90
G05
T1
X68.453Y-120.269
X69.088Y-105.156
X69.85Y-124.079
X70.739Y-130.683
X71.628Y-117.221
X72.136Y-68.834
X72.136Y-84.709
X72.263Y-99.568
X72.39Y-74.041
X72.39Y-91.186
X72.644Y-57.658
X73.025Y-109.728
X73.025Y-116.078
X75.946Y-130.048
X76.708Y-106.172
X77.089Y-65.532
X77.089Y-82.042
X77.343Y-71.755
X77.597Y-102.362
X77.851Y-88.519
X80.137Y-120.777
X80.518Y-157.353
X82.296Y-141.478
X83.82Y-134.747
X84.074Y-114.681
X85.217Y-120.65
X85.344Y-157.353
X85.471Y-148.59
X88.9Y-114.427
X90.932Y-94.488
X91.313Y-60.706
X91.313Y-77.597
X91.44Y-91.059
X91.567Y-57.531
X91.948Y-62.611
X91.948Y-96.139
X92.037Y-74.295
X92.075Y-79.248
X93.091Y-115.697
X93.472Y-72.898
X93.599Y-87.249
X93.726Y-85.852
X93.726Y-157.353
X94.488Y-72.009
X94.615Y-68.511
X94.615Y-70.866
X94.742Y-69.596
X94.742Y-89.408
X96.012Y-93.091
X96.139Y-57.277
X96.139Y-96.139
X96.266Y-97.536
X96.266Y-98.806
X96.647Y-120.269
X98.044Y-74.168
X98.298Y-85.598
X98.425Y-72.517
X98.679Y-71.247
X98.679Y-134.874
X98.933Y-87.249
X98.933Y-115.697
X99.568Y-157.353
X100.457Y-67.31
X100.711Y-141.605
X100.838Y-99.568
X101.219Y-71.12
X101.346Y-65.659
X101.981Y-101.6
X103.378Y-102.743
X104.14Y-60.452
X104.14Y-95.123
X104.267Y-115.824
X104.267Y-121.539
X104.394Y-65.659
X104.394Y-66.675
X105.156Y-103.886
X105.283Y-67.691
X105.791Y-157.353
X105.918Y-97.663
X106.172Y-68.707
X106.236Y-105.727
X106.299Y-64.262
X107.188Y-74.422
X107.315Y-98.806
X108.839Y-58.039
X109.728Y-101.981
X109.982Y-69.342
X111.379Y-94.869
X111.633Y-157.226
X112.903Y-134.874
X113.411Y-62.484
X113.411Y-64.389
X113.411Y-94.869
X113.411Y-129.413
X115.951Y-94.869
X117.475Y-142.875
X117.602Y-157.353
X117.856Y-104.775
X118.364Y-80.391
X118.491Y-94.869
X120.015Y-53.848
X120.269Y-63.246
X121.539Y-84.074
X122.047Y-57.023
X122.682Y-66.675
X123.19Y-82.423
X123.698Y-157.353
X124.333Y-62.611
X124.333Y-129.032
X125.095Y-56.769
X125.603Y-116.078
X125.857Y-66.929
X126.238Y-112.395
X126.365Y-107.823
X126.619Y-87.757
X127.762Y-134.874
X128.524Y-69.215
X128.524Y-84.328
X128.524Y-106.172
X128.778Y-95.123
X129.54Y-143.256
X129.667Y-157.226
X130.429Y-76.962
X130.683Y-116.078
X131.953Y-85.344
X132.207Y-80.899
X132.334Y-122.047
X133.477Y-85.344
X134.62Y-55.753
X135.255Y-85.344
X135.763Y-157.353
X136.525Y-94.742
X137.16Y-82.931
X137.287Y-80.264
X138.049Y-157.353
X138.557Y-84.201
X141.732Y-65.659
X142.367Y-135.001
X142.875Y-143.764
X143.764Y-120.142
X144.145Y-157.226
X145.288Y-106.426
X148.209Y-60.833
X149.479Y-115.697
X150.114Y-157.226
X152.273Y-113.919
X153.035Y-123.19
X153.162Y-129.54
X153.187Y-95.275
X153.67Y-105.918
X154.305Y-60.96
X155.321Y-106.045
X156.21Y-96.266
X156.21Y-157.226
X157.099Y-143.129
X157.353Y-134.747
X159.004Y-67.564
X160.528Y-67.564
X160.655Y-60.96
X162.179Y-157.353
X164.338Y-69.977
X164.592Y-56.388
X165.772Y-71.501
X166.497Y-72.39
X166.497Y-73.406
X166.497Y-74.422
X166.624Y-83.312
X166.7Y-82.22
X167.132Y-96.52
X167.132Y-99.06
X168.148Y-157.226
X168.275Y-72.263
X169.418Y-76.454
X169.799Y-89.154
X170.053Y-74.549
X170.053Y-91.567
X170.18Y-93.472
X170.688Y-142.24
X171.196Y-98.552
X171.46Y-99.812
X171.704Y-134.747
X172.212Y-83.312
X172.275Y-65.596
X172.288Y-82.22
X173.228Y-106.68
X173.609Y-68.707
X174.117Y-157.226
X174.244Y-91.567
X174.244Y-93.472
X174.625Y-100.965
X174.752Y-74.549
X174.815Y-76.517
X175.006Y-78.359
X175.006Y-95.504
X175.006Y-97.917
X175.133Y-57.912
X175.133Y-59.69
X175.26Y-70.104
X175.387Y-61.722
X175.387Y-66.802
X176.403Y-55.118
X177.038Y-88.9
X177.546Y-68.199
X178.308Y-115.824
X179.832Y-82.677
X179.959Y-65.913
X180.213Y-157.226
X180.848Y-107.696
X182.499Y-55.753
X182.88Y-90.043
X184.404Y-101.092
X184.404Y-141.351
X184.658Y-67.31
X185.293Y-79.756
X185.293Y-96.676
X185.674Y-62.992
X186.309Y-134.747
X189.103Y-148.717
X189.357Y-156.845
X191.77Y-133.35
X194.056Y-54.61
X194.056Y-58.166
X194.056Y-65.913
X194.056Y-68.58
X194.056Y-71.12
X194.056Y-73.787
X194.056Y-82.804
X194.056Y-85.471
X194.056Y-88.392
X194.056Y-91.059
X194.056Y-99.568
X194.056Y-102.235
X195.453Y-148.717
X199.136Y-115.824
X199.644Y-54.356
X199.644Y-57.912
X199.644Y-65.913
X199.644Y-68.58
X199.644Y-71.12
X199.644Y-73.787
X199.644Y-82.804
X199.644Y-85.471
X199.644Y-88.392
X199.644Y-91.059
X199.644Y-99.568
X199.644Y-102.235
X201.803Y-111.633
X206.883Y-119.888
T2
X81.3Y-57.389
X81.3Y-59.929
X81.3Y-62.469
X81.3Y-65.009
X81.3Y-73.95
X81.3Y-76.489
X81.3Y-79.029
X81.3Y-81.569
X81.3Y-90.917
X81.3Y-93.457
X81.3Y-95.997
X81.3Y-98.537
X83.84Y-58.659
X83.84Y-61.199
X83.84Y-63.739
X83.84Y-66.279
X83.84Y-75.219
X83.84Y-77.76
X83.84Y-80.299
X83.84Y-82.84
X83.84Y-92.187
X83.84Y-94.727
X83.84Y-97.267
X83.84Y-99.807
X187.94Y-73.929
X187.94Y-76.469
X187.94Y-79.009
X187.94Y-81.549
X187.94Y-90.896
X187.94Y-93.436
X187.94Y-95.977
X187.94Y-98.516
X188.056Y-57.165
X188.056Y-59.705
X188.056Y-62.245
X188.056Y-64.785
X190.48Y-75.199
X190.48Y-77.739
X190.48Y-80.279
X190.48Y-82.819
X190.48Y-92.166
X190.48Y-94.706
X190.48Y-97.246
X190.48Y-99.786
X190.596Y-58.435
X190.596Y-60.975
X190.596Y-63.515
X190.596Y-66.055
T3
X78.359Y-118.11
X80.899Y-118.11
X83.439Y-118.11
X85.979Y-118.11
X88.519Y-118.11
X91.059Y-118.11
X93.599Y-118.11
X96.139Y-118.11
X99.783Y-118.11
X102.323Y-118.11
X104.863Y-118.11
X107.403Y-118.11
X109.943Y-118.11
X112.483Y-118.11
X115.023Y-118.11
X117.563Y-118.11
X121.207Y-118.11
X123.747Y-118.11
X126.287Y-118.11
X128.827Y-118.11
X131.367Y-118.11
X133.907Y-118.11
X136.447Y-118.11
X138.987Y-118.11
X142.631Y-118.11
X145.171Y-118.11
X147.711Y-118.11
X150.251Y-118.11
X152.791Y-118.11
X155.331Y-118.11
X157.871Y-118.11
X160.411Y-118.11
T4
X68.455Y-122.936
X68.455Y-125.436
X68.455Y-127.936
X71.755Y-122.936
X71.755Y-125.436
X71.755Y-127.936
X110.896Y-71.526
X110.896Y-74.066
X110.896Y-96.926
X110.896Y-99.466
X113.436Y-71.526
X113.436Y-74.066
X113.436Y-96.926
X113.436Y-99.466
X113.848Y-59.789
X115.976Y-71.526
X115.976Y-74.066
X115.976Y-96.926
X115.976Y-99.466
X116.348Y-59.789
X118.348Y-59.789
X118.516Y-71.526
X118.516Y-74.066
X118.516Y-96.926
X118.516Y-99.466
X120.848Y-59.789
X121.056Y-71.526
X121.056Y-74.066
X121.056Y-96.926
X121.056Y-99.466
X123.596Y-71.526
X123.596Y-74.066
X123.596Y-96.926
X123.596Y-99.466
X126.136Y-71.526
X126.136Y-74.066
X126.136Y-96.926
X126.136Y-99.466
X128.676Y-71.526
X128.676Y-74.066
X128.676Y-96.926
X128.676Y-99.466
X131.216Y-71.526
X131.216Y-74.066
X131.216Y-96.926
X131.216Y-99.466
X133.756Y-71.526
X133.756Y-74.066
X133.756Y-96.926
X133.756Y-99.466
X136.296Y-71.526
X136.296Y-74.066
X136.296Y-96.926
X136.296Y-99.466
X138.836Y-71.526
X138.836Y-74.066
X138.836Y-96.926
X138.836Y-99.466
X141.376Y-71.526
X141.376Y-74.066
X141.376Y-96.926
X141.376Y-99.466
X143.916Y-71.526
X143.916Y-74.066
X143.916Y-96.926
X143.916Y-99.466
X146.456Y-71.526
X146.456Y-74.066
X146.456Y-96.926
X146.456Y-99.466
X148.996Y-71.526
X148.996Y-74.066
X148.996Y-96.926
X148.996Y-99.466
X151.536Y-71.526
X151.536Y-74.066
X151.536Y-96.926
X151.536Y-99.466
X154.076Y-71.526
X154.076Y-74.066
X154.076Y-96.926
X154.076Y-99.466
T5
X153.456Y-56.371
X155.956Y-56.371
X158.456Y-56.371
X160.956Y-56.371
T6
X69.088Y-107.188
X69.088Y-109.728
X69.088Y-112.268
X69.088Y-114.808
X69.088Y-117.348
X69.088Y-133.096
X69.088Y-135.636
X69.088Y-138.176
X69.088Y-140.716
X168.147Y-110.241
X168.147Y-112.781
X168.147Y-115.321
X174.959Y-110.998
X179.959Y-110.998
X186.436Y-113.284
X188.976Y-113.284
X191.516Y-113.284
T7
X84.401Y-138.819
X84.44Y-126.118
X87.901Y-138.819
X87.94Y-126.118
X91.401Y-138.819
X91.44Y-126.118
X98.905Y-138.819
X98.938Y-125.984
X102.405Y-138.819
X102.438Y-125.984
X105.905Y-138.819
X105.938Y-125.984
X113.409Y-138.819
X113.437Y-125.984
X116.909Y-138.819
X116.937Y-125.984
X120.409Y-138.819
X120.437Y-125.984
X127.913Y-138.819
X127.935Y-125.984
X131.413Y-138.819
X131.435Y-125.984
X134.913Y-138.819
X134.935Y-125.984
X142.417Y-138.684
X142.434Y-125.984
X145.917Y-138.684
X145.934Y-125.984
X149.417Y-138.684
X149.434Y-125.984
X156.921Y-138.684
X156.932Y-125.984
X160.421Y-138.684
X160.432Y-125.984
X163.921Y-138.684
X163.932Y-125.984
X171.425Y-138.684
X171.431Y-125.984
X174.925Y-138.684
X174.931Y-125.984
X178.425Y-138.684
X178.431Y-125.984
X185.929Y-125.984
X185.929Y-138.684
X189.429Y-125.984
X189.429Y-138.684
X192.929Y-125.984
X192.929Y-138.684
T9
X91.948Y-147.237
X91.948Y-150.937
X91.948Y-155.437
X91.948Y-159.137
X97.942Y-147.237
X97.942Y-150.937
X97.942Y-155.437
X97.942Y-159.137
X103.937Y-147.237
X103.937Y-150.937
X103.937Y-155.437
X103.937Y-159.137
X109.931Y-147.237
X109.931Y-150.937
X109.931Y-155.437
X109.931Y-159.137
X115.926Y-147.248
X115.926Y-150.948
X115.926Y-155.448
X115.926Y-159.148
X121.92Y-147.237
X121.92Y-150.937
X121.92Y-155.437
X121.92Y-159.137
X127.914Y-147.237
X127.914Y-150.937
X127.914Y-155.437
X127.914Y-159.137
X133.909Y-147.237
X133.909Y-150.937
X133.909Y-155.437
X133.909Y-159.137
X139.903Y-147.237
X139.903Y-150.937
X139.903Y-155.437
X139.903Y-159.137
X145.898Y-147.237
X145.898Y-150.937
X145.898Y-155.437
X145.898Y-159.137
X151.892Y-147.237
X151.892Y-150.937
X151.892Y-155.437
X151.892Y-159.137
X157.886Y-147.237
X157.886Y-150.937
X157.886Y-155.437
X157.886Y-159.137
X163.881Y-147.237
X163.881Y-150.937
X163.881Y-155.437
X163.881Y-159.137
X169.875Y-147.237
X169.875Y-150.937
X169.875Y-155.437
X169.875Y-159.137
X175.87Y-147.237
X175.87Y-150.937
X175.87Y-155.437
X175.87Y-159.137
X181.864Y-147.237
X181.864Y-150.937
X181.864Y-155.437
X181.864Y-159.137
X203.2Y-128.67
X203.2Y-132.37
X203.2Y-136.87
X203.2Y-140.57
T10
X73.264Y-152.763
X82.764Y-152.763
X192.309Y-152.545
X201.809Y-152.545
T8
X110.778Y-59.689G85X110.778Y-58.689
G05
X116.848Y-55.009G85X117.848Y-55.009
G05
X123.918Y-58.689G85X123.918Y-59.689
G05
T0
M30
